<?xml version="1.0" encoding="utf-8"?><svg xmlns:xlink="http://www.w3.org/1999/xlink" id="Scene_1" image-rendering="auto" baseProfile="basic" version="1.1" x="0px" y="0px" width="1380" height="800" viewBox="0 0 1380 800" xmlns="http://www.w3.org/2000/svg"><g id="Scene 1_67.0"><path fill="#DDF9FF" d="M1380,800L1380,0 0,0 0,800 1380,800"/></g><g id="Scene 1_63.0"><path fill="#D1EACD" stroke="#B7DFE2" stroke-width="2" stroke-linecap="round" stroke-linejoin="round" d="M485.1,-14.7Q484.85,-13.75 484.6,-13.2 484.35,-12.6 482.7,-11.2 481.45,-10.1 481.75,-9.25 482.1,-8.05 483.95,-8.25 486.15,-8.45 486.75,-8.05 488.35,-7.05 489.25,-8 489.95,-9.5 490.35,-10.1 491.2,-11.25 490.8,-12.1 490.5,-12.85 489.25,-13.6 488.5,-14.05 487.45,-14.85 486.25,-15.9 485.5,-16.5 485.45,-16.35 485.1,-14.7"/></g><g id="Scene 1_62.0"><path fill="#D1EACD" stroke="#B7DFE2" stroke-width="2" stroke-linecap="round" stroke-linejoin="round" d="M501.3,-1.1Q501.25,-1.2 500.95,-3.1 500.75,-4.25 499.65,-4 498.55,-3.75 497.6,-2.6 496.6,-1.4 496.4,0 496.25,1.5 498.7,1.5 500.15,1.4 500.75,1.05 501.5,0.4 501.3,-1.1"/></g><g id="Scene 1_61.0"><path fill="none" stroke="#B9DDB1" stroke-width="2" stroke-linecap="round" stroke-linejoin="round" d="M510.8,34.9Q511.1,39.35 516.3,39.65 517.85,39.6 519.5,38.4 521.15,37.25 520.55,36.6 519.35,35.4 518.4,33.35 517.5,30.9 516.95,29.7 516.05,27.75 514.55,28.45 510.35,30.75 510.8,34.9"/></g><g id="Scene 1_60.0"><path fill="#D1EACD" stroke="#B7DFE2" stroke-width="2" stroke-linecap="round" stroke-linejoin="round" d="M440.2,60Q439.95,60.15 440.05,60.5 440.2,61.5 441.4,61.7 442.2,61.8 442.05,60.8 441.1,60.05 440.7,59.9 440.35,59.75 440.2,60"/></g><g id="Scene 1_59.0"><path fill="#D1EACD" stroke="#B7DFE2" stroke-width="2" stroke-linecap="round" stroke-linejoin="round" d="M442.5,67.4Q443.05,66.15 443.25,65.55 443.6,64.4 442.6,63.8 440.25,62.6 437.85,65 440.5,64.75 441.15,65.8 441.7,66.75 440.7,68.85 439.9,70.55 438.85,74.05 438.15,75.7 438.9,76.65L444.25,83.1Q444.75,83.7 445.4,83.75 445.7,83.75 446.65,83.55 448.7,83.15 449.2,81.35 449.5,79.15 449.95,78.2 451.05,75.9 450.3,75.3 449.95,74.95 447.85,74.75 441.25,74.1 442.5,67.4"/></g><g id="Scene 1_58.0"><path fill="none" stroke="#ADEEF7" stroke-width="2" stroke-linecap="round" stroke-linejoin="round" d="M199.85,287.55Q198.95,286.65 198.7,286.4 198.15,285.9 197.05,285.3 195.55,284.65 194.75,284.2 194.8,285.7 195.25,286.8 195.45,287.2 196.3,288.55 196.85,289.45 197.65,289.6 198.45,289.75 199.3,289.15 200.4,288.45 199.85,287.55"/></g><g id="Scene 1_57.0"><path fill="none" stroke="#ADEEF7" stroke-width="2" stroke-linecap="round" stroke-linejoin="round" d="M194.4,321.15Q194.05,321.3 194.1,321.7 194.15,321.9 194.6,322.2 195.45,322.65 195.7,322.85 196.1,322.15 196.15,321.75 196.3,320.8 195.15,321L194.4,321.15"/></g><g id="Scene 1_56.0"><path fill="none" stroke="#ADEEF7" stroke-width="2" stroke-linecap="round" stroke-linejoin="round" d="M216.65,391Q217,391.9 218.05,393.55 218.95,395.65 220.75,396.4 222.25,397.1 226.4,400.15 229.9,402.65 232.6,403.2 232.55,401.6 231.8,400.3 231.05,398.95 229.95,398.5 227.65,397.6 226.1,395.45 225.4,394.45 223.85,391.25 223.65,390.8 223.15,390.3 221.75,388.85 220.25,388.4 218.5,387.8 217.2,388.65 216.05,389.5 216.65,391"/></g><g id="Scene 1_55.0"><path fill="#9BDBF4" d="M321.55,594.45Q320.15,594.65 319.1,596.4 317.6,599.05 313.6,603.95 310.6,608.55 311.75,613.15 311.75,613.4 311.5,613.85 311.35,614.1 311.05,614.55 310.15,616.2 310.8,620.45 311.5,624.75 312.9,625.75 315,627.25 315.35,629.05 315.65,630.7 314.55,633 312.45,637.3 317.2,640.85L317.45,641.05Q318.15,641.55 318.15,642.4 318.15,643.15 317.5,643.8 317.3,643.95 317.2,644.35 317,645.4 317.85,645.95 318,646.1 319.45,646.65 321.15,647.25 321.5,647.8 322.05,648.65 321,650.15 320.8,650.35 320.65,650.75 320.25,651.7 320.95,652.45 321.6,653.25 322.6,653.05 324.85,652.5 325.6,651.4 326,650.75 326.75,650.7 327.55,650.6 328.1,651.15 331.15,653.9 331.4,656.05 331.65,658.1 329.7,662.8 329.1,664.3 330.35,665.2 331.6,666.25 332.25,667.85 332.65,668.9 333.05,671.1 333.1,671.45 333.7,676.75 334.1,680.2 335,682.4 335.55,683.75 336.1,683.95 336.55,684.15 337.7,683.65 338.35,683.35 339.65,682.65 340.8,682.3 341.4,683.6 342,684.7 343.2,685.05 343.85,685.25 345.25,685.55 347.35,686.4 349.8,685.5 351.2,684.95 353.9,683.9 360.55,682.75 361.9,683.55 363.6,684.55 363.75,691.1 363.8,693.35 364.75,693.8 365.45,694.2 367.45,693.4 368.6,692.9 370.95,691.7 373,690.95 374.9,691.55 377.35,692.45 380.4,691.15 383.6,689.9 384.5,687.6 385.2,685.7 385.95,685.55 386.65,685.45 387.85,686.8 389.25,688.35 390.5,688.8 392.1,689.4 393.85,688.65 395.8,687.8 395.8,690.15 395.8,694.95 400.55,692.7 402.7,691.6 405.4,692.15 406.95,692.45 410.1,693.45 413.2,694.2 413.9,696.65 414.25,698.1 414.2,701.35L414.4,702.55Q415.55,706.65 419.05,704.75 420.8,703.8 423.8,702.6 427.3,701.05 428.5,700.55 430.65,699.5 435.25,697.9 439.1,696.15 440.5,692.85L440.55,692.8Q440.45,693.05 440.5,693.35 440.5,693.7 440.4,697.05 440.35,699.25 440.45,700.75 440.55,701.9 441.75,702.2 442.95,702.45 443.55,701.45 443.9,700.9 444.65,698.05 445.2,695.9 446.55,695.25 446.65,695.2 446.55,694.75 446.5,694.25 446.35,694.2 444.35,693.15 443.4,690.9 443.1,690.1 442.25,686.4 442.05,685.65 442.6,684.95 443.15,684.3 443.95,684.3 444.75,684.35 445.1,683.35 445.25,682.95 445.55,681.25 446.3,677.15 448.45,674.9 449.7,673.7 449.7,672.45 449.7,671.05 447.85,670.1 445.9,669.15 446.9,667.05 448.2,664.35 446.45,663.25 445.8,662.8 445.75,662.05 445.6,661.3 446.1,660.7 446.75,660.05 450.2,655.85 452.35,653.25 453.45,652.6 454.5,652.05 456.05,652.15 457.35,652.3 458.5,651.3 458.8,651.05 460.55,648.55 461.75,646.9 463.2,646.7 465.15,646.45 466.05,645.05 466.4,644.5 467.3,642.1 467.7,641.05 466.8,640.2 465.75,639.15 465.7,638.45 465,627.6 470.6,618.4 471.85,616.5 474.2,615.15 476.55,613.8 477.8,614.3 479.85,615.1 483.55,615.25 487.55,615.4 489.2,615.8 490.85,616.25 492.05,614.15 493.05,612.05 492.1,611.6 490.75,611 489,608.8 487.25,606.6 486,606.1 483.15,604.95 480,601.85 475.25,597.25 474.75,596.8 472.75,595.25 472.95,593.75 473.1,592.65 474.85,591 475.2,590.65 476.4,589.85 477.25,589.05 476.45,588.4 474.55,586.6 471.5,580.85 468.75,575.7 465.75,573.9 464.2,572.9 464.4,572.1 464.5,571.45 465.95,570.55 466.15,570.45 467.3,570.4 468.1,570.35 468.25,569.5 468.15,569.3 467.8,569.1 467,568.7 466.8,567.9 466.6,567.05 467.2,566.45 468.35,565.2 468.75,564.85 469.75,564.1 470.9,563.8 472.3,563.45 471.95,562.45 471.7,561.75 470.65,560.8 470.1,560.3 468.85,559.4 467.65,558.5 467.1,557.95 466.45,557.35 466.6,556.5 466.75,555.65 467.55,555.25 469.5,554.3 474.55,553.45 480.2,552.5 481.3,552.2 482.2,551.95 484.25,551.55 485.9,551.05 486.05,549.95 486.2,548.8 484.75,548 482.8,547.3 482.05,546.8 478.65,544.65 479.3,542.45 480.1,539.55 484.15,540.35 489,541.4 495.3,538.4 497.8,537.2 497.8,535.05 497.8,533.9 496.9,533.3 496.45,532.95 495.1,532.7 493.15,532.25 490.75,530.7 488.15,528.95 486.75,528.15 483.9,526 482.35,525.35 479.75,524.2 477.3,526.85 476.9,527.3 476.1,527.35 475.2,527.45 474.75,526.85 474.05,526.15 474.6,525.6 474.9,525.35 475.6,524.75 476.55,523.8 476.6,523.75 477.05,523.1 476.55,522.45 476.05,521.7 475.15,521.9 474.15,522.35 473.65,522.45 472.25,522.9 471.5,523 470.25,523.1 469.65,522.2 468.9,521 468.65,519.9 468.3,518.45 468.9,517.65 470.9,514.85 469.55,513.3 469,512.65 465.8,511.1 464.85,510.7 464.4,510.45 463.5,510.05 463.05,509.6 462.45,509.05 461.65,506.6 461,504.65 459.9,504.75 458.9,504.85 457.55,506.45 456,508.45 455.25,509.25 455.15,509.35 454.9,509.35 454.55,509.35 454.5,509.35 454.5,509.3 454.8,506.8 455,505.3 453.5,504.95 452.1,504.65 451.45,505.9 451.4,505.95 450.65,508.4 449.85,511 446.55,514.2 441.95,518.6 440.05,523 438.15,527.45 437.45,528.25 435.4,530.9 431.7,530.4 431,530.35 430.2,531.1 429.3,532.1 428.9,532.55 428.25,533.25 428.25,533.65 428.2,534.2 429.15,534.6 431.15,535.4 431,536.85 430.9,537.7 429.7,539.35 428.45,541.1 426.2,542 423.9,542.8 422.95,541.8 420.85,539.55 418.9,540.25 418.55,540.4 415.75,542.5 412.9,544.75 410.7,545.7 407.85,547.05 404.9,546.95 402.2,546.9 402.15,549.5 402.1,552.25 400.6,554.75 399.45,556.65 397.05,559 395.25,560.35 394.4,561.05 392.8,562.3 392.15,563.6 386.75,574.5 373.9,576.55 370.1,577.1 364.45,578.55L355.1,580.95Q353.55,581.25 353.8,582.1 354.6,584.35 353.2,587.9 351.65,591.8 351.85,593.6 352,594.9 351.3,596.6 351,597.3 349.9,599.55 348.6,602 346.7,602.65 344.75,603.3 342.65,601.9 340.2,600.25 337.05,599.75 334.8,599.35 331.25,599.55 327.15,599.75 324.7,596.3 323.25,594.15 321.55,594.45"/></g><g id="Scene 1_54.0"><path fill="#9BDBF4" d="M400,759.4Q401,759.25 401.85,758.25 402.6,757.25 402.55,756.2 402.5,755.1 401.45,754.95 400,755 399.4,754.95 398.9,754.9 394.5,754.9 392.65,754.6 389.25,755.1 384.95,755.7 383.6,755.75 382.2,755.8 381.05,756.35 379.75,757.1 379.7,758.2 379.65,759.15 380.85,759.75 381.6,760.1 383.3,760.6 386.95,761.8 391.75,761.05 394.55,760.65 400,759.4"/></g><g id="Scene 1_53.0"><path fill="#9BDBF4" d="M169.75,590.75Q166.95,588.2 165.55,588 164.55,587.85 162.25,589 160,590.1 160.95,590.5 155.4,588.6 154.05,585.3 153.45,583.7 151.4,581.8 149.05,579.65 148.5,578.7 145.3,573.2 140.6,570.1L116.85,554.25Q115.8,553.6 115.5,552.95 115.1,552.15 115.5,551.1 116.65,547.9 113.35,546.65 111.65,546.1 110.8,544.35 107.75,538.65 105.85,536.8 102.35,533.55 97.05,534.6 96.35,534.7 95.1,534.1 93.25,533.15 91.15,533.1 89.4,533.05 87,533.6 79.75,535.25 73.05,529.65 70.35,527.3 66.25,526.7 63,526.25 61.5,528.15 59.95,530.15 61.2,533.1 63.6,538.95 64.6,540.8 66.85,544.9 70,547.4 72.7,549.55 76.35,553.1 78.4,555.1 82.5,559.05 83.45,560.05 84,560.4 84.95,560.95 85.85,560.8 88.3,560.5 90.25,561.95 91.1,562.6 93.35,565.25 94.6,566.6 96.5,569.8 97.65,571.3 103.9,580.2 108.75,587.1 109.3,587.35 116.75,590.5 120.25,593.6 125.2,598 126.25,604.85 126.7,607.8 129.15,613.6 131.55,619.3 131.95,622.55 132.1,623.55 132.8,624.05 133.3,624.4 134.5,624.6 142.15,626.55 143.65,632.9 144.1,634.85 146.6,636.55 150.5,639.2 153.3,644.9 154.85,648.1 157.75,654.5 161.2,660.65 161.85,662 163.9,666.45 164.05,670.4 164.1,671.5 165.05,672.85 165.85,674.05 167,674.95 169.4,676.9 171.85,680.2 173.25,682.1 175.95,685.95 176.4,686.55 178.2,688.25 183.3,692.95 184.3,693.9 187.65,697.2 189.9,700.2 193.65,705.2 200.1,710.05 203.25,712.4 212.05,718.05 216.9,721.2 219.6,724.3 221.5,726.6 224.45,729.55 226.15,731.25 229.5,734.65 230.8,735.9 231.6,735.45 232.25,735.1 232.15,734.35 232.1,734 231.7,733.05 231.5,732.35 231,731.6 230.45,730.65 230.4,730.6 230.2,730 230.8,729.5 231.7,728.8 233,729.65L236.65,732.05Q238.8,733.4 239.9,732 242.15,729.05 244.7,729.9 245.9,730.3 248.85,732.8 250.4,734.1 251.2,733.65 251.8,733.35 252.4,731.7 252.55,731.3 252.9,729.4 253.95,724.4 253.55,714.25 253.15,704.15 254.3,699.1 254.45,698.45 253.95,697.6 252.75,695.2 253.45,692.9 254.05,691 256,688.95 259.25,685.55 255.3,683.25 253.05,681.9 251.45,679.3 250.65,678.05 249.1,674.5 248.4,672.95 247.75,672.35 246.9,671.7 245.55,671.7 245.05,671.7 239.65,671.25 236.1,670.9 233.65,671.75 234.75,669.35 235.25,668.25 236.1,666.35 234.15,665.7 231.25,664.7 230.05,663.3 228.85,661.8 228.7,658.8 228.3,650.65 223.35,647.9 222,647.1 216.55,646.35 212.45,645.75 210.6,642.95 209.55,641.25 209.8,639.25 210.05,637.1 211.6,636.15 212.1,635.85 213.2,635.4 214.15,634.95 214.55,634.3 214.35,633.55 212.55,633.55 210.55,633.5 210.2,632.75 209.85,632.05 210.45,631.25 210.95,630.5 212.1,629.9 212.75,629.55 214,628.95 217.2,626.9 214.1,623.05 211.15,619.5 208.1,619.25 207.9,619.25 206.9,619.7 205,620.4 204.05,620.7 202.5,621.3 202.55,621.2 202.8,619.6 201.95,618.3 201.1,617 199.5,616.45 198.45,616.05 198.65,615.5 198.85,615.05 200.1,614.9 201.6,614.75 202.7,613.6 203.85,612.5 203.4,611.15 203,609.85 201.3,609.5 200,609.2 198.2,609.5 194.95,610.05 193.3,606.85 191.2,602.75 189.4,601.9 188.15,601.3 186.1,600.9 182.65,600.15 182.6,600.15 180.25,599.5 179.25,598.4 178.4,597.5 177.7,595.4 177.65,595.3 178.95,593.15 179.85,591.5 177.7,591.35 177.05,591.3 176.1,591.6 175.1,592 174.55,592.15 172.1,592.9 169.75,590.75"/><path fill="#9BDBF4" d="M246.9,657.7Q246.25,658 245.9,658.3 245.6,658.55 245.35,659.05 245.2,659.35 244.9,659.95 244.8,660.1 244.4,661 244.1,661.65 243.8,662 243.3,662.6 241.75,663.55 240.6,664.55 241.3,665.85 242.05,667.1 243.6,667.05 244.55,667.05 246.4,666.6 246.6,666.6 247.5,666.3 249.9,666.25 252.15,668.85 254.4,671.45 254.45,674.35 254.55,676.55 254.7,677.05 255.1,678.4 256.5,679.1 258,679.85 261,681.25 263.55,682.55 265.15,684 265.65,684.5 266.4,684.55 267.2,684.6 267.8,684.25 268.6,683.7 268.2,683.05 267.55,682.3 267.45,681.95 266.95,679.9 268.1,678.55 269.55,676.65 268.8,675.45 268.2,674.45 266.1,674.2 263.25,673.9 261.55,671.9 260.35,670.45 259.4,667.4 259.25,666.9 258.5,662.7 258.2,660.85 255.9,658.35 254.6,656.9 251.7,658.05 248.9,659.05 247.6,657.55 247.5,657.45 246.9,657.7"/><path fill="#9BDBF4" d="M258.75,737.1Q256.35,736.65 255.25,737.55 254.4,738.2 254.05,740 253.55,742.35 252.75,743.9 251.75,745.65 250,746.9 249.4,747.35 248.85,748.4 248.55,749 248,750.25 247.35,751.5 247.7,752.25 248.1,752.95 249.45,752.85 252.4,752.65 256.1,753.5 258.25,753.95 262.6,755.1 265.1,755.75 265.45,756.8 265.8,757.7 264.7,759.6 263.65,761.35 264.2,762.25 264.65,763.1 266.6,763.3 269.75,763.6 276.05,764.15 281.8,764.8 286.25,767 292.1,769.9 294.7,770.45 299.65,771.4 303.75,768.5 304,768.3 304.55,768.25 304.9,768.2 305.8,768.1 307.3,768.95 310.05,768.75 313.5,768.45 314.5,768.6 321.3,769.85 324,770.55 329.25,771.9 333.15,773.95 340.35,777.8 351.7,779.15 353.05,779.3 362.65,779.45 369.3,779.55 373.5,781.1 375.55,781.9 376.8,782.05 378.65,782.3 380.05,781.5 383.6,779.4 387.25,779.8 390.45,780.1 394.15,782.5 395,783 396.7,783.55 398.7,784.15 399.35,784.45 400.45,785 404.7,785.55 408.1,786 409.75,787.7 409.85,787.8 410.25,787.75 410.65,787.7 410.8,787.6 411.7,786.75 410.55,785.9 408.25,784.05 407.8,781.4 407.5,779.4 408.3,776.15 409.15,772.7 406.4,769.95 403.65,767.2 400.15,768.15 398.15,768.75 394.9,768.9 390.6,769.25 389.55,769.4 387.2,769.75 385,769 382.45,768.15 381.4,766.3L376.75,758Q375.55,755.8 373.8,754.8 372.25,754 369.8,753.85 369.45,753.8 368.2,753.9 367.2,753.9 366.7,753.75 362.1,751.9 359.75,751.1 355.7,749.75 352.45,750.35 350.75,750.7 349.4,748.15 348.5,746.6 347.1,745.85 345.7,745.15 344.05,745.25 342.6,745.4 341.7,746.65 341.05,747.5 340.4,749.45 339.25,752.3 338.55,753.3 337.15,755.2 335,754.9 333.7,754.75 329.5,754.45 326.05,754.15 324,753.8 318.55,752.85 308.45,752.35 305.5,752.25 304.15,751.4 302.6,750.4 301.75,747.85 300.1,743.05 294.65,742.9 290.75,742.8 289.35,742.55 286.3,742.05 284.45,740.6 280.9,737.8 279,737.3 276,736.5 273,739.25 272.7,739.55 271.05,739.4 268.6,739.1 264.9,738.3 259.6,737.25 258.75,737.1"/><path fill="#9BDBF4" d="M411.55,780.25Q412.5,781.6 414.65,782.25 415.3,782.5 416.6,782.8 417.8,783.15 418.3,783.7 420.7,786.3 423.2,786.15 425.35,786 428.1,783.8 430.1,782.25 430.15,780.65 430.25,778.95 428.15,777.7 423.85,775.1 420.95,776.2 416.1,778.05 410.35,776.15 410.35,778.75 411.55,780.25"/><path fill="#9BDBF4" d="M442.25,779.4Q439.35,779.85 439.35,783.6 439.35,785.5 438.85,786.7 438.15,788.2 436.5,789L441.75,790.75Q444.6,791.8 445.55,789.85 445.6,789.8 448.5,785.7 450.3,783.25 450.25,780.95 450.25,780.7 449.85,780.3 448.3,779.15 446.1,779.05 444.9,779 442.25,779.4"/><path fill="#9BDBF4" d="M453.95,783.95Q451.2,786.35 451.25,790.5 451.1,791.7 451.9,792.5 452.5,793.15 454.05,793.7 455.35,794.25 457.2,793.7 459.45,793 460.1,793.05 463.3,793.15 467.9,791.95 474.8,790.15 475.5,790.05 476.7,789.85 478.95,788.5 480.95,787.7 482.55,789.75 482.75,790 484.75,789.2 487.95,788.05 489.5,787.3 490.05,787.05 491.65,787.4 492.85,787.4 492.5,785.75 492.3,783.25 491.9,782.05 491.25,780.05 488.85,780.15 488.7,780.15 484.65,779.5 482.1,779.1 480.4,780.3 479.75,780.8 478.8,780.25 478.45,780.1 477.25,779.15 475.4,777.15 474.25,776.55 473.05,775.8 471.7,775.95 470.35,776.1 469.6,777.2 468.4,779.15 471.35,781.1 472.45,781.8 474.1,782.6 475.1,783.1 477,784.05 477.85,784.5 478.05,784.85 478.35,785.4 477.55,786.1 476.25,787.2 473.1,787.25 469.8,787.3 468.95,786 467.6,783.75 465.25,782.9 464.05,782.45 460.55,782.05 456.6,781.6 453.95,783.95"/><path fill="#9BDBF4" d="M509.6,782.9Q508.4,783.95 508.05,785.2 507.9,785.85 507.9,787.7 507.95,788.85 508.75,789.35 509.4,789.75 510.45,789.5 513.7,788.8 523.35,790.4 531.5,791.75 536.3,788.95 537,788.6 537.85,789 541.1,790.55 545.85,789.2 552.1,787.45 553.65,787.45 556.15,787.45 560.85,783.7 565.1,780.35 568.7,781.3 568.8,781.35 569.1,780.9 569.4,780.45 569.5,780.15 569.55,780.05 569.2,779.7 568.9,779.4 568.75,779.4 567.85,779.55 563.85,779.9 560.9,780.2 559.45,780.5 557.65,781 557.45,781.1 556.35,781.55 556.1,782.4 554.95,785.75 552.6,785.75 551.4,785.75 548.15,784.25 543,781.75 539.35,783.85 537.8,784.7 536.55,784.55 535.9,784.45 534.05,783.65 525.2,779.9 522.05,779.4 515.2,778.35 509.6,782.9"/><path fill="#9BDBF4" d="M601.7,779.2Q601.7,777.95 600.65,777.8 598,777.45 596.7,777.3 594.35,777 592.75,777.05 590.65,777.05 590.75,780.35 590.75,782.45 593.2,782L600.25,780.8Q601.65,780.6 601.7,779.2"/><path fill="#9BDBF4" d="M603,787.05Q602,789.65 599.65,791.5 597.95,792.85 594.85,794.2 592.95,795.1 588.65,796.75 584.55,798.4 582.4,799.35 578.6,801.15 577.25,804.2 575.85,807.25 577.05,811.1 577.35,812.2 577.15,812.65 576.95,813.1 576,813.45 573.5,814.4 574.05,816 574.35,816.85 575.45,817.15 576.55,817.4 577.2,817.1 579.1,816.2 583.6,815.05 587.8,814 589.8,812.9 595.4,809.95 599.95,803.5 603.75,798.2 610,796.9 615.35,795.85 623.4,792.3 633.4,787.9 636.45,786.85 637.2,786.65 638.9,784.9 639.3,784.5 640.25,783.65 640.95,782.8 640.65,782 640.3,780.95 639.15,780.8 637.8,780.9 637.15,780.85 635.85,780.8 632.7,781.85 629.85,782.7 627.95,782.3 626.45,782.55 617.2,783.35 610.5,784 606.25,785.1 604.6,785.55 604.35,785.65 603.35,786.15 603,787.05"/><path fill="#9BDBF4" d="M632.55,766.85Q630.55,766.4 629.4,766.95 627.3,767.85 624,768.5 620.4,769.1 618.55,769.5 617.55,769.8 617.3,769.95 616.75,770.3 616.95,771.2 617.15,772.05 617.65,772.3 618.1,772.5 619,772.35 619.55,772.25 625.4,773.2 629.25,773.8 631.25,770.9 631.35,770.75 633.45,770.2 635.4,769.5 635.05,768.45 634.65,767.3 632.55,766.85"/><path fill="#9BDBF4" d="M524.2,810.9Q522.2,807.4 517,804.5 510.15,800.6 508.75,799.4 508.65,799.3 508.25,799.25 507.8,799.3 507.55,799.25 505.45,799.9 502.3,799.95 498.7,799.85 496.95,799.9 495.05,800 493.6,800.65 492,801.5 491.75,802.8 491.45,804.5 493.1,805.15 493.95,805.45 496.1,805.65 500.7,806.1 504.75,808.35 508.35,810.3 511.9,813.9 513.8,815.75 517.95,815.55 521.95,815.3 524.1,813.35 524.75,812.7 524.7,812.15 524.7,811.75 524.2,810.9"/></g><g id="Scene 1_52.0"><path fill="#FFF" d="M1028.4,728.95Q1026.3,728.5 1025.45,730.4 1025.05,731.45 1025.5,732.4 1025.9,733.15 1026.7,733.4 1027.95,733.8 1034.25,737.35 1038.75,739.9 1042.5,739.55 1043.7,739.4 1044.8,739.8 1045.95,740.3 1046.65,741.4 1047.3,742.35 1047.65,742.7 1048.25,743.3 1049.05,743.25 1052,742.95 1058,743.45 1063.35,743.45 1066.65,740.7 1068.75,738.95 1072.95,738.5 1075.9,738.2 1078.25,736.6 1080.55,735 1081.85,732.55 1083,730.35 1084.05,729.9 1085.3,729.3 1087.3,730.15 1088.75,730.7 1090.2,730 1090.95,729.65 1092.6,728.3 1093.65,727.5 1093.2,726.35 1092.45,725.15 1092.1,724.5 1090.9,722.25 1091.35,721 1091.9,719.7 1094.6,719.25 1096.85,718.9 1098,715.2 1099.2,711.55 1098,708.95 1097.55,707.95 1096.25,707.15 1094.1,705.85 1094.05,705.8 1093.15,705.05 1092.3,705.7 1092,705.9 1090.95,707.15 1090.55,707.65 1090.1,707.4 1089.85,707.3 1089.3,706.8 1088.6,706.2 1087.5,706 1086.2,705.9 1085.5,705.85 1081.8,705.55 1083.8,708.8 1085.85,712.1 1085.45,716 1085.4,717.4 1084.8,718.25 1084.1,719.25 1083,718.95 1080.85,718.45 1079.25,719.65 1079,719.8 1076.7,722.2 1073.15,726.8 1071.05,728.35 1067.4,731.1 1062.65,728.75 1062.6,728.75 1062.25,728.85 1059.75,730.35 1058.85,729.4 1058.45,729 1057.45,725.8 1057.25,725.45 1056.4,725.45 1055.45,725.45 1055.25,725.8 1054.35,728.15 1053.05,729 1051.6,730 1049,729.45 1047.75,729.2 1044.8,730.1 1042,730.9 1040.45,730.25 1038.25,729.4 1034.4,729.35 1029.95,729.3 1028.4,728.95"/></g><g id="Scene 1_51.0"><path fill="#FFF" d="M1151.5,736.9Q1147.6,733.15 1145.9,729.3 1145.5,728.5 1144.7,728.3 1142,727.9 1139.05,726.1 1138.45,725.65 1137.75,725.2 1137.55,725.05 1138,725.6 1140.1,728.15 1139.75,730.25 1139.15,734.1 1141.15,736.95 1142.75,739.3 1146.4,741.3 1147.6,741.95 1148.05,742.5 1148.65,743.25 1148.45,744.35 1147.95,747 1149.55,748.65 1150.45,749.55 1153.25,751 1155.5,752.2 1157.4,752.05 1159.5,751.85 1160.7,750 1162,748.25 1161.1,746.35 1160.5,745.05 1158.55,743.2 1153.75,739.1 1151.5,736.9"/></g><g id="Scene 1_50.0"><path fill="#FFF" d="M1073.55,678.45Q1072.75,678.05 1072.35,678.95 1071.95,679.8 1072.8,680.25L1075.05,681.5Q1078.75,683.4 1084.75,688.35 1090.45,693.1 1094.55,695 1095.65,695.6 1096.4,697L1101.4,703.1Q1104.5,707 1104.1,710.3 1104,711.65 1105.05,713.15 1106,714.55 1107.45,715.4 1108.15,715.85 1109,715 1109.7,714.35 1110.05,713.45 1111.05,710.5 1111.15,709.65 1111.45,707.45 1110.6,705.4 1109.6,703.15 1106.7,701.4 1103.25,699.25 1102.4,698.3 1097.4,692.2 1089.4,687.05 1084.85,684.2 1074.35,678.85L1073.55,678.45"/></g><g id="Scene 1_49.0"><path fill="#FFF" d="M1247,809.55Q1248.1,810.15 1249.45,809.7 1250.65,809.25 1251.5,808.15 1251.4,806.3 1247.2,803.3 1243,800.3 1240.85,800.5 1237.95,800.75 1236.65,800.65 1234.4,800.4 1232.65,799.15 1231.2,798.1 1230.45,798.8 1229.75,799.45 1230,801.15 1231.05,807.35 1236.25,807.55 1240.05,807.7 1241.7,807.95 1244.75,808.4 1247,809.55"/></g><g id="Scene 1_48.0"><path fill="#FFF" d="M1212.2,766.55Q1211.1,766.25 1210.55,767.35 1210,768.4 1210.95,769.15 1214.75,772.3 1220.7,776.1 1226.55,779.85 1231.7,782.55 1232.75,783.1 1233.5,782.2 1234.3,781.4 1233.65,780.4 1232.65,778.9 1229.7,776.85 1228.7,776.2 1223.6,774 1219.8,772.4 1218.15,770.1 1216.2,767.5 1212.2,766.55"/></g><g id="Scene 1_47.0"><path fill="#FFF" d="M1252.6,783.1Q1251.25,781.8 1249.3,781.8 1248.7,789.7 1253.65,795.9 1256.4,799.35 1264.8,805.8 1266.4,805.55 1266.25,803.95 1266.05,802.5 1265.25,801.95 1260,798.75 1257.75,792.75 1257.45,792.15 1256.7,791.6 1254.5,790.1 1254.1,786.65 1253.9,784.5 1252.6,783.1"/></g><g id="Scene 1_46.0"><path fill="#FFF" d="M1176.45,749.65Q1175.55,749.45 1175.05,750.25 1174.55,751.05 1175.2,751.8 1177.8,754.8 1179,755.95 1181.15,758.2 1183.2,759.7 1185.05,761 1189,762.05 1190.15,762.3 1190.6,762.25 1191.4,762.1 1191.65,761.2 1192.05,759.75 1189.95,759.5 1188,759.2 1186.55,757.75 1186.25,757.4 1184.1,754.65 1181,750.75 1176.45,749.65"/></g><g id="Scene 1_45.0"><path fill="#FFF" d="M1190.85,774.95Q1186,774.95 1185.45,773.7 1185.1,772.95 1184.4,772.55 1183.6,772.15 1182.8,772.45 1181.95,772.8 1181.55,773.45 1181.15,774.15 1181.55,775 1182.7,777.2 1184.2,778.5 1186,780.1 1187.7,779.95 1190.25,779.7 1191.8,780.5 1193.25,781.25 1194.4,783.3 1194.75,783.95 1195.4,784.25 1196.05,784.55 1196.75,784.25 1197.4,784 1197.7,783.1 1198.1,781.65 1195.25,778.25 1192.45,774.95 1190.85,774.95"/></g><g id="Scene 1_44.0"><path fill="#FFF" d="M1261.85,815.95Q1261,815.75 1260.7,816.4 1260.2,817.4 1260.75,818.35 1261.25,819.2 1262,819.45 1262.95,819.75 1263.55,821.1 1264.8,823.95 1268.25,824.85 1270.1,825.35 1273.45,826.05 1275.85,826.35 1276.55,825.7 1277.2,825.15 1276.6,823.65 1275.5,820.7 1273.85,820.45 1271.4,820.05 1268.4,818.85 1268.05,818.7 1263.2,816.5 1262.15,816 1261.85,815.95"/></g><g id="Scene 1_43.0"><path fill="#FFF" d="M994.3,664Q992.6,663.75 992.5,665.5 992.5,667.5 993.5,667.35 995.05,667.1 998.5,667.55 1001.75,668 1003.55,667.55 1005.4,667.05 1005.4,665.65 1005.45,664.8 1004.7,664.6 1003.75,664.6 1003.3,664.55L998.25,664.55 994.3,664"/></g><g id="Scene 1_42.0"><path fill="#FFF" d="M1058.4,672.05Q1057.45,671.85 1056.55,672.3 1055.55,672.8 1055.85,673.65 1057,677.45 1060,677.2 1061.35,677.1 1062.05,676.55 1062.9,675.85 1063.2,674.45 1062.55,673.2 1061.15,672.7 1060.2,672.3 1058.4,672.05"/></g><g id="Scene 1_41.0"><path fill="#9BDBF4" d="M522.35,292.55Q522.3,293.05 521.75,294 520.2,299.4 520.15,299.6 519.4,302.85 519.9,305.3 520.5,308.4 520.2,312.05 519.95,314.4 519.1,318.65 518.75,320.4 518.1,323.9 517.75,326.95 518.75,329.2 520.05,331.9 517.85,333.3 515.25,334.75 513.15,332.65L512.75,332.25Q511.5,330.9 509.7,331.65 507.95,332.3 508.05,334.15 508.2,336.45 510.1,337.95 510.75,338.45 510.9,339.45 510.95,340.05 510.85,341.3 510.65,343.55 511.3,346.1 511.7,347.75 512.85,350.6 513.35,351.85 513.25,355.05 513.7,357.6 517.05,357.4 517.1,357.4 517.15,357.8 517.25,358.2 517.25,358.5 517.2,359.45 517.75,360.2 518.05,360.7 518.85,361.6 519.3,362 519.9,363.15 520.55,364.05 521.35,363.75 523.2,363.1 522.55,360 522.3,359 522.25,358.5 522.2,357.7 522.95,357.6 526.3,357.3 528.9,360.05 531,362.25 528.2,364.35 526.1,365.75 524.85,368.2 523.35,371 523.75,372.2 524.15,373.5 527.1,374.6 528.15,375 529.25,376.05 529.9,376.6 531.1,377.75 533.35,379.6 535.05,379.35 536.55,379.05 538.4,376.65 542.05,371.9 545.45,374.15 552.5,378.5 556.4,383.6 556.75,384.1 557.5,385.25 558.25,386.05 559.25,385.55 560.55,384.95 560.3,383.7 560.15,383.1 559.35,381.75L559.3,381.7Q558.2,379.8 559.8,378.3 561.4,376.8 563.2,378.1 565.9,380.05 567.9,381.85 570.1,383.85 570.35,384.75 570.95,387.3 571.75,388.5 572.85,390.25 575.05,390.9 579.8,392.5 581.35,393.2 582.6,393.75 582.9,395.2 583.3,397.2 583.65,397.65 583.9,397.95 584.75,398.55 585.85,399.65 586.95,397.8 588.75,394.55 587.65,392.35 586.6,390.2 583,389.8 581.9,389.75 581.45,389.6 580.7,389.3 580.95,388.25 581.35,386.55 580.3,384.95 579,383.2 578.35,382.3 576.45,379.55 576.7,378.95 576.9,378.35 580,377.85 580.4,377.8 581.2,377.75 581.9,377.6 582.1,377 582.3,376.35 581.75,375.75 581.05,375.15 580.7,374.8 579.95,374.05 578.1,373.95 576.15,373.8 575.45,373.35 573.55,372.1 572.6,372.45 571.45,372.85 571.3,375.25 571.25,377.2 569.15,376.95 567.75,376.8 567.55,375.05L567.45,373.9Q567.05,370.8 565.4,368.9 563.75,367.05 561.25,366.7 557.5,366.2 556.15,367.15 554.7,368.05 553.3,372 552.95,372.95 551.35,373.05 548.9,373.25 546.65,371.6 544.5,369.95 543.5,367.5 542.65,365.55 542.1,360.95 541.55,356.65 540.4,354.55 538.45,350.75 538.15,348.85 537.65,345.75 540,343.1 540.65,342.35 540.3,340.35 539.95,337.65 541.3,335.65 542.55,333.7 544.8,333.3 548.8,332.6 551.05,329.85 552.65,327.95 554.15,323.7L555.65,320.3Q557.3,316.95 557.15,314.6 557,311.7 554.1,309.6 553.5,309.1 552.85,307.2 551.4,302.65 551.35,299.75 551.3,295.7 553.7,292.45 554.5,291.35 554.1,289.95 553.85,289.05 552.8,287.75 552.2,287.1 551.55,287.45 551,287.75 550.6,288.5 549.15,291.25 546.8,291.5 544.9,291.7 542.1,290.35 540.15,289.45 539.2,289 537.6,288.1 536.6,287.25 534.75,285.75 532.2,285.75 529.15,286.1 527.55,286.2 524.6,286.45 523.4,288.3 522.6,289.55 522.35,292.55"/></g><g id="Scene 1_40.0"><path fill="#9BDBF4" d="M601.1,465.95Q600.2,465.25 599.3,467.5L597.65,472Q596.65,474.5 595.05,473.65 592.25,472.25 590.85,473.25 589.7,474.15 589.25,477.15 588.9,479.5 586.6,480 583.9,480.15 582.8,480.4 581.5,480.75 581.4,479.45 581.5,477.8 581.45,477.2 581.3,474.4 579.3,473 578.05,472.15 574.95,471.4 573.65,471.1 570.2,473.15 566.75,475.15 566.75,476.2 566.7,478.65 565.1,479.8 564.1,480.5 561.5,481 560.8,481.15 559.4,481.55 558,481.95 557.3,482.05 554.45,482.6 552.9,484.1 551.3,485.7 550.9,488.6 550.4,492.1 550.15,493 549.5,495.45 548.05,497.1 546.9,498.4 546.9,499.9 546.9,501.55 548.35,502.3 551.15,503.85 552.45,499.3 553.8,494.5 557.45,489.55 558.9,487.55 561.15,487.9 562.45,488.15 562.85,489.2 563.15,489.9 562.9,491.3 562.7,492.35 563.1,492.6 564,492.5 565.55,492.35 566.75,492 566.9,490.35 566.95,489.7 567.8,489.15 568.7,488.65 568.95,489.75 569.15,490.75 569.75,491.4 569.9,491.55 571.1,492.45 571.65,492.85 572.3,492.6 572.95,492.35 573.05,491.75 573.95,486.55 576.1,486.1 577.85,485.75 581.3,488.6 581.65,488.9 582.6,489.15 583.5,489.35 583.85,489.6 587.8,492.2 588.35,493.95 589,496 586.2,499.2 584.85,500.9 584.5,502.3 584.15,503.9 584.9,505.75 585.2,506.5 585.35,507.8 585.4,508.55 585.5,510 585.85,515.05 590.3,517.3 595.5,519.9 597.45,520.75 600.3,522.15 601.65,522.15 603.85,522.15 605.1,519.4 605.65,518.2 606.75,518.8 607.8,519.35 607.5,520.4 607.25,521.35 606.55,523.05 606.35,523.95 606.9,524.8 607.05,525 608.05,526.1 609.05,527.15 610.55,525.95 614.35,523.25 614.9,518.35 615.5,513.4 612,510.65 609.4,508.55 609.6,506.4 609.7,505.05 611.6,502.35 612.1,501.6 613.25,500.25 614.2,498.95 614.6,497.8 615.05,496.6 616.3,496.5 617.45,496.4 618.1,497.55 618.95,499.3 621.05,502.65 622.6,505.75 622.2,508.5 622.05,509.55 623.7,510 625.45,510.4 625.8,509.4 626.4,507.8 625.8,505.15 625.5,504 626.15,503.3 626.55,502.85 627.75,501.9 632.25,497.85 632.15,494.65 632.05,492.1 628.15,486.25 627.3,485 627.75,483.65 629.9,477.8 624.85,473.35 623.75,472.5 623.65,471.75 623.5,470.85 624.5,469.8 625.9,468.3 625.5,464.6 625.15,460.85 623.4,459.8 621.25,458.55 617.95,455.7 614.35,452.55 612.65,451.45 611.45,450.6 610.85,450.85 610.25,451.15 610.1,452.6 609.95,454.3 610.5,456.4 610.85,457.6 611.65,459.95 612.2,461.85 612.05,462.85 611.85,464.35 610.2,464.4 609.5,464.45 605.85,466.25 603.2,467.55 601.1,465.95"/></g><g id="Scene 1_39.0"><path fill="#9BDBF4" d="M613.8,425.75Q612,421.15 611.35,418.65 610.2,414.6 610.1,411.1 609.95,404.95 606.65,401.6 602.9,397.85 596.85,399.9 596,400.2 594.8,400.15 594.75,400.1 592.55,399.9 590.2,399.7 589.65,400.45 589.15,401.25 590,403.5 591.85,408.25 597.25,411.1 603.1,414.15 600.25,419.6 599.55,421.1 597.8,421.5 596.75,421.7 594.8,421.55 593.55,421.4 593.35,420.5 593.15,419.7 593.8,418.5 594.3,417.6 593.85,416.95 593.45,416.4 592.5,416.2 591.75,416.05 591.4,416.5 591.35,416.55 590.75,417.65 589.8,419.4 590.4,421.9 591.15,425.35 591.15,426 591.05,427.45 591.7,428.2 592.35,428.9 593.85,429 597.9,429.25 597.7,433.95 597.55,435.7 597.5,439.1 597.2,443.35 601.35,445L601.7,440.9Q602.25,441 603.2,442.15 604,442.95 604.8,442.45 606.7,441.15 605.75,438.9 605.65,438.6 605.55,437.65 605.5,436.85 605.2,436.6 603.15,434.8 602.55,431.85 602.35,430.75 602.1,426.4 601.8,425.35 601.65,424.8 601.4,423.9 602,423.45 602.65,422.95 603.65,423.45 604.2,423.75 605.2,424.4 608.15,425.95 609.3,426.25 611.7,426.8 613.8,425.75"/></g><g id="Scene 1_38.0"><path fill="#9BDBF4" d="M584.1,432.05Q584.1,430.85 582.9,430.75 581.75,430.6 581.5,431.8 581.25,433.45 580.75,434.4 576.8,441.1 574.95,444.45 571.85,450.5 571.5,455.6 571.4,457.15 570.4,457 569.75,456.95 569,455.8 567.85,453.95 568,451.8 568.15,450.15 569.2,447.85 570.95,443.85 574.7,435.9 575.45,434.15 575.15,432.7 574.8,431.2 573.25,430.35 568.35,427.6 566.4,430.55 563.15,435.5 563.15,439.2 563.25,444.1 562.55,445.3 561.75,446.7 557.65,448.45 553.45,450.15 555.7,454.1 556.7,455.95 557.6,456.85 558.85,458.15 560.55,458.55 563.15,459.2 564.05,462 564.45,463.25 564.85,463.8 565.5,464.6 566.65,464.55 569.2,464.5 570.25,461.85 570.95,460.2 574.25,454.45 576.8,449.95 577.45,446.7 577.7,445.6 578.5,444.65 579.35,443.65 580.5,443.15 583.7,441.8 584,437.35 584.1,435.6 584.1,432.05"/></g><g id="Scene 1_37.0"><path fill="#9BDBF4" d="M552.05,415.65Q551.15,414.95 549.7,414.15 548.05,413.35 547.2,412.9 545.85,412.15 545.25,413.5 544.95,413.95 545.05,414.45 545.15,415 545.65,415.15 547.75,415.7 548.05,417.45 548.25,418.5 548,420.7 548,427.35 546.15,431.95 545.1,434.65 546.2,436.1 546.9,436.95 548.05,436.65 548.65,436.5 549.9,436 550.5,435.9 551.4,435.5 553.95,434.45 555.15,435.05 556.5,435.8 556.2,439.1 557.8,438.15 558.3,437.6 559.1,436.85 558.95,436.05 558.3,433.2 560,431 560.75,430.05 563.7,427.75 566.65,425.35 567.1,421.7 567.25,419.8 565.35,419.65 556.9,419.3 552.05,415.65"/></g><g id="Scene 1_36.0"><path fill="#9BDBF4" d="M502,422.95Q502.05,422.2 500.45,424.65 499,426.8 499.15,428 499.3,429 497.8,434.3 497.2,436.55 494.5,437.7 493.9,437.95 493.1,438.9 492.2,439.9 491.8,440.1 487.9,441.95 486.4,445 483.6,450.55 476.65,456.4 467,464.35 465.4,466.15 463.6,468.15 462.85,469.65 461.8,471.7 461.9,474 463.45,471.95 469.75,468.6 475.05,465.65 476.55,461.8 476.7,461.45 477.5,461.15 478.8,460.6 478.9,460.55 486.05,456.95 487.25,451 487.85,448.1 489.35,446.75 490.75,445.45 493.4,445.05 495,444.75 495.35,444.6 496.3,444.2 496.6,443.15 497.05,441.4 498.45,440.4 499.3,439.7 501.35,438.9 503.45,438.1 504.25,437.3 505.5,436 504.6,434 501.6,427.25 502,422.95"/></g><g id="Scene 1_35.0"><path fill="#9BDBF4" d="M523.25,391.75Q523.65,392.45 525.05,395.5 525.75,397.1 527,400.45 528.2,403.3 529.9,404.95 531.3,406.3 532.5,406.2 533.7,406.1 534.8,404.55 536.8,401.7 537.4,400.2 538.3,397.7 537.3,395.3 538.05,392.2 537.1,389.95 536.2,387.75 533.55,386 530.5,384 526.25,383.55 525.5,383.45 518.65,383.4 516.95,383.35 517.8,385.35 518.5,386.8 518.8,387.3 519.5,388.35 520.4,388.85 522.1,389.8 523.25,391.75"/></g><g id="Scene 1_34.0"><path fill="#9BDBF4" d="M590.95,453.6Q593.1,452.65 592.8,449.9 592.6,447.4 590.9,446.5 589.9,445.9 587.35,445.7 586,445.6 584.7,446.85 582.9,448.55 582.45,448.75 580.8,449.5 580.15,451 579.5,452.3 579.9,453.95 580.25,455.5 581.7,455.35 583.75,455.2 584,455.3 584.65,455.3 585.85,455.35 586.9,455.4 587.3,455.05 588.25,454.25 590.95,453.6"/></g><g id="Scene 1_33.0"><path fill="#9BDBF4" d="M583.3,408.3Q581.8,405.3 579.4,402.95 576.9,400.55 574.3,399.7 572.3,399 571.15,399.35 569.75,399.85 569.15,402.05 568.55,404.1 569.95,406.5 571.25,408.8 571.55,408.1 572.95,405.4 574.55,405.5 575.95,405.55 577.75,407.9 579,409.45 580.95,410.55 582,411.15 582.95,410.25 583.85,409.45 583.3,408.3"/></g><g id="Scene 1_32.0"><path fill="#9BDBF4" d="M546.75,506.8Q545.55,506.6 544.6,507.1 543.45,507.7 543.4,508.7 543.35,510.1 544.4,511.15 545.35,512.2 546.8,512.45 549.35,512.9 550.5,509.2 550.25,507.95 549.1,507.45 548.3,507.05 546.75,506.8"/></g><g id="Scene 1_31.0"><path fill="#9BDBF4" d="M613.85,445.3Q613.85,444.55 613.35,441.45 610.3,444 610.35,445.3 610.35,446.6 613.5,448.85 614,447.35 613.85,445.3"/></g><g id="Scene 1_30.0"><path fill="#9BDBF4" d="M747.2,636Q745.9,635.45 741.05,633.95 734.5,631.95 728.95,637.05 725.65,640.15 721.95,640.4 718.55,640.65 716.95,641.7 714.85,643.15 714.6,646.4 714.35,649.1 712.6,648.9 711.5,648.85 711.6,648 711.9,646.85 711.85,646.4 711.8,645.3 710.85,644.7 710.65,644.5 709.05,644 707.05,643.2 705.45,644.45 704.55,645.2 704.9,646.2 705.15,646.7 705.9,647.75 709.75,654.2 715.7,653.75 718.5,653.5 721.75,654.75 723.65,655.45 727.25,657.15 727.95,657.4 728.2,658.05 728.5,658.7 728.25,659.35 727.45,661.3 728.45,663 728.9,663.9 730.8,665.85 733.15,668.3 737.1,668.4 739.4,668.4 743.6,667.8 743.8,667.8 751.4,667.75 756.15,667.75 759.25,667 760.8,666.6 762.3,668.45 762.95,669.3 762.65,670.15 762.55,670.65 761.8,671.65 759.1,675.45 754.9,672.85 749.3,669.55 745.45,674.55 742.6,678.25 738.1,676.75 736.7,676.3 733,675.85 731.6,675.75 730.6,676.45 729.6,677.15 729.55,678.45 729.45,679.75 730.45,679.85 731.05,679.95 732.4,679.85 735.8,680.4 738.75,683.35 740.45,685 743.5,688.8 744.55,689.95 743.9,691.9 742.9,694.8 742.9,695 742.8,697.05 743.75,698.65 744.85,700.6 747.05,701.05 749.7,701.65 751.9,700.35 753.95,699.1 754.35,697 754.85,694.6 756.05,693.05 757.25,691.55 758.5,691.55 759.05,691.55 763.4,694.6 768.1,697.85 771.6,698.5 772.5,698.7 774.65,698.75 776.55,699.05 777.45,700.4 782.45,707.65 789.4,707.5 793.95,707.45 795.45,707.6 798.8,707.8 801.1,709.1 810.45,714.05 822.15,717.1 830.2,719.15 835.8,724.85 840.7,729.9 844,738.1 845.1,740.75 845.9,742.25 847.15,744.3 848.75,745.65 851.75,748.15 850.05,750.5 848.25,753 849.7,754.35 850.45,755.1 852.9,756.65 853.6,757.3 853.5,758.65 853.45,760 852.6,760.6 851.35,761.5 846.8,761.8 842.35,762 840.5,763.55 837.6,765.95 835.4,769.55 833.7,772.3 831.95,776.7 831.2,778.5 831.75,779.35 832.3,780.35 834.35,779.85 835.3,779.65 837.2,779.85 839,780.05 839.8,779.8 841.55,779.25 844.3,779.25 845.85,779.3 848.95,779.4 854.55,779.3 857.1,775.35 859.75,775.3 865.2,774.6 870,774.25 872.6,775.45 878.3,778.1 884.2,786 889.7,793.55 894.65,793.95 897.05,794.15 901.85,794.65 906.15,794.9 909.15,794.15 913.65,792.95 917.95,795.35 921.55,797.4 925.4,794.85 927.3,793.45 931.85,791.9 937.35,790 934.25,785.25 932.95,783.25 931.9,782.35 930.4,780.95 928.5,780.7 925.9,780.25 925.05,778.45 927.15,778.6 930.65,777.9 934.8,777.05 936.35,777 938.6,776.9 940.15,774.45 941.95,771.55 943.15,771.1 943.35,771 943.2,769.75 943,768.3 943.45,767.65 944.05,766.7 944.85,766.9L946.4,767.6Q948.4,768.5 950.85,767.95 952.75,767.5 954.55,766.35 957.35,764.45 958.4,764.45 959.7,764.4 961.5,766.75 961.8,767.15 962.3,767.9 962.8,768.55 963.4,768.7 965.35,769.1 969.15,770.15 972.6,771.05 974.95,771.2 979.2,771.45 982.3,773.4 985.4,775.35 987.1,778.8 989.75,784.2 994.2,789.5 997.45,793.3 1003.05,798.65 1004.2,799.75 1006.65,801.7 1008.75,803.55 1009.75,805.3 1011.45,808.45 1014.8,809.8 1016.8,810.65 1021.45,811.35 1025.15,811.9 1032.6,812.65 1035,812.95 1040.1,814.2 1044.95,815.4 1047.55,815.65 1051.75,816 1054.95,818.85 1058.25,821.9 1060.3,822.45 1063.2,823.2 1065.4,820.1 1065.9,818.75 1065.05,818.15 1064,817.7 1063.5,817.5 1062.7,817.25 1062.4,817.05 1061.85,816.7 1061.95,816.1 1062.05,815.55 1062.25,815.15 1062.85,814.05 1062.45,812.95 1062.1,811.8 1060.9,811.5 1060.1,811.25 1054.55,810.2 1052.8,809.9 1052,808.65 1051.15,807.3 1051.95,805.5 1052.05,805.25 1053.5,804.45 1054.6,803.85 1054.05,802.85 1053.6,802.1 1052.25,802.15 1050.6,802.4 1049.9,802.3 1047.15,802.3 1045.8,802 1043.6,801.35 1042.45,798.7 1041.65,796.9 1042,794.65 1042.3,792.65 1041.45,792 1040.65,791.3 1038.45,791.65 1033.65,792.5 1033.35,792.55 1031.95,792.8 1030.75,792.45 1029.4,792.05 1029.15,791 1028.55,789.05 1024.95,784.5 1021.95,780.7 1022.05,777.4 1022.1,775.5 1021.05,774.15 1019.95,772.7 1018.1,772.5 1016,772.3 1014.3,771.05 1013.15,770.2 1011.45,768.15 1009.95,766.35 1009.45,765.85 1008.25,764.6 1007.15,764.05 1004.25,762.5 1002.6,759.4 1001.95,758.2 1000.2,753.4 999.4,751.3 1000.2,750.2 1001,749.1 1003.45,749.4 1009.1,750.2 1012.55,749.1 1015.05,748.25 1015.85,746.45 1016.7,744.55 1015.2,742.75 1012.4,738.65 1010.65,737.05 1007.65,734.25 1003.45,735.25 1002.55,735.5 1001.4,734.95 1001.15,734.8 999.45,733.75 990.05,727.85 982.6,726.85 979.8,726.5 978.9,725.2 978.15,724.15 978.4,721.6L978.4,718.4Q978.35,715.65 974.95,711.4 971.5,707.05 968.9,706.8 965.6,706.5 962.25,703.25 957.8,699.05 956.45,698.35 954.85,697.25 954,696.65 952.5,695.7 951.35,695.9 949.05,696.35 946.8,695.55 945.65,695.1 942.85,693.45 939.85,691.25 938.3,690.3 935.55,688.6 933.1,688.4 924.65,687.65 913.25,683 905.7,679.25 901.85,677.45 895.05,674.4 889.5,674.6 888.9,674.65 888.05,674.05 885,671.55 880.9,670.6 877.6,669.9 873.05,670 869.35,670.15 866.65,668.25 865,667.1 862.4,666.05 859.4,664.95 857.95,664.3 853.8,662.8 851.75,661.8 840.65,656.2 838.6,655.7 831,653.5 824.35,658.15 824.1,658.35 823.65,658.55 822.45,659 822.15,659.6 821.75,660.25 822.4,661.35 823.9,664.15 820.45,665.7 817.9,666.9 816.6,667.3 814.35,667.9 812.4,667.6 806.95,666.75 805.85,672.2 805.45,674.3 804.35,674.85 801.75,676.35 798.8,680.1 795.25,684.7 793.85,685.9 792.05,687.5 787.6,687.8 782.95,688.05 782.05,686.15 780.2,683.05 779.3,681.65 777.8,679.1 777.5,676.65 777.55,675 777.35,674.2 777,672.65 775.45,672.5 774.4,672.55 773.9,674.4 773.3,676.05 772.1,675.9 770.7,675.65 768.55,668 766.1,659.2 768.5,653.35 769.15,651.9 768.9,650.5 768.7,648.9 767.5,647.75 766.35,646.45 766.4,644.9 766.5,642.35 765.15,641.3 764,640.3 761.4,640.4 758.5,640.65 757.05,640.6 754.55,640.5 752.95,639.25 750.65,637.35 747.2,636"/></g><g id="Scene 1_29.0"><path fill="#9BDBF4" d="M593.5,617.65Q594.75,615.15 598.95,610.8 603,606.65 604.3,603.65 605.05,602 605.05,601.35 605.1,600.4 604.15,599.6 601.1,597.05 599.7,600.35 598.75,602.25 597.25,602.9 595.4,603.75 593.15,606.2 590.6,609.1 589.3,609.9 585.7,612.3 584.2,613 581.25,614.3 578.3,613.95 572.95,612.85 570.3,612.5 565.6,611.8 562.25,613.9 561.95,614.1 560.8,613.6 550.25,608.75 540.4,610.15 539.8,610.25 539.1,610.05 538.3,609.85 538.25,609.55 537.65,607.45 535.5,606.95 533,606.75 531.9,606.25 529.45,605.15 527.85,605.95 526.45,606.65 525.3,608.95 525.05,609.35 524.2,610.65 523.5,611.65 523.2,612.35 522.45,614.2 521.25,614.7 520.05,615.25 518.25,614.4 516.95,613.9 516.65,613.9 515.75,613.8 514.95,614.55 513.25,616.2 511.2,618.9 510,620.45 507.7,623.5 506.95,624.55 507.2,625.4 507.95,627.7 506.9,634.7 506.1,640.6 508.7,644.15 507.05,642.65 505.85,642.8 504.75,642.95 503.65,644.4 500.55,648.2 499.45,650.5 497.7,654.05 498.3,657.85 498.95,662.25 497.05,667.2 496.2,669.3 492.75,675.45 490.05,680.45 489.15,684.85 488.25,689.1 490.25,691.15 492.3,693.25 496.35,692.4 499.15,691.85 500.35,692.65 501.8,693.6 501.6,696.4 501.55,697.4 501.9,698.6 502.05,698.95 502.85,700.55 505.55,706.7 503.2,712.15 502.1,714.6 501.3,718.75 500.1,724.3 499.75,725.5 498.85,728.6 501.6,731.25 504.3,733.85 506.8,732.3 508.7,731.2 511.35,730.75 512.9,730.5 515.95,730.15 519.9,729.45 517.6,726.55 514.9,723.1 516.8,718.25 518.4,714.2 517.65,709.35 517.1,706.1 517,704.35 516.85,701.5 517.5,699.55 518.35,697.1 518.1,694.05 517.6,690.45 517.35,688.65 517.3,688 515.55,685.9 514.15,684.35 515.3,682.9 516.1,681.9 517.9,680.85 519.95,679.8 520.85,679.2 522.7,677.95 523.25,677.7 527.4,676.05 529.2,679.8 531.8,685.25 528.4,689.45 525.55,692.95 529.05,695.6 530.55,696.75 533.2,699.45 535.7,701.7 538.1,702.4 539.5,702.85 539.75,704 540.05,705.1 539.35,706.3 538.5,707.65 538.15,709.55 538,710.15 537.7,712.85 537.45,715.55 539.7,716.45 541,716.95 543.85,717.5 545.55,718.15 546.6,717.35 547.45,716.6 547.65,714.9 548.1,711.7 551.8,710.75 553.45,710.4 556.55,709.55 559.3,708.85 561.25,708.55 562.55,708.35 562.8,707.65 562.85,707.55 562.9,706.05 562.95,705 562.65,704.6 562.25,704.1 561.1,704.6 560.3,704.95 559.65,704.5 559.05,704.1 558.95,703.4 558.75,701.45 557.1,700.05 555.05,698.6 554.05,697.75 551.2,695.25 551.05,693.6 550.85,691.85 553.25,688.9 554,687.95 553.85,687.1 553.55,686.05 553.3,685.3 552.8,683.55 550.45,681.5 548.05,679.35 547.45,677.8 545,671.2 539.3,668.05 536.25,666.3 535.65,662.15 539,664 540,663.85 540.95,663.75 543.65,661.25 545.15,659.9 547.4,659.05 556.05,655.65 559.8,649.05 560.55,647.6 562.3,646.5 565.85,644.25 568.15,646.35 569.55,647.6 570.1,647.75 571.05,648 572.1,646.35 574.15,643 571.45,640.75 570.3,639.8 566.55,639.9 562.75,640.05 562.4,641.15 561.6,643.5 559.55,643.8 557.1,643.65 555.95,643.65 552.8,643.8 550.35,645.2 544.6,648.65 542.25,646.1 540.45,644 538.95,644.65 538.75,644.75 536.65,646.75 534.9,648.4 532.35,652.4 531.2,654.15 529.1,654.6 528.6,654.7 525.25,654.85 523.55,654.9 522.75,653.8 522.3,653.2 521.65,651.3 520.5,647.55 517,646.4 513.9,645.3 512.35,641.7 510.45,637.45 511.75,631.4 513.05,625.4 516.45,622.05 519.4,619.2 522.25,620.3 525.9,621.65 530.3,621.45 533.35,621.3 538.3,620.2 539.65,619.9 540.3,619.9 541.4,619.9 542.1,620.45 543.4,621.3 544.9,621.4 546,621.4 547.85,621 553.55,619.85 557.45,619.8 562.7,619.75 566.55,621.6 571.75,624.15 577.9,623.6 581.1,623.3 588.95,621.3 592,620.55 593.5,617.65"/></g><g id="Scene 1_28.0"><path fill="#9BDBF4" d="M657.3,590.55Q657.2,589.8 656.4,589.25 656.05,589 655.25,589.1 654.6,589.25 654.1,589.5 651.9,590.5 649.05,596.95 646.2,603.25 646.6,605.95 646.7,606.7 648.1,611.45 649.1,614.85 648.65,617.2 648.45,618.1 648.75,619.05 649.05,620.1 649.65,620.7 651.2,622.05 651.4,624.35 651.5,625.65 651.25,628.45 651.2,632.6 654.05,636.2 654.5,636.75 659.75,642 660.05,642.25 660.45,642.25 660.9,642.25 661.2,641.9 661.25,641.25 660.7,640.6 660.05,639.95 659.8,639.6 654.2,631.65 654.5,622.85 654.55,620.9 655.4,620.15 656.3,619.45 658.25,619.8 664.1,620.85 666.55,621.6 667.75,622 668.45,620.9 669.05,619.9 668.25,618.95 667.15,617.8 664.7,616.55 663.3,616.1 662.65,615.75 661.55,615.15 661.5,614.05 661.45,612.85 662.5,612 662.8,611.75 664.6,610.85L666.4,609.95Q670.05,608.7 669.6,604.7 669.2,600.75 667.2,600 665.8,599.55 664.25,600.3 663.2,600.85 661.65,602.3 660,603.9 658.1,606.75 655.1,611.15 654.95,611.4 654.5,612 653.15,611.95 651.85,611.9 651.6,611.35 650.9,609.8 652.45,608.6 653,608.15 653.65,607.3 654.3,606.45 654.8,606.05 656.95,604.15 657.25,601.45 657.55,598.9 656.2,597 655.55,594.95 655.65,594.2 655.8,593.2 657.05,591.75 657.4,591.25 657.3,590.55"/></g><g id="Scene 1_27.0"><path fill="#9BDBF4" d="M654.95,688.85Q655.8,690.2 656,689.75 657.25,686.9 658.4,686.65 659.6,686.45 661.2,688.85 662.95,691.45 664.75,691.55 666.45,691.6 668.6,689.65 669.65,688.7 670.6,688.7 671.5,688.7 672.95,689.6 679.45,693.8 683.3,690.85 686.75,688.1 690,690.75 692.1,692.45 696.4,694.3 701.15,696.4 702.9,697.6 704.7,698.8 704.7,698.85 705.9,699.4 706.6,698.35 707.45,697.05 707.7,695.75 708,693.95 706.95,693.25 705.35,692.1 703.85,689.45 702.15,686.5 701.1,685.55 699.85,684.4 699.55,684.15 698.55,683.6 697.65,683.85 694.95,684.5 691.8,683.55 691,683.3 686.35,681.3 681.6,679.3 678.05,681.85 677.65,682.2 677.1,682.4 676.5,682.65 676.3,682.5 673.65,680.7 669.5,680.95 664.85,681.55 662.55,681.45 653.9,681.5 653.95,686 654,687.45 654.95,688.85"/></g><g id="Scene 1_26.0"><path fill="#9BDBF4" d="M638.35,686.1Q635.7,683.9 632.65,684.35 630.15,684.35 627.5,685 626.6,685.2 623.1,686.25 622,686.6 621.7,687.4 621.4,688.05 621.7,689.35 622.4,692.55 625.3,694.45 627.05,695.55 630.85,697.15 632.95,698.15 636.9,697.2 640.7,696.2 642.15,694.4 642.8,693.6 642.9,692.65 643.05,691.7 642.55,691.05 639.8,687.35 638.35,686.1"/></g><g id="Scene 1_25.0"><path fill="#9BDBF4" d="M776.35,727.75Q775.85,727.4 775.05,728 772.55,729.9 772.1,730.45 770.55,732 770.5,734.05 770.5,735.95 770.5,736.2 770.4,737.5 769.9,737.85 767.5,739.6 767.2,743.2 766.65,748.6 766.45,749.1 765.65,751.4 768.8,752.65 769.9,753.1 770.75,752.5 771.15,752.25 771.95,751.05 772.65,750 774.7,748 776.2,746.6 776.5,744.9 776.55,744.35 777,743.25 779.95,736.65 777.1,729.15 776.75,728.05 776.35,727.75"/></g><g id="Scene 1_24.0"><path fill="#9BDBF4" d="M564.6,717.45Q565,716.2 566.15,715.65 567.7,715 567.4,713.55 566.75,711.95 566.6,711.2 566.4,710.25 565.6,709.75 564.85,709.25 563.85,709.5 562.75,709.85 562.35,710.9 562.2,711.4 561.95,713.05 561.25,717.8 560.8,719.3 560.55,720.2 560.15,722.65 559.6,724.6 558.2,724.05 556.65,723.55 557.5,721.95 558.85,720.05 559.2,719.25 559.85,717.7 559.4,716.2 559,714.8 557.85,713.85 556.85,713.05 555.55,713.75 554.6,714.3 553.85,715.45 552.75,717.2 552.65,720.6 552.6,724.5 552,725.95 551.95,726.05 552.15,726.25 552.35,726.45 552.5,726.5 554.9,727.1 556.15,728.1 557.85,729.4 558.2,731.6 558.25,731.8 559.1,732.05 560.75,731.9 561.15,730.35 561.95,727.2 565.3,726.7 567.45,726.4 567.65,724.85 567.85,723.25 565.6,722.8 563.05,722.4 564,719.65 564.35,718.1 564.6,717.45"/></g><g id="Scene 1_23.0"><path fill="#9BDBF4" d="M716.2,762.45Q711,767.5 711.8,771.8 712.05,773.25 712.85,773.75 713.7,774.4 714.7,773.35 717.75,770.75 719.1,769.25 721.5,766.75 721.55,763.7 721.6,762.1 723.75,760.05 724.8,759.1 725.7,758.35 721.4,757.4 716.2,762.45"/></g><g id="Scene 1_22.0"><path fill="#9BDBF4" d="M698.55,634.7Q698.55,636.05 699.8,636.6 705.7,638.9 711.35,637.4 711.95,637.25 713.25,637.1 714.2,636.85 714.35,635.6 714.6,633.6 712.15,632.75 705.8,630.6 699.85,632.85 698.55,633.3 698.55,634.7"/></g><g id="Scene 1_21.0"><path fill="#9BDBF4" d="M592.45,659.6Q589.05,659.3 589.5,662.65 589.4,664.55 590.25,665.2 591,665.75 592.95,665.4 596.5,664.55 603.85,663.35 604.3,663.3 605.2,663.3 605.9,663.15 605.85,662.3 605.85,660.85 603.85,660.7 598.85,660.1 592.45,659.6"/></g><g id="Scene 1_20.0"><path fill="#9BDBF4" d="M789.55,641.45Q789.55,642.6 790.1,643.45 790.75,644.4 791.65,644.05 793.2,643.55 794.15,644.6 794.65,645.25 795.35,647.15 796.1,649.25 797.8,649.7 798.85,650.05 801.45,649.7 802.65,649.55 803,648.4 803.35,647.2 802.4,646.4 801.3,645.6 800.45,644.4 799.05,642.5 796.75,641.55 795.05,640.85 792.25,640.5 791.1,640.2 790.55,640.2 789.55,640.25 789.55,641.45"/></g><g id="Scene 1_19.0"><path fill="#9BDBF4" d="M650.15,660.55L655.5,660.75Q657.4,660.85 657.8,659.45 658.15,658.1 656.45,657.15 654.3,656.1 653.45,655.5 651.9,654.6 651.4,654.45 648.85,653.75 646.35,655.9 645.05,657.05 645.8,658.75 646.4,660.15 647.65,660.45 648.3,660.6 650.15,660.55"/></g><g id="Scene 1_18.0"><path fill="#9BDBF4" d="M651.95,641.35Q649.8,640.7 649.65,638.1 649.3,632.85 644.75,634.75 644.55,634.85 644.35,634.45 644.1,633.9 643.95,633.8 643.15,633.35 642.7,633.4 642,633.45 641.05,634.5 640.7,635.35 641,636.25 641.35,637.2 642.3,637.3 643.7,637.45 644.5,638.35 645.1,639 645.55,640.3 646.25,642.5 648.45,643.1 649.7,643.45 652.25,643.7L652.3,643.7Q653,643.25 652.85,642.4 652.75,641.6 651.95,641.35"/></g><g id="Scene 1_17.0"><path fill="#9BDBF4" d="M571.45,656.05Q573.85,655.3 574.05,653.95 574.2,652.85 573.7,652.05 573.15,651.2 572.1,651.9 570.75,652.8 569.9,652.4 569.75,652.3 568.1,650.95 566.55,649.5 564.3,650.55 562,651.55 561.75,653.7 561.55,655.25 563.3,656.2 564.2,656.7 565.85,655.8 566.35,655.55 566.85,655.75 567.15,655.9 568.15,656.35 569.25,656.85 571.45,656.05"/></g><g id="Scene 1_16.0"><path fill="#9BDBF4" d="M796.9,660.5Q796.8,661.15 797.45,661.35 801.35,662.8 804.4,663.15 808.25,663.6 811.9,662.65 812.45,662.5 812.45,661.85 812.45,661.15 811.85,661.05 807.2,660 797.75,659.8 797.05,659.8 796.9,660.5"/></g><g id="Scene 1_15.0"><path fill="#9BDBF4" d="M667.4,582.8Q666.65,582.3 665.65,582.5 661.25,583.3 661.5,588.55 661.55,590.8 661.8,591.25 662.05,591.75 663.25,591.7 665.15,591.65 666.75,589.4 668.35,587.2 668.3,584.7 668.3,583.4 667.4,582.8"/></g><g id="Scene 1_14.0"><path fill="#9BDBF4" d="M691.7,664.1Q691.55,665.8 693.7,666.25 694.9,666.5 697.4,666.85 699.15,667.55 700.75,665.4 702.2,663.4 701.55,662.15 700.8,660.65 698.05,660.9 695.55,661.35 694.25,661.65 691.9,662.15 691.7,664.1"/></g><g id="Scene 1_13.0"><path fill="#9BDBF4" d="M609.9,664.85Q614.75,664.75 614.95,664.75 618.1,664.65 620.15,664.35 620.6,664.25 621,663.45 621.25,662.65 621.15,662.15 620.95,661.05 616.9,660.9 616.35,660.85 610.5,660.95 609.75,660.95 609.05,661.35 608.1,661.8 608.05,662.5 607.95,663.4 608.6,664.15 609.2,664.85 609.9,664.85"/></g><g id="Scene 1_12.0"><path fill="#9BDBF4" d="M564.8,702.9Q564.75,703.9 565.5,704.5 566.1,704.95 567.1,705.05 568.4,705.25 569.35,702.95 568.5,701.85 566.5,701.3 565.7,701.1 565.2,701.7 564.8,702.15 564.8,702.9"/></g><g id="Scene 1_11.0"><path fill="#FFF" d="M623.3,886.5Q622.8,886.25 622.25,886.3 621.65,886.35 621.3,886.75 620.9,887.3 621.2,888.25 622.1,891.6 620.45,894.55 619.65,895.9 618.55,896.35 617.2,897 615.7,896.5 614.35,896.1 613.4,895.05 612.75,894.35 611.8,894.3 610.85,894.25 610.15,894.9 607.2,897.4 606.5,898.45 605.15,900.65 606.4,903.25 606.7,903.95 607.35,905.35 607.75,906.55 607.05,907.15 604.8,906.05 603.6,905.95 601.35,905.85 600.4,907.4 599.9,908.2 600.2,909.2 600.5,910.15 601.4,910.4 601.7,910.5 602.55,910.6 603.2,910.8 603.25,911.25 603.35,911.85 602.55,912 601.9,912.1 601.15,911.9 596.6,910.55 593.6,914 590.55,917.4 592.9,921.45 593.55,922.5 593.4,923.5 593.3,924.35 592.4,925.8 590.5,928.9 589.05,929.55 587.15,930.45 584.4,928.35 584.1,928.05 583.65,928.4 582.35,929.2 581.3,928.9 580.4,928.65 579.4,927.35 578.65,926.4 577.5,926.6 576.3,926.75 576.5,927.95 576.95,930.05 576.8,931.1 576.6,932.6 575.3,933.8 574.8,934.3 575.9,935.55 576.6,936.25 577.85,937.85 579,939.2 580,939.8 581.5,940.7 581.9,942.15 582.2,943.4 581.45,944.5 580.7,945.5 579.7,944.7 578.2,943.45 577.9,943.4 577.8,943.4 577.1,943.7 576.95,944.9 577.25,947.95 577.25,950.6 575.35,951.05 573.75,951.4 570.1,942.1 566.3,932.65 564.65,932.65 562.8,932.65 562.65,934.8 562.45,937.2 561.65,937.5 559.5,938.2 557.3,940.4 554.95,942.9 553.7,944.05 550.55,946.85 550.4,952.15 550.25,957.3 553.2,960.45 554.75,962.15 553.3,964 552.05,965.7 549.8,967.2 546.4,969.6 544.35,971.85 541.8,974.7 540.6,977.95 538.15,984.8 532.9,989.35 528.2,993.4 520.8,996 518.95,996.7 514.45,997.65 510.35,998.6 508.2,999.45 506,1000.35 504.2,1000.45 502.15,1000.55 500.15,999.7 495.75,997.9 493.3,1001.05 491.8,1003.1 489.45,1004.15 487.6,1005.05 484.65,1005.55 477.65,1006.75 472.9,1010.55 470.2,1012.7 467.15,1013.3 464.35,1013.85 460.75,1013.15 454.2,1011.85 453.9,1011.85 450,1011.75 447.6,1015 447.35,1015.35 446.9,1015.45 443.65,1015.75 440.6,1018.35 438.85,1019.9 435.55,1023.15 431.5,1026.65 430.55,1027.35 427.6,1029.6 424.85,1030.6 419.2,1032.75 417.55,1033.8 413.75,1036.1 412.4,1039.95 412.05,1041.05 411.15,1042.9 410.25,1044.9 409.9,1045.8 409.35,1047.15 409.2,1047.4 408.7,1048.1 407.6,1047.95 406.3,1047.8 405.6,1047.25 404.85,1046.6 404.5,1045.4 403.65,1041.95 405,1038 405.45,1037.15 405.5,1036.7 405.7,1035.9 404.95,1035.55 403.7,1035 402.8,1036.9 398.55,1045.15 398.25,1046.15 396.45,1051.5 399.1,1056.35L405.5,1056.45Q734.65,1056.55 1063.95,1056.45L1069.5,1056.4Q1070.45,1053.95 1069.1,1051.1 1067.4,1048.05 1066.9,1046.5 1063,1049.8 1060.25,1046.85 1058.8,1045 1058.05,1044.1 1056.75,1042.5 1055.55,1042.1 1053.95,1045.65 1054.8,1048.6 1054,1048.4 1052.65,1047.45 1051.4,1046.6 1050.45,1046.45 1049.5,1046.3 1048.55,1045.2 1047.6,1044.25 1047.2,1042.8 1046.85,1041.75 1045.6,1034.45 1044.75,1029.35 1042.45,1026.45 1042.2,1026.15 1039.6,1020.6 1037.95,1016.95 1034.55,1015.95 1032.45,1015.3 1031.95,1012.95 1031.45,1010.6 1032.9,1008.45 1033.75,1007.05 1033.7,1006.25 1033.65,1005.25 1032.4,1004.5 1031.4,1003.95 1026,1001.75 1021.95,1000.15 1020.1,997.85 1020.05,997.8 1019.75,997.85 1019.4,997.9 1019.3,997.8 1015.4,996.4 1013.55,995.55 1010.15,994.05 1009.25,990.5 1008.9,989.25 1005.4,988.35 1001.85,987.4 1001,985.35 997.75,986.2 994.75,984.35 994.65,984.3 989.8,980.35 987.4,978.3 988.35,975.7 988.8,974.3 988.55,972.3 988.2,969.3 988.2,969 988.2,968.1 988,967.7 987.65,967.05 986.7,967.2 984.2,967.6 983.65,966.3 983.2,965.3 983.8,963.2 985.95,956.15 984.1,950.65 983.15,946.95 982.55,945.1 981.45,941.9 979.9,940.65 975.65,937.3 973.85,934.05 971.7,930.25 972.25,925.45 972.5,923.6 971.85,921.9 968.2,913.1 970.4,905.35 970.6,904.65 970.15,904.05 969.9,903.7 969.15,903.1 964.55,899.85 962.4,898 958.65,894.95 956.75,891.6 955.5,889.4 952.95,890.85 950.35,892.1 949.05,892.9 946,894.75 943.95,893.85 941.85,892.95 941.35,889.35 940.8,885.65 939,883.1 938.05,881.6 938.1,880.1 938.5,872.05 938.45,871.25 938.1,866.3 935.25,862.9 935.1,862.7 935.35,861.8 936.2,858 932.3,855.8 930.5,854.75 930.1,853.25 929.8,852.1 930.45,850.15 930.85,849.3 930.95,848.85 931.05,848.15 930.15,847.85 927.1,846.85 926.2,844.2 925.55,842.4 925.9,839.05 926.25,835.25 924.3,831.9 922.9,829.7 919.55,826.55 918.35,825.45 917.5,826.5 915.9,827.95 915.15,828.7 913.75,829.95 913.35,831.3 910.45,842.15 909.7,845.95 909.5,847.1 909.05,847.8 908.6,848.45 907.75,849.2 905.3,851.15 905,853.8 904.7,856.4 906.6,858.65 908,860.25 906.45,861.8 902.2,866.3 904.3,872.45 904.85,873.95 903.55,875.4 901.45,877.65 901.25,880.6 901.05,882.9 902.05,886.2 902.25,886.85 902.65,888.15 902.95,889.2 902.65,890.1 901.2,895.05 902.95,901.5 904.2,906 902.2,911.1 900,916.65 899.85,921.15 899.65,928.85 894.8,936.8 892.7,940.3 892.1,941.4 890.8,944.1 890.5,946.55 889.8,952.1 883.5,953.85 877.9,955.5 877,955.6 873.25,955.95 870.55,953.2 870.4,953 869.7,952.9 868.9,952.8 868.65,952.65 864.55,951.05 862.7,949.95 859.45,948.1 858.5,945.15 856.6,939.05 849.65,938.45 845.25,938.1 841.05,935.5 839.1,934.25 833.7,929.85 828.4,925.55 825.75,924 820.9,921.35 816.05,921.7 815.7,921.75 815.1,921.55 814.55,921.45 814.6,921.4 815,918.9 812.9,918.2 809.6,917.1 809.5,917 801.15,909.05 792.5,904 791.1,903.2 790.7,902.1 790.25,900.85 791.15,899.65 791.85,898.8 794,894.95 795.65,891.95 797.45,890.6 799.05,889.35 800.05,887.1 800.6,885.9 801.5,882.95 802.15,880.55 800.5,879.4 797.5,877.3 800.1,873.1 801.2,871.35 803.55,870.35 805.5,869.55 807.65,869.55 810.25,869.6 810.6,869.4 811.25,869 810.85,866.8 810.35,864.15 812.3,862.15 813.05,861.4 814.2,859.9 815.5,858.25 816.15,857.6 817.75,855.85 817.45,854.75 817.1,853.65 814.8,853.05 813.7,852.8 813.15,852.5 812.25,852 812,851.05 811.6,849.45 810.55,849.1 809.7,848.85 808.1,849.35 806.65,849.8 806.65,850.75 806.65,850.85 807.1,852.7 807.55,854.45 806.5,855.5 805.8,856.15 803.9,856.9 802.35,857.45 801.65,856.6 801.15,856.05 800.7,854.5 800.3,853.15 799.8,852.75 799.1,852.2 797.65,852.65 796.4,853 795.9,852.3 795.4,851.6 796.05,850.25 796.25,849.85 797,849.05 797.45,848.35 797.15,847.55 796.05,846.55 794.75,847 793.7,847.35 792.7,848.4 789.1,852.35 787.95,852.8 786.15,853.3 782.3,850.9 780.8,849.95 779.05,849.65 777.6,849.4 775.55,849.55 770.6,849.9 766.55,847.45 764.4,845.9 763.2,845.25 760.95,844.1 758.65,845 756.2,846 752.85,844.4 749.75,842.9 748.25,840.35 746.4,837.1 744.6,838.4 742.6,839.75 740.95,838.9 740.85,838.85 738.3,836.6 737.3,835.35 736.7,834.85 735.7,834.05 734.45,835 733.35,835.9 732.7,835.95 731.85,836 730.9,834.95 729.65,833.75 727.4,835.55 726.15,837.15 728.6,838.35 730.85,839.35 733.3,839.05 736.65,838.7 738.4,839.7 740.05,840.75 740.35,843.4 740.8,847.6 739.3,849.8 737.9,851.85 734.3,852.65 732.55,853.05 728.9,853.15 725.3,853.25 723.5,853.7 721.65,854.15 720.25,853.85 718.65,853.55 717.25,852.25 715.9,850.9 714.25,851.4 712.85,851.8 711.75,853.15 710.05,855.2 709.05,855.8 707.75,856.6 705.4,856.9 704.85,856.95 704.5,857.35 704.35,857.55 704,858.2 703.1,860.1 701.2,860.85 699.65,861.55 698.35,864.3 696.95,867.2 695.55,867.9 695.45,867.95 695.55,868.5 695.7,869.05 695.85,869.35 697.75,872 696.35,873.8 695.55,874.8 692.7,876 691.25,876.65 690.55,877.35 689.75,878.25 689.55,879.55 689.15,882.3 687.95,884.25 686.65,886.3 684.3,887.9 681.4,889.85 681.65,892.05 681.85,894.15 685.1,895.75 688.05,897.2 687.1,900.8 686.9,901.75 685.5,902.4 684.15,903 682.55,903.05 681.55,903.05 680.65,903.65 679.8,904.3 679.45,905.25L679.45,905.3Q679.3,905.95 678.65,905.9 678,905.9 677.75,905.3 677.05,903.15 674.65,902.35 674.45,902.3 670.1,901.5 667.35,900.4 666.1,900.35 663.9,900.3 664.3,904.25 664.3,904.75 663.8,904.85 661.5,905.25 659.2,907.45 657.6,908.9 657.65,908.75 658.7,903.85 658.35,901.35 657.85,897.65 654.4,894.1 646.35,885.8 638,882.2 634.6,880.7 634.7,884.3 634.8,886.1 632.95,887.55 631.15,889 630.65,888.3 629.8,886.95 628.9,886.65 628.2,886.45 627.25,886.95 625.85,887.75 624.35,887L623.3,886.5"/></g><g id="Scene 1_10.0"><path fill="#FFF" d="M702.7,834.4Q701.85,833.35 701.15,833.4 700.25,833.5 699.4,835.15 698.95,836 698.15,837.8 697.35,839.4 696.55,840.45 695.85,841.25 696.25,842.25 696.65,843.25 697.65,843.45L700.15,843.95Q701.05,844.15 703.1,843.7 704.9,843.25 706,843.8 709,845.2 709.1,845.25 710.95,845.75 712.5,844.3 713.25,843.65 715.4,841.85 717.2,840.35 718.2,839.35 719.5,838 718.5,835.2 718.2,834.3 717.15,833.75 716.15,833.25 715.65,833.65 714.15,834.65 711.45,834.6 708.4,834.6 707.25,835.05 705.8,835.7 704.95,835.7 703.7,835.65 702.7,834.4"/></g><g id="Scene 1_9.0"><path fill="#FFF" d="M767.9,-37.4Q766.85,-37.55 764.2,-37.5 762.25,-37.45 760.7,-36.7 758.65,-35.85 758.8,-34.2 759,-31.2 757.25,-30.15 757.05,-30.05 753.45,-29.15 751.6,-28.2 750.05,-29.15 749.3,-29.55 747.65,-31.5 745.95,-32.45 744.85,-31.55 744.25,-30.95 743.6,-29.25 741.45,-23.15 735.05,-18.85 733.95,-19.2 734.35,-18.05 735.4,-17.9 736,-16.55 736.75,-15.05 737.45,-14.75 737.8,-14 737.55,-12.8 737.25,-11.35 737.3,-10.9 737.9,-10.4 738.2,-8.25 738.45,-6.45 739.85,-6 740.3,-5.7 740.9,-4.35 741.5,-3.25 742.25,-2.85 743.95,-2.95 745.2,-4 745.9,-4.65 747.35,-6.7 749.8,-10.9 751.1,-13 753.4,-16.75 756.5,-18 759.25,-19.85 761.4,-18.8 762.2,-18.8 763.1,-18.15 764.45,-17.2 764.55,-17.15 765.9,-16.45 766.95,-14.8 768.45,-13.65 769.35,-15.75 771.65,-21.4 775.9,-24.55 776.95,-25.3 777.55,-26.4 778.15,-27.65 778.05,-29.05 776.95,-29.7 776.9,-31.3 776.85,-33.4 776.6,-33.85 776.05,-34.1 773.8,-34.35 772.05,-34.55 771.2,-35.6 770.05,-37 767.9,-37.4"/></g><g id="Scene 1_8.0"><path fill="#FFF" d="M692.15,9.3Q691.9,10.15 692.5,10.6 693.15,11.05 693.7,10.35 694.4,9.45 696.95,7.8 697.75,7.25 697.45,6.35 697.15,5.5 696.15,5.4L695.85,5.35Q693.45,4.75 692.8,6.35 692.4,7.2 692.15,9.3"/></g><g id="Scene 1_7.0"><path fill="#FFF" d="M651.65,-164.2Q649.7,-164.15 648.8,-164.15 639.8,-164.2 594.75,-164.2 592.6,-164.2 592,-164.1 590.487,-163.844 589.875,-163.15 589.628,-163.52 589,-163.85 588.25,-164.25 585.85,-164.25 559.9,-164.35 546.9,-164.2 544.1,-163.95 543.7,-161.45L539.05,-158.25Q538.4,-157.3 536.6,-155.75 535.3,-154.2 535.85,-152.2L535.55,-149.2Q535.2,-148.3 535.65,-147.7 536.05,-147.15 537.05,-147.05 538.75,-146.9 539.75,-145.9 540.45,-145.1 540.95,-143.5L539.6,-140.9Q537.4,-140.4 536.3,-140.1 534.45,-139.6 533.4,-138.45 531.85,-137.6 531.75,-135.95 531.65,-134.4 532.85,-134.4 535.4,-134.3 537.85,-134.85 540.7,-135.55 541.4,-136.9 542.3,-138.55 543.6,-139.35 544.05,-139.6 546.25,-140.45 548.85,-141.5 549.65,-143 551,-145.55 553.65,-147.65 555.25,-148.95 558.75,-151.05 561.5,-152.7 566.95,-154.55 572.9,-156.6 575.25,-157.85 578.45,-159.5 581.25,-158.65 586.35,-157.2 589.2,-161.45 589.371,-161.579 589.5,-161.7 589.59,-161.181 589.9,-160.55 590.45,-160.2 592.95,-157.5 594.65,-155.65 596.2,-155.7 598.2,-155.8 601.15,-154.35 604.35,-152.9 605.85,-152.75 607,-152.65 608,-150.25 609.25,-147.5 608.15,-144.5 607.5,-142.8 605.65,-139.5 604.7,-137.3 604.65,-137.2 604.15,-135.85 604.35,-134.7 604.5,-133.45 606,-132.9 608.3,-132.15 608.9,-131.7 603.55,-131.2 601,-126.65 600.55,-125.85 599.1,-122.6 597.95,-120.05 596.95,-118.7 597.65,-118.6 599,-118.55 600.1,-118.45 600.5,-118.05 605.4,-113.15 607.1,-111.8 608.15,-110.95 608.75,-110.8 609.35,-110.6 610.35,-110.95 611.6,-111.3 612.3,-112.35 612.75,-112.95 613.4,-114.4 614.15,-115.95 614.8,-116 615.55,-116.1 616.65,-114.65 618.15,-112.8 619.65,-112 621.65,-111.05 623.4,-111.95 625.2,-112.95 626.8,-112.65 628,-112.45 629.85,-111.25 629.5,-110.85 628.1,-111 626.9,-111.15 626.75,-109.9 626.65,-108.9 627.65,-108.45 628.9,-107.8 629,-107.65 629.85,-106.45 631.85,-103.75 633.35,-101.4 633,-100.15 632.1,-97.6 633.1,-95.85 633.55,-95 635.75,-93 636.25,-92.55 636.35,-92.4 636.6,-92.15 636.5,-91.75 636.35,-91.3 635.95,-91.05 635.6,-90.85 635.3,-91.1 632.6,-93.2 630.25,-92.95 627.9,-92.75 625.6,-90.2L624.5,-89.75Q623.6,-89.3 623.3,-88.65 622.85,-87.6 623.45,-86.7 624,-85.85 624.75,-85.8 628.6,-85.5 629.3,-82.65 629.75,-80.9 629.8,-77.15 630.15,-75.55 630.5,-72.2 631,-69.4 632.85,-67.85 633.3,-67.45 632.5,-66.5 631.8,-65.7 630.15,-64.05 629.05,-62.55 630.1,-60.7 627.2,-59.15 626.85,-54.15 626.5,-48.85 624.5,-47.2 623.9,-46.7 624.45,-45.95 624.85,-45.35 625.85,-44.85 629,-43.15 629.05,-40.65 628.15,-40.35 627,-41.15 625.9,-41.95 625.05,-41.65 626,-38.5 623.1,-37.1 622.5,-36.8 622.35,-36.2 622.15,-35.65 622.6,-35.05 623.05,-34.35 623.65,-34.6 623.75,-34.65 624.6,-35.3 626.35,-36.5 627.05,-36.55 628.3,-36.65 628.8,-34.4 629,-33.8 629.55,-33.75 630.05,-33.7 630.4,-34.2 631.5,-35.6 635.1,-37.35 638.4,-38.95 639.6,-40.85 640.5,-42.35 641.45,-42.3 642.5,-42.25 642.55,-40 642.65,-38 644.15,-38.1 645.8,-38.3 645.8,-39.5 645.85,-39.95 645.65,-40.6 645.4,-41.4 645.3,-41.8 644.95,-42.55 644.9,-42.9 644.65,-43.55 645.1,-43.95 645.65,-44.4 646.4,-44.2 646.85,-44.05 647.7,-43.7 648.75,-43.4 649.6,-41.9 650.6,-40.25 651.45,-39.8 651.95,-42.35 651.9,-43 651.7,-43.7 650.2,-45.1 649.55,-45.6 649.5,-45.7 649.2,-46.1 649.55,-46.55 650.35,-47.6 651.6,-46.6 652.3,-46 652.9,-44.9 653.25,-44.2 653.85,-42.9 654.25,-42.15 654.9,-42 655.55,-41.8 656.2,-42.35 656.8,-42.85 656.7,-43.55 656.55,-44.15 655.8,-44.65 654.7,-45.15 654.3,-45.55 653.6,-46.2 654.25,-47.2 654.85,-48.25 655.9,-47.85 656.45,-47.6 657.6,-47.1 658.5,-46.9 660.6,-46.2 662.35,-45.85 663,-47.15 664.55,-50.35 667.6,-50.8 668.65,-50.95 673.2,-50.35 674.65,-50.1 675.45,-50.4 676.3,-50.75 677.1,-51.85 679.5,-55.05 681.2,-59.95 681.45,-60.65 683.8,-68.7 684.1,-69.6 684.05,-70.45 684,-71.45 683.35,-71.6 680.5,-72.15 680.45,-74.2 681,-76.65 681.2,-77.75 682.95,-86.15 680.85,-94.25 678.95,-101.6 673.75,-109.15 670.55,-113.65 669,-115.95 666.4,-120 665.15,-123.4 663,-129.35 662.2,-130.65 660.05,-134.45 656.15,-135.65 655.5,-135.85 655,-136.8 652.6,-140.95 647.15,-143.15 645.25,-143.9 644.95,-145.2 644.75,-146.45 645.9,-147.9 647.9,-150.25 647.1,-153.8 646.15,-157.7 650,-159 651.95,-159.7 652.35,-160 653.55,-160.75 653.7,-162.2 653.2,-163.95 651.65,-164.2"/><path fill="#FFF" d="M687.55,-13.25Q684.85,-13.5 685.3,-11.35 685.5,-10.6 686.15,-5.1 687.3,0.4 690.25,2.6 692.15,0.85 693.15,0.25 694.85,-0.7 696,2.75 696.2,3.3 696.95,3.2 697.5,3.1 698.15,2.65 700.9,0.4 697.85,-1.4 696.6,-2.05 696.4,-3.5 696.35,-5.15 696.25,-6 696.2,-6.7 696.75,-7.25 697.3,-7.75 698.05,-7.7 699.55,-7.55 700.15,-6.3 700.55,-5.6 700.6,-3.85 700.65,-3.05 702.3,-1 703.65,0.75 703.05,2.05 702.5,3.35 703.05,5.2 703.9,7.4 702.35,9.7 701.75,10.5 699.4,12.8 696.8,15.25 696.7,17.85 696.6,19.8 698.1,22.95 698.75,24.5 698.9,25.1 699.15,26.35 698.45,27.1 696.05,29.95 697.15,31.45 697.95,32.55 701.2,33.35 701.7,33.5 702.65,33.95 703.4,34.25 704,33.55 704.5,32.85 704.2,32 703.7,31.05 703.5,30.55 702.75,29.05 702.55,28.3 702.25,26.95 703.55,26.5 704.9,26.05 705.7,27.25 706.1,27.8 706.85,29.7 707.55,31.55 706.6,33.45 705.4,35.85 706.25,36.35 706.95,36.85 709.35,36 711.6,34.8 712.3,34 713.5,32.65 711.9,30.5 712,29.7 712.35,29.25 712.8,28.75 713.3,29.15 715.7,30.8 716.85,29.6 717.35,29.1 718.15,26.45 718.8,24.45 719.1,23.4 719.55,21.65 719.6,20.3 719.8,17.55 722.1,11 724.45,4.85 724.55,4.2 728.45,-0.9 728.55,-2.7 728.65,-4.5 725.3,-10.25 724.75,-10.55 724,-10.55L722.6,-10.55Q721.55,-10.65 721.25,-10.95 720.8,-11.4 721.4,-12.45 722.45,-13.25 722.6,-13.4 723.85,-14.75 724.15,-15.7 724.5,-17.05 723.45,-18.3 721.25,-20.8 718.65,-18.25 714.05,-15.85 712.35,-20.9 711.8,-22.75 712.15,-24.3 712.5,-25.85 713.7,-25.5 715.25,-25.05 716.95,-25.65 717.85,-26 719.85,-26.75 721.15,-26.35 721.95,-26.45 723.05,-26.6 723.75,-27.6 724.85,-27.65 726,-26.8 726.55,-26.3 727.75,-25.2 729.7,-23.85 730.8,-24.1 732.05,-24.35 732.6,-26.7 732.65,-26.95 733.4,-28.5 733.65,-28.8 733.7,-30.1 733.8,-31.2 734.6,-31.5 735.35,-31.75 735.85,-31.15 736.05,-30.75 736.55,-30.05L736.5,-30.05Q737.35,-29.5 738.25,-29.8 739.2,-30.45 739.7,-30.8 742.35,-32.15 746.75,-33.15 752.95,-34.5 754,-34.85 754.6,-35.1 755.7,-35.55 756.7,-36 757.2,-36.55 758.9,-36.7 762.1,-36.9 764.85,-37.35 766.6,-39.15 772.65,-45.15 782.75,-41.1 783.8,-39.2 785.85,-40.35 787.85,-41.65 788.15,-41.75 789.5,-42.2 790.6,-40.8 791.7,-39.4 790.75,-38.35 790.25,-37.75 788.9,-36.7 787.95,-35.45 785.95,-34.1 785.35,-33.65 785.2,-33.05 785.1,-32.8 785.05,-31.8 784.85,-26.9 785.4,-24.95 786.3,-21.4 789.85,-19.7 790.05,-19.6 790.2,-19.15 790.3,-18.85 790.5,-18.3 791.2,-16.55 793.1,-15.85 793.15,-15.85 796.5,-15.2 799.2,-14.65 800.65,-18.15 801.55,-20.25 803.3,-22.4 804.3,-23.55 806.65,-26 806.15,-27.6 806.9,-28.85 807.5,-29.8 809,-30.8L813,-32.45Q813.7,-33.05 814.75,-32.95 816.55,-32.85 816.6,-32.85 817.65,-32.95 818,-33.35 818.35,-33.85 817.9,-34.75 817.75,-36.15 816.55,-36.95 815.05,-37.7 814.3,-38.15 811.9,-39.4 811.7,-43.05 811.5,-46.65 813.8,-48 815,-48.65 815.85,-48.3 816.75,-47.9 816.95,-46.4 817.05,-45.75 817,-44.3 817.25,-43.15 818.5,-42.85 820.05,-43 820.45,-42.75 821.15,-42.4 820.75,-40.8 820.5,-39.8 820.95,-39.4 821.5,-39.1 822.55,-39.5L828.9,-41.25Q829.4,-41.5 830.35,-42.05 831.2,-42.4 832.05,-41.95 836.25,-39.35 841.65,-41.25 842.9,-42.15 844.05,-44.5 844.55,-48.25 848.5,-50.1 850.55,-51.05 851.2,-51 852.45,-50.85 851.75,-47.85 851.35,-45.9 851.5,-44.2 851.65,-42 852.9,-41.3 854.6,-40.25 857.7,-44.4 859.7,-46.75 857.7,-49.15 857.85,-52.7 860.4,-54.4 862.9,-56.15 865.6,-54.6L866.55,-53.25Q867.15,-52.4 868.2,-53.15 869.15,-53.75 869.1,-54.85 868.8,-56.15 868.65,-56.75 868.25,-58.7 869.95,-60.15 872.5,-62.2 872.65,-62.5 872.75,-62.6 873.25,-62.4 873.8,-62.25 874,-62.05 874.35,-61.6 874.25,-61.05 874.15,-60.55 873.7,-60.25 871.35,-58.3 871.15,-54.95 871,-53.05 871.25,-49.1 871.2,-47.65 871.85,-47.3 872.5,-46.95 873.55,-48.1 875.7,-50.3 878.45,-51.3 881.85,-52.55 881.55,-56.35 881.2,-61 884.45,-62.5 887.3,-63.8 887.65,-65.8 887.95,-67.5 886.5,-70.3 881.85,-79.35 889.1,-90.05 892.5,-95.25 892.75,-100.25 893.5,-103.5 892.8,-107.3 892.6,-108.6 892.45,-109.25 892.25,-110.4 891.85,-111.1 890.45,-113.7 891.2,-116.95 892.4,-120.65 892.95,-122.45 893.5,-124.2 895.45,-125.05 897.35,-125.9 898.5,-125.15 901.95,-122.8 901.95,-124.75 901.3,-127.45 901.45,-128 901.6,-128.5 901.35,-129.9 901.1,-131.25 901.45,-132.05 902.95,-133.1 904,-135.95 905.15,-139 906.2,-140.05 908.6,-142.2 909.55,-145.8 910.05,-147.75 910.45,-152.25 910.95,-157.65 909.5,-163.15L908.45,-165.45 873.6,-165.45Q871.35,-164.2 872.75,-162.3 872.8,-161.8 874.5,-157.85 875.65,-155.1 875.1,-152.95L872.9,-144.15Q871.95,-140.4 868.15,-132.85 864.55,-125.7 863.65,-121.45 862.8,-116.95 859.15,-115.7 853.4,-113.85 850.6,-107 849.05,-103 845.75,-100.15 842.95,-97.7 838.5,-95.65 834.1,-94.1 831.95,-93.3 828.1,-91.7 826.3,-88.85 825.3,-87.35 822.5,-88.2 819.7,-89 819.95,-90.7 820.25,-92.45 819.65,-94.05 819.3,-95.1 818.15,-96.9 821,-98.7 823.5,-101.45L824.6,-102.65Q825.9,-104.05 823.85,-104.6 821.3,-105.25 817.9,-102.4 814.45,-99.55 814.8,-97 815.5,-92.45 814.65,-88.95 813.65,-85.1 810.55,-82.15L805.65,-77.5Q803.05,-75.1 802.15,-73.1 801.05,-70.45 802.2,-67.55 802.8,-66 802.25,-64.85 800.75,-61.55 796.25,-60.15 791.75,-58.7 788.7,-60.55 788.1,-61 788.2,-61.5 788.45,-64.95 786.95,-65.1 785.9,-65.2 783.4,-63.7 782.55,-63.15 781.35,-62.9 780.7,-62.8 779.2,-62.8 777.2,-62.8 776.15,-62.85 774.35,-62.85 773.35,-62.45 766.85,-59.8 761.75,-59.4 755.5,-58.9 750,-61.45 749.4,-61.75 748.65,-61.35 747.6,-60.8 747.45,-60.75 744.1,-60.25 741.2,-57.3 739.55,-55.6 736.55,-51.95 733.4,-48.6 726.9,-43.7 719.7,-38.25 717.05,-35.7 716,-34.65 714.05,-34.85 712.1,-35.05 711.1,-34.05 710.3,-33.25 709.85,-31.25 709.65,-30.35 709.5,-28.15 709.25,-26.35 708.1,-26.25 705.25,-25.95 702.3,-22.3 699.2,-18.45 696.7,-17.95 696.2,-17.85 694.25,-16.35 692.6,-15.15 691.1,-15.45 690.9,-15.5 690.5,-15.25 690.1,-15 690.1,-14.9 690.35,-13 687.55,-13.25"/><path fill="#FFF" d="M846.7,-119.5Q846.45,-122.55 845.25,-122.3 844.1,-122.05 843.65,-120 843.3,-118.55 843.4,-116.55 843.45,-115.4 844.55,-115.05 845.75,-114.7 846.35,-115.75 846.9,-116.7 846.7,-119.5"/><path fill="#FFF" d="M481.35,-141.25Q481.4,-139.8 481.7,-139.2 482.4,-137.5 483.65,-137.7 484.7,-137.85 485.05,-138.45 485.4,-139.15 484.95,-140.2 484.7,-141.35 485.25,-142.2 485.8,-143.05 486.8,-143.05 489.2,-143 491.45,-144.45 491.75,-144.6 495.2,-147.4 495.95,-147.85 497.9,-148.45 499.3,-149.3 498.4,-151.35 498.15,-151.95 498.25,-152.65 498.35,-153.55 498.4,-154.05 499.1,-157.75 502.35,-160 504.25,-161.4 508.65,-163.4 508.15,-165.2 506.6,-165.4 504.65,-165.3 503.75,-165.3L-13.55,-165.3Q-17.4,-165.3 -18.45,-164.25 -19.55,-163.15 -19.6,-159.3L-19.15,204.65Q-18.9,208.5 -15.6,208.7 -14,210.5 -12.8,210.3 -11.55,210.15 -10.25,208.05 -9.15,206.35 -7.55,206.35 -6,206.3 -4.75,207.9 1.55,215.95 1.75,226.05 2,235.15 7.2,241 8.35,242.3 12.2,247.6 15.2,251.75 17.65,253.9 19.3,255.25 19.65,255.35 20.5,255.5 21.65,253.75 21.4,257.9 21.9,258.45 22.45,259 25.95,258.15 26.75,258 27.25,258.3 27.65,258.6 28,259.4L29.3,263.05Q31.15,261.7 31.6,261.8 32.05,261.95 32.9,264.05 33.05,264.35 33.4,264.65 35.45,265.8 35.3,266.9 35.15,267.85 33.2,269 33,269.1 33,269.8 33,270.15 33,270.9 31.45,271.05 31.15,271.15 30.15,271.5 30.65,272.45 31.3,273.95 32.7,276.95 34.1,279.35 36.4,280.2 36.75,280.35 37.5,280.65 38.15,280.75 38.45,280.05 39.35,278.3 40.15,278.75 40.55,279 41.3,280.45 43.75,284.95 45.05,287.95 46.9,292.15 47.65,295.8 49.45,304.05 49.6,305.2 50.1,310.5 48.2,314.55 46.85,317.25 45.75,322.65 44.6,328.45 43.55,330.85 43.3,331.45 43.4,333.6 43.5,335.75 45.5,335.1 46.15,334.9 47.55,334 48.6,333.7 48.9,335.85 51.6,335.1 55.05,337.35 59.15,340 61.2,340.15 64.2,340.3 65.8,339.75 67.7,339.1 68.7,337.1 70.1,334.25 73.2,332.05 73.4,331.9 78.75,328.6 79.95,327.35 80.6,326.65 81.7,325.55 83.3,325.8 85.85,326.25 87.55,324.7 89.05,323.35 89.7,320.65 90.1,318.95 91.6,311.05 94.85,312.65 96.7,316.25 97.45,317.7 99.15,323 99.5,324.2 100.5,324.95 101.25,325.45 102.65,325.9 103.5,326.2 103.75,326.45 104.2,326.85 103.45,327.35 102.25,328.2 102.45,329.35 102.55,330 103.15,331.25 103.6,332.75 105.15,336.85 106.5,340.35 107,342.5 107.4,344.1 109.2,356.35 110.45,364.7 113.25,369.75 113.6,370.4 113.6,371.6 113.55,372.3 113.5,373.7 113.55,376.2 113.65,376.55 114.05,378 116.05,378.5 118.45,379.2 119.7,383.9 119.9,384.7 120.3,386.25 120.7,387.65 121.2,388.4 124.95,394.05 123.15,400.75L121.85,405.45Q121.65,408 124.15,409.55 123.25,410.5 121.95,410.05 120.5,409.6 119.75,410.05 120.6,410.9 121.7,412.95 122.85,414.65 124.65,414.7 125.65,414.75 125.9,415.2 126.05,415.55 125.85,416.45 125.25,419.45 124.95,425.6 124.25,431 121.3,434.1 120.85,434.55 120.85,435.3 120.85,435.8 120.95,436.7 120.95,437.9 121.95,444.7 122.7,449.6 121.65,452.95 121.3,454.15 120.3,456.55 119.25,458.95 118.85,460.25 117.7,464.05 116.65,474.2 115.45,486.15 117.55,486.65 118,486.8 118.45,486.45 118.9,486.15 119.05,485.65 119.2,485.1 119.05,481.75 118.95,480.1 121.7,478.7 122.85,478.1 123.85,479.05 124.45,479.6 125.5,481 128.55,484.2 129.05,484.85 130.8,487.15 131.1,489.6 131.15,490 131.45,489.95 131.65,489.95 132.05,489.8 133.55,489.5 134.5,490.55 134.95,491.1 135.65,492.7 136.45,494.45 137.1,495.25 138,496.45 139.5,496.9 140.15,497.1 140.9,497.8 141.65,498.5 141.7,499 141.85,502.3 144.7,505.65 148.9,510.4 149.25,511.1 150.35,513 153.1,516.85 155.2,520.3 154.65,523.15 154.15,525.85 155.1,530.5 156.05,535.4 155.75,537.7 155.55,539.2 157.1,540.45 159,541.85 159.6,543.9 160.2,545.85 159.55,547.95 158.6,550.85 160.3,554.05 161.25,555.85 163.3,559.2 165.65,564.45 171.2,569.95 172.15,570.9 172.45,572.2 172.7,573.55 172.2,574.8 171.75,576 172.2,576.85 172.5,577.4 173.6,578.4 174.8,579.4 178.1,581.3 181.1,582.95 182.3,584.35 185.65,588.2 189.6,589.65 192.4,590.75 193.7,592.1 196,594.6 199.65,596.7 201.45,597.75 206.4,600.1 207,600.35 208.15,600.85 209.15,601.4 209.65,602.2 211.95,605.8 214.25,606.05 216.55,606.3 219.75,603.25 220.8,602.35 220.85,602.3 221.4,602.1 222.1,603.1 222.6,604 223.5,604.1 224.4,604.2 225.15,603.55 225.8,603 225.75,602.15 225.7,601.65 225.3,600.55 223.9,597.05 223.15,595.25 221.9,592.1 220.8,590 219.25,586.3 218.15,584.65 216.4,581.75 213.6,580.5 211.15,579.4 210.5,574.4 210.4,573.25 210.7,569.25 210.95,566.05 210.2,564.25 208.7,560.7 209.85,556.5 214.15,540.65 200.2,528.35 196.95,525.85 195.4,524.55 192.75,522.15 191.9,519.5 191.55,518.3 189.4,517.6 183.1,515.75 178.9,508.55 175.75,503.2 170.25,504.7 167.25,505.55 164.65,504.15 162.65,503.15 160.45,500.45 159.65,499.5 158.75,498L157.2,495.45Q156.95,494.7 156.75,494.4 156.4,493.95 155.7,494.55 154.3,495.8 153.05,494.75 151.9,493.95 151.5,492.15 151.1,489.95 152.7,489.45 155,488.8 155.5,487.8 156.5,485.7 155,482.45 153.8,479.95 151.85,478 149.1,475.25 147.75,471.4 147,469.3 146.2,464.1 145.75,461.25 144.65,460.6 143.6,459.9 140.9,460.8 137.55,461.85 136.55,461.3 135.5,460.8 134.85,457.6 134.75,457.05 134.35,456.4 131.9,452.8 132.3,447.85 132.55,445.1 134.2,439.7 135.1,436.55 137.3,431.05 139.8,424.9 140.65,422.35 144.45,414.1 146.2,409.95 149.25,402.55 147.75,396.45 147.6,395.95 147.95,394.95 148.35,393.75 148.4,393.35 148.85,391.25 148.95,390.2 149.15,388.3 148.15,386.9 146.95,385.25 149.7,383.7 156,380.1 163.15,382.85 164.75,383.4 165.4,384.55 166.05,385.85 165.3,387.6 164.55,389.25 164.45,391.45 164.45,392.55 164.65,395.4 164.9,398.6 168,398.2 172.7,397.65 180.5,398.6 182.7,398.8 185.2,400.45 187.45,402 189.05,404.1 190.35,405.8 191.25,406.5 192.45,407.4 194.05,407.65 194.55,407.75 195.7,407.9 196.55,408.15 196.95,408.8 202.65,418.85 204.95,423.35 205.2,423.9 205.1,424.9 205.05,425.45 204.85,426.5 204.8,427.2 204.45,428.65 204.45,429.85 205.8,430.1 208,430.5 208.6,430.4 210.2,430.25 210.75,428.35 211.45,426.35 212.55,426.6 213.25,426.8 214.4,428.2 216.4,430.8 213.8,433.1 212.8,434.05 212.6,434.7 212.2,435.6 212.95,436.55 214.1,437.95 216.65,437.15 224.8,434.5 229.55,440.8 230.55,442.1 231.5,442.7 232.55,443.35 234.2,443.5 237.85,443.85 238.75,446.05 239.65,448.25 237.4,451.05 236.35,452.35 236.2,454.3 236.15,455.05 235.8,459.05 235.5,461.95 235.5,463.8 235.5,468.6 235.55,469.15 235.9,472.15 237.55,472.75 239.9,473.5 242.2,471.35 243.4,470.3 245.7,466.85 247,464.95 247.65,464.25 248.8,463.05 250.3,462.8 253.5,462.3 258.1,458.95 263.05,455.4 265.65,454.65 266.15,454.55 266.6,453.45 268.2,450 268.95,448.25 270.15,445.2 270.35,442.7 270.55,440.05 272.45,439 274.35,437.9 276.8,439.05 278.95,440.05 281.35,438.65 283.25,437.5 288.45,435.15 293,433.15 295.45,431.3 298.45,428.95 300.1,427.85 302.9,425.85 305.5,425.1 307,424.7 308.45,423.7 310.1,422.65 311,421.3 313.9,416.8 314.05,416.5 315.45,413.65 314.95,410.95 314.65,409.5 315.95,406.15 317,403.2 316.05,401.35 314.3,398.05 317.25,395.85 318.6,394.85 318.65,393.6 318.75,392.55 317.8,391 314.7,386 315.55,379.9 316.3,375.05 314.75,368.8 312.65,361.75 311.85,358.15 310.85,353.8 310.45,352.45 309.45,349.3 308,347.95 306.25,346.4 303.25,341.9 300.55,337.8 298.2,336.15 296.45,334.95 293.85,332.5 290.75,329.55 289.6,328.65 285.95,325.75 284.15,324.15 281.2,321.55 279.15,319.1 277,316.2 275.9,314.7 273.9,312.25 271.95,310.8 265.1,305.85 265.6,299.1 265.75,297.5 264.25,296.35 256.45,290.55 251.95,282.5 251,280.85 250.85,279.75 250.65,278.45 251.45,277.05 253.4,273.6 253.65,268.4 253.9,262.7 258.95,260.2 265.9,256.7 266.7,252.9 267.2,250.25 269.4,247.3 272.45,242.95 272.75,242.45 273.65,240.7 275.55,240.45 279.1,240.1 281.15,239 283.65,237.6 285.5,234.45 286.8,232.2 290.45,230.55 293.6,229.1 297.25,228.65 299.65,228.3 300.7,227.55 302,226.7 302.45,224.75 302.65,223.85 303.25,223.45 303.9,223.05 304.2,223.9 304.95,226.2 307,226.9 307.35,227.05 310.9,227.45 312.1,227.65 312.55,227.8 313.5,228.15 313.6,228.9 313.85,230.95 315.1,231.1 315.4,231.15 317.65,230.6 320.5,229.95 321.4,229.45 323.05,228.5 324.4,229.45 325.2,229.9 326.55,231.25 327.55,231.95 326.8,232.7 325.6,234 325.6,234.05 324.25,237.5 324.05,239.25 323.7,242.2 325,244.7 327.05,248.55 327.65,251.35 328,253.1 328.65,253.7 329.5,254.5 330.95,254.1 332.35,253.8 335.25,253.6 337.65,253.15 338.55,251 339.5,248.8 337.85,245.95 337.15,244.8 334.55,241.55 334.2,241.25 334.2,240.95 334.2,240.65 334.6,240.15 339.45,235.3 340.45,234.45 344.3,231.45 347.75,231.4 349.95,231.4 352.85,230.7 354.5,230.25 357.75,229.4 358.3,229.25 361.15,228.2 363.15,227.4 364.6,227.45 364.5,224.9 365.9,224.8 366.4,224.75 368.75,225.6 370.25,226.1 371.05,225.8 371.95,225.5 373.4,223.9 374.8,222.75 376.4,224.2 376.6,223.95 381.65,221.6 386.25,219.45 385.7,218.55 387.35,221.45 390.5,220.5 393.65,219.6 394.05,216.45 394.5,212.3 395.15,209.85 395.65,208.15 396.55,207.85 397.45,207.45 399.2,208.6 401.25,210.05 401.05,212.05 400.9,213.2 400.05,215.5 401,215.95 402.3,215.25 403.6,214.5 404.4,214.9 408.8,216.9 408.55,211.5 408.5,210.5 408.75,210.15 409.05,209.7 410,210.1 411.65,210.8 412.1,210.1 412.4,209.6 412.15,208.05 411.9,206.15 413.15,205.75 414.1,205.4 414.3,205.4 415,205.35 415.3,205.95 416.3,208.3 417.9,207.9 418.15,207.85 420.55,206.3 422.3,205.2 422.4,205.15 423.4,204.65 424.5,205.05 425.75,205.5 428.35,206.45 430.45,206.75 431.75,204 431.95,203.65 432.65,203.85 433.05,204 433.9,204.35 437,204.95 442.15,202.7 447.2,200.55 449.1,197.95 453.45,192.05 457,188.95 460.55,185.9 462.6,187.3 464.35,188.5 464.7,187.65 464.8,186.3 464.95,185.7 465.05,185.45 464.75,184.1 464.55,183.05 465.3,183 467.55,182.85 469.65,181.35 470.05,181 473.15,178.25 473.55,177.9 475.05,176.85 476.4,175.75 476.5,175.1 476.6,174.45 475.5,173.4 474.5,172.4 474.75,171.45 475.2,170.1 477.25,169.6 477.4,169.55 479.15,169.3 480.3,169.1 481,168.75 481.5,168.4 482,168.4 483.15,168.15 484.7,168.45 485.55,168.6 487.05,167.35 489.1,165.7 490.75,161.35 491.25,160 491.9,158.15 492.65,157 495,157.55 497.8,158.2 497.6,156.4 496.85,153.95 497.1,153 497.3,152.35 497.85,151.95 498.35,151.55 499,151.5 501.5,151.35 502.3,150.9 503.6,150.15 503.55,147.9 503,143.3 503,140.85 503.1,136.45 506,135.05 507.75,134.15 507.65,132.2 507.5,130.25 505.6,129.15 504.6,128.8 504.2,128.6 503.45,128.25 504,127.2 504.55,126.3 505.15,125.95 505.9,125.5 507.15,125.7 508.75,125.9 509.75,126.55 510.85,127.35 511.9,129.3 511.85,125.1 513.75,122.1 515.2,119.75 518.35,117.5 521,115.55 521.25,113.4 521.65,108.9 525.8,103.55 530.9,97 531.9,94.4 532.6,95.4 532.45,96.95 532.25,98.5 532.65,99.25 533.6,98.65 534.9,96.5 536.05,94.6 537.4,94.1 539.6,93.3 540.05,91.8 540.5,90.3 539.2,88.25 539.1,88.15 538.05,87.3 537.3,86.75 537.45,85.9 538.15,85.35 539.8,84.7 541.1,83.9 541,81.95 540.9,80.65 540.4,79.05 539.6,77.1 539.15,76 541.1,76.85 541.15,76.9 542.5,77.75 543.1,78 544.25,78.35 545.25,77.8 546.25,77.2 546.2,76 546,74.5 546,73.85 546,71.35 546.2,70.7 547.8,65.65 542.7,67.4 543.6,65.35 545.95,63.95 548.85,62.1 545.55,60.65 543.95,60 539.7,55.25 536.1,51.25 533.35,51.6 530.75,52.7 528.75,53.25 524.95,54.45 525.15,52.5 525.25,51.7 526.45,50.8 527.55,50.05 529.35,48.15 531.3,46.2 532.25,45.5 536.5,42.2 541.85,40.85 545.5,39.9 545.95,39.05 546.4,38.15 544.45,35.15 543.6,33.9 542.25,32.45 540.75,30.95 539.55,30.2 537.9,29.2 536.2,27.25 536.05,27.05 533.35,23.85L531.7,21.9Q531.35,21.5 531.05,21.2 532.7,21.4 533.9,22.4 534.7,23.1 536.5,24.75 538.45,26.3 540.4,27.15 543.1,28.45 544.85,27.8 545.35,27.6 545.6,27.1 545.9,26.6 545.65,26.15 545.5,25.75 544.85,25.45 542.85,24.65 541.85,24.2 540.25,23.3 539.9,22.05 540.5,21.75 541.55,22.2 542.85,22.75 543.25,22.75 546.35,22.85 544.05,18.85 541.8,14.9 539.7,14.4 537.35,13.85 537.2,11.6 537.05,9.25 535.5,7.75 534.3,6.6 531.8,5.6 529,4.45 528,3 526.6,1.15 527.55,-1.65 527.75,-2.25 527.4,-3.35 526.95,-4.5 526.8,-5.1 526.25,-7.75 523,-13.4 520.05,-18.55 519.75,-22.15 519.6,-23.9 518.2,-26.7 516.5,-30 516.15,-31.3 515,-35.25 512.05,-35.6 508.4,-36 504.4,-39 497.95,-43.85 497.8,-43.95 496.5,-44.65 496.35,-46.2 496.15,-47.7 497.1,-48.9 497.95,-50 499,-52.15 500.25,-54.45 500.85,-55.4 503.05,-58.65 504,-59.75 505.9,-62.05 508.25,-63.35 515.25,-67.3 513.6,-73.15 513.1,-75 514.85,-75.8 516.05,-76.35 516.55,-75.4 516.95,-74.75 517.55,-73.35 518.3,-72.35 519.8,-72.9 522.15,-73.8 522.6,-76.6 523.1,-79.3 525.65,-81.35 527.05,-82.5 530.1,-84.65 531.95,-86.25 535.5,-87.5 540.55,-89.3 541.3,-89.7 543.95,-91 545.6,-91.25 548,-91.65 550.3,-90.7 551.95,-90 553.85,-90.7 555.8,-91.4 555.6,-93 555.35,-94.75 556,-96.35 556.15,-96.7 557.45,-99.1 558.65,-101.1 558.4,-101.95 558.1,-103 555.55,-102.9 552.35,-102.65 550.4,-104.55 549.15,-105.8 547.2,-104.95 542.4,-102.7 537.8,-104.15 533.9,-105.3 529.95,-109.25 528.05,-111.1 526.4,-111.65 524.5,-112.3 522.3,-111.55 521.85,-111.1 521.05,-111.1 520.15,-111.15 519.7,-111.15 515.8,-111.15 516,-107.5L515.8,-106.75Q514.05,-105.95 513.2,-105.55 511.7,-104.8 511.15,-103.5 509.55,-103.05 508.9,-102.7 507.8,-102 508.75,-100.15L508.55,-99.55Q505.9,-98.15 504.75,-96.4L502.4,-96.35Q501,-95.85 499.9,-95.85 498.4,-95.8 498.15,-96.6 497.35,-98.9 495.2,-99.6 492.6,-100.05 491.25,-100.4 491.2,-102 491.2,-102.85 491.2,-104.25 491.9,-105.2 493.5,-106.45 493.5,-108.4 493.55,-109.3 494.5,-109.8 495.8,-110.4 495.95,-110.7 496.5,-112.35 495.15,-113.5L493.55,-115.5Q492,-119.25 490.85,-119.65 489.6,-120.15 487.2,-118L484.6,-118.4Q483.95,-119.6 482,-119.35 479.85,-119 479.25,-119.45L477.65,-119.5Q476.5,-120.4 475.75,-119.15 475.45,-121.65 474.05,-123.05 472.55,-124.5 469.8,-125.05L468.85,-127.4Q468.6,-127.95 468.4,-129.9 468.3,-131.5 467.4,-132.25 466.7,-134.35 468.65,-135.6 471.15,-137.15 471.4,-137.9 471.45,-139.55 473.05,-141.55 474.95,-143.85 475.25,-145 478.5,-145.5 480.85,-143.3 481.25,-142.65 481.35,-141.25"/><path fill="#FFF" d="M626.95,-16.5Q626.4,-16.05 625.05,-15.3 624,-14.55 624.25,-13.5 624.55,-12.25 625.85,-12.05 626.6,-11.95 628.25,-12 629.6,-11.8 631.2,-12.35 632.15,-12.6 633.95,-13.4 636.05,-14.25 635.5,-16.5 635.05,-18.65 632.45,-18.3 630.1,-17.85 629.6,-17.75 627.95,-17.3 626.95,-16.5"/><path fill="#FFF" d="M548.55,54.25Q546.7,54.05 546.95,55.4 547.4,57.8 550.05,57.95 551.95,58.1 551.85,57.05 551.7,55.85 550.65,55.2 550.25,54.95 548.55,54.25"/><path fill="#FFF" d="M526.45,167.55Q525.85,168.2 524.7,169.55 515.05,182 512.9,196.85 512.65,198.4 513.8,200.25 515.2,202.65 517.65,207.6 520.05,211.85 522.9,214.05 523.3,214.35 523.6,215.1 524,216.2 524.15,216.45 524.55,217.1 524.7,218.85 525,220.2 526.35,219.95 527.3,219.8 527.6,218.35 527.75,217.7 527.8,215.8 528.15,209.55 532.7,204.4 536.25,200.45 537.75,194.65 539.3,187.3 540.05,183.65 541.5,177.1 543.75,172.9 544.55,171.5 544.6,166.65 544.65,162.55 546.95,160.7 547.2,160.4 543.85,157.65 540.35,154.8 539.6,154.85 538.85,154.95 538.6,155.2 538.1,155.75 532.35,159.35 528.45,161.8 527.65,165.35 527.45,166.3 526.45,167.55"/><path fill="#FFF" d="M346.85,266.55Q348.3,264.4 347.5,262.2 346.8,260.2 344.4,258.7 343,257.85 341.7,258.75 340.2,259.7 339.55,259.45 336.55,258.55 331.35,259.45 325.5,260.4 323.1,260.1 322.45,260 320.55,260.95 318.65,261.8 317.4,261.6 317.05,261.55 316.35,262 315.65,262.55 315.65,262.9 315.7,265.1 314.05,266.5 313.4,267.05 310.75,268.5 304.95,271.65 306.05,277.05 306,278.5 306.3,280.7 306.6,283.05 306.6,283.9 306.55,286.65 307.95,288.1 309.15,289.3 311.85,290.1 313.6,290.55 317.05,291.3 320.1,292.1 321.95,293.45 323.05,294.25 324.05,292.95 325.95,290.6 330,288.45 335.4,285.55 336.45,284.8 338.15,283.5 338.65,282.9 339.6,281.75 339.55,280.25 339.5,278.95 340,277.3 340.65,275.45 340.95,274.5 341.55,272.55 343.6,270.3 346.45,267.15 346.85,266.55"/></g><g id="Scene 1_6.0"><path fill="#9BDBF4" d="M248.5,191.8Q245.85,190.5 243.6,191.95 242.3,192.85 238.7,197 236.75,199.3 236.4,199.4 235.5,199.65 232.2,202.25 228.1,205.5 225.5,204.55 224.65,204.2 224.05,203.5L223.7,202.9 219.75,204.85Q217.75,205.85 214.7,205.1 211.2,204.25 208.7,204.85 206.1,205.5 206.25,205.8 206.75,206.8 204.8,208.75 202.55,211 198.3,205.65 196.4,203 195.65,202.15 194.5,200.75 194.3,201.6 193.8,203.6 191.45,204.65 188.95,205.7 183.25,206.15 177.75,206.6 176.85,206.95 176.5,207.15 175.4,208.75 174.65,209.9 176.65,214.35 180.1,222.2 181.3,225.75 183.45,232.25 181.75,233.35 181.1,233.75 179.25,233.7 176.85,233.6 175.4,233.6 171.85,233.6 168.05,228.85 164.65,223.8 163.65,223.15 162.55,222.4 160.55,224 157.05,226.55 154.5,227.7 150.85,229.3 149.95,227.1 148.95,222.8 147.3,219.25 145.35,214.8 143.7,214.75 141.15,215.3 138.2,214.65 133.75,213.65 133.45,213.4 133.1,213.1 131.65,208.75 130.65,205.8 131,202.25 131.35,198.65 130.35,195.75 129.35,192.65 127.3,193.05 124.3,193.6 121.85,191.8 118.8,189.5 119.1,183.85 119.55,175.9 119.25,174.8 118.4,171.6 115.7,172 111.75,173.2 108.8,173.5 106.6,173.75 101.8,175.75 98.85,176.95 97.7,175.45 97.05,174.65 97.55,174.2 97.85,173.9 99,173.35 101.4,172 100.3,168.3 99.15,164.6 99.9,161.45 101,156.8 101,154.6 101,150.5 105.3,145.85 107.7,143.35 112.05,139.55 113.4,138.2 116.9,136.4 119.25,135.1 119.25,133.7 119.25,133.05 120.7,128.65 122,124.9 121.2,122.6 120.35,120.05 120.85,117.6 121.9,114.45 122.5,112.15 123.3,109.3 120.7,104.9L117.9,101.05Q116.65,102.2 115.4,102.7 113,103.7 113.35,100.4 113.75,97.35 112.3,95.4 109.6,91.75 108.8,89.95 107.15,86.3 104.55,83.5L102.25,81.45Q101.75,82.3 101.25,83.65 100.3,86.45 100.3,89.3 100.3,92.15 97,94.15 93.15,95.85 91.8,96.5 88.4,97.45 87.15,98.05 85.05,99.05 87.9,101.05 91.1,103.35 91.8,105.95 92.35,107.95 91.8,112.8 91.65,114.8 90.45,113.9 89.7,113.35 87.65,110.7 82.65,103.95 80.05,103.7 77.1,103.3 69.3,109.85 59.05,118.55 56.55,120 53.9,121.55 53.8,122.7 53.7,123.4 55.1,124.8 59.15,128.65 58.55,133.05 57.7,138.7 53.05,140.95 47.75,142.5 46.15,143.5 44.05,144.75 45.65,146.9 46.65,148.25 50.05,151.3 51.8,153.1 46.05,160.95 37.95,171.95 35.65,177.4 32.45,185.2 29.15,180.1 28.15,178.55 27.25,175.85L26.55,173.5 23.95,174.65Q21.65,176.65 23.3,180.7 24.9,184.75 21.6,190 20,192.6 18.05,194.4L18.4,201.1Q18.7,208.25 18.7,210.7 18.7,212.5 16.05,212.5 13.2,212.5 12.85,215.3 12.45,218.4 10.5,217.1 9.55,216.45 8.4,214.8 9.75,216.9 10.45,219.6 11.6,224.55 8.95,228.35 6.9,231.15 3.3,232.75 4.65,237.3 7.6,240.6 8.8,241.9 12.6,247.2 15.65,251.35 18.1,253.5 19.7,254.85 20.1,254.9 20.95,255.05 22.05,253.35 21.8,257.45 22.35,258.05 22.9,258.6 26.35,257.75 27.2,257.55 27.7,257.9 28.05,258.2 28.4,259L29.75,262.65Q31.6,261.3 32.05,261.4 32.5,261.55 33.3,263.65 33.5,264.1 33.8,264.25 35.85,265.4 35.7,266.5 35.55,267.45 33.6,268.6 33.4,268.7 33.4,269.35 33.4,269.7 33.4,270.5 31.9,270.65 31.55,270.75 30.55,271.1 31.05,272.05 31.75,273.55 33.1,276.5 34.55,278.95 36.85,279.8 37.2,279.95 37.9,280.25 38.55,280.35 38.9,279.65 39.8,277.9 40.55,278.35 40.95,278.55 41.75,280.05 44.2,284.55 45.45,287.55 47.3,291.75 48.1,295.4 49.85,303.65 50,304.75 50.55,310.1 48.65,314.1 47.25,316.85 46.2,322.25 45,328 44,330.4 43.75,331.05 43.85,333.2 43.95,335.3 45.95,334.7 46.6,334.5 47.95,333.6 49.05,333.3 49.3,335.4 52,334.7 55.5,336.95 59.55,339.6 61.6,339.75 64.65,339.85 66.2,339.35 68.15,338.7 69.1,336.7 70.55,333.85 73.6,331.65 73.8,331.5 79.2,328.15 80.35,326.95 81,326.25 82.15,325.15 83.75,325.4 86.3,325.8 87.95,324.3 89.45,322.95 90.1,320.25 90.5,318.55 92,310.65 95.3,312.25 97.1,315.85 97.9,317.3 99.55,322.6 99.9,323.8 100.95,324.55 101.65,325.05 103.1,325.5 103.9,325.75 104.15,326 104.6,326.45 103.85,326.95 102.7,327.8 102.9,328.95 103,329.6 103.6,330.85 104,332.35 105.6,336.45 106.9,339.9 107.45,342.1 107.85,343.7 109.65,355.95 110.85,364.3 113.65,369.35 114,370 114,371.2 113.95,371.9 113.9,373.25 113.95,375.8 114.05,376.15 114.5,377.55 116.45,378.1 118.9,378.8 120.1,383.5 120.3,384.3 120.7,385.85 121.1,387.2 121.65,388 125.35,393.65 123.55,400.35L122.3,405.05Q122.1,407.6 124.6,409.15 123.7,410.1 122.4,409.65 120.9,409.2 120.15,409.65 121,410.5 122.15,412.55 123.25,414.25 125.05,414.3 126.1,414.35 126.35,414.8 126.5,415.15 126.3,416.05 125.65,419.05 125.35,425.2 124.7,430.6 121.75,433.7 121.3,434.15 121.3,434.9 121.3,435.4 121.4,436.3 121.4,437.5 122.4,444.3 123.1,449.2 122.1,452.55 121.75,453.75 120.7,456.15 119.7,458.55 119.3,459.85 118.1,463.65 117.1,473.8 115.85,485.75 117.95,486.2 118.4,486.35 118.9,486.05 119.35,485.75 119.5,485.25 119.65,484.7 119.5,481.35 119.4,479.7 122.15,478.3 123.25,477.7 124.3,478.65 124.85,479.15 125.95,480.6 129,483.75 129.5,484.45 131.25,486.75 131.55,489.2 131.6,489.6 131.9,489.55 132.05,489.55 132.45,489.4 134,489.1 134.9,490.15 135.4,490.7 136.1,492.3 136.85,494.05 137.5,494.85 138.45,496.05 139.9,496.5 140.6,496.7 141.35,497.4 142.05,498.05 142.1,498.6 142.25,501.9 145.15,505.2 149.3,509.95 149.7,510.7 150.75,512.6 153.5,516.45 155.6,519.9 155.1,522.75 154.6,525.45 155.5,530.1 156.45,535 156.15,537.3 155.95,538.8 157.55,540.05 159.45,541.45 160.05,543.5 160.6,545.4 160,547.5 159.05,550.45 160.7,553.65 161.7,555.45 163.75,558.8 166.1,564 171.65,569.55 172.55,570.5 172.85,571.8 173.1,573.15 172.6,574.4 172.15,575.6 172.6,576.45 172.9,577 174.05,578 175.2,579 178.55,580.85 181.5,582.55 182.75,583.95 186.1,587.75 190.05,589.25 192.85,590.3 194.1,591.7 196.4,594.2 200.1,596.3 201.9,597.3 206.85,599.65 207.4,599.95 208.6,600.45 209.6,601 210.05,601.75 212.35,605.4 214.65,605.65 216.95,605.9 220.15,602.85 221.25,601.9 221.3,601.85 221.8,601.7 222.5,602.7 223.05,603.6 223.9,603.7 224.8,603.8 225.6,603.15 226.25,602.6 226.2,601.7 226.15,601.25 225.75,600.15 224.3,596.65 223.6,594.8 222.3,591.7 221.25,589.6 219.65,585.9 218.6,584.25 216.85,581.35 214.05,580.1 211.6,579 210.95,574 210.8,572.85 211.15,568.8 211.4,565.65 210.6,563.85 209.15,560.3 210.25,556.1 214.55,540.25 200.6,527.95 197.4,525.45 195.8,524.1 193.2,521.7 192.35,519.1 192,517.9 189.85,517.2 183.55,515.35 179.3,508.15 176.2,502.75 170.65,504.3 167.65,505.1 165.05,503.75 163.05,502.7 160.85,500.05 160.1,499.1 159.2,497.6L157.65,495.05Q157.4,494.3 157.2,494 156.85,493.5 156.1,494.15 154.75,495.4 153.45,494.35 152.35,493.5 151.95,491.75 151.5,489.55 153.1,489.05 155.45,488.4 155.9,487.4 156.95,485.3 155.45,482.05 154.25,479.55 152.3,477.6 149.5,474.85 148.2,471 147.45,468.9 146.6,463.7 146.15,460.85 145.1,460.15 144,459.5 141.35,460.35 138,461.45 136.95,460.9 135.95,460.35 135.25,457.2 135.15,456.55 134.8,456.1 132.3,452.5 132.75,447.5 132.95,444.75 134.6,439.25 135.55,436.15 137.75,430.65 140.25,424.5 141.1,421.95 144.9,413.7 146.6,409.55 149.7,402.15 148.2,396.05 148.05,395.55 148.4,394.55 148.75,393.35 148.8,392.95 149.25,390.85 149.35,389.75 149.6,387.9 148.55,386.5 147.4,384.8 150.15,383.3 156.4,379.7 163.55,382.4 165.15,383 165.8,384.15 166.5,385.45 165.7,387.15 164.95,388.85 164.9,391.05 164.9,392.1 165.05,395 165.3,398.2 168.45,397.8 173.15,397.25 180.95,398.2 183.15,398.4 185.65,400.05 187.9,401.6 189.45,403.65 190.8,405.4 191.65,406.05 192.9,407 194.5,407.25 195,407.35 196.1,407.5 197,407.75 197.4,408.35 203.05,418.45 205.35,422.95 205.6,423.5 205.5,424.5 205.45,425 205.25,426.1 205.2,426.8 204.9,428.25 204.9,429.45 206.25,429.65 208.4,430.1 209.05,430 210.6,429.8 211.2,427.95 211.9,425.95 212.95,426.2 213.7,426.4 214.8,427.8 216.85,430.4 214.25,432.7 213.25,433.65 213,434.25 212.6,435.2 213.4,436.15 214.5,437.55 217.05,436.7 225.25,434.1 230,440.4 231,441.7 231.9,442.3 233,442.95 234.65,443.1 238.25,443.45 239.2,445.65 240.1,447.85 237.85,450.65 236.75,451.95 236.6,453.9 236.55,454.65 236.2,458.65 235.9,461.55 235.9,463.4 235.9,468.2 235.95,468.75 236.3,471.75 238,472.3 240.35,473.1 242.65,470.95 243.8,469.85 246.1,466.45 247.45,464.55 248.05,463.85 249.25,462.6 250.7,462.4 253.95,461.9 258.55,458.55 263.5,455 266.1,454.25 266.55,454.15 267,453.05 268.65,449.6 269.35,447.85 270.6,444.8 270.8,442.3 271,439.65 272.9,438.6 274.8,437.5 277.25,438.65 279.4,439.65 281.8,438.25 283.65,437.1 288.9,434.75 293.45,432.75 295.9,430.9 298.9,428.55 300.55,427.4 303.35,425.45 305.95,424.7 307.4,424.3 308.85,423.3 310.55,422.25 311.4,420.9 314.3,416.4 314.45,416.1 315.9,413.2 315.4,410.55 315.1,409.1 316.35,405.75 317.45,402.8 316.45,400.95 314.75,397.65 317.7,395.45 319,394.4 319.05,393.2 319.15,392.1 318.25,390.6 315.15,385.6 315.95,379.5 316.7,374.65 315.2,368.35 313.1,361.3 312.25,357.75 311.25,353.4 310.9,352.05 309.85,348.9 308.45,347.55 306.65,346 303.7,341.5 301,337.4 298.65,335.75 296.9,334.55 294.3,332.1 291.2,329.15 290,328.2 286.4,325.35 284.6,323.75 281.6,321.1 279.6,318.65 277.45,315.8 276.3,314.3 274.3,311.8 272.4,310.4 265.55,305.45 266.05,298.7 266.2,297.1 264.65,295.95 256.9,290.15 252.35,282.1 251.45,280.45 251.3,279.35 251.1,278.05 251.9,276.65 253.85,273.2 254.1,268 254.35,262.25 259.35,259.75 266.35,256.3 267.1,252.5 267.65,249.85 269.8,246.9 272.9,242.55 273.2,242.05 274.05,240.3 275.95,240.05 279.55,239.7 281.55,238.55 284.1,237.2 285.9,234.05 287.25,231.8 290.85,230.15 294.05,228.7 297.65,228.25 300.45,227.85 301.55,226.85L301.4,226.7Q300.45,227.1 299.1,226.9 296.35,226.55 294.2,223.8 292.35,221.4 289.65,222.95 286.05,225 283.75,224.4 281.1,223.8 279.7,220.8 277.85,216.9 274.6,214.65 270.45,211.7 270.3,208.7 271.05,204.9 271.35,202.25 271.8,198.75 269.5,198.25 264.85,198.05 260.25,197.7 254.75,197.3 252.4,195.25 252.35,195.2 250.7,193.5 249.7,192.4 248.5,191.8"/></g><g id="Scene 1_5.0"><path fill="#DDF9FF" d="M156.5,-96.1Q155.3,-97.75 152.95,-98.5 150.25,-99.2 148.95,-99.65 147.5,-99.6 144.9,-96.05 142.25,-92.45 143.1,-91.7 144.15,-90.75 146.05,-88.15 147.9,-86.15 150.4,-86.65 152.8,-87.1 154.45,-86.85 156.5,-86.65 158.25,-85.2 159.15,-84.45 160.2,-84.55 161.4,-84.7 161.95,-86 162.75,-87.85 162.85,-88.95 163.05,-90.65 161.8,-91 159.9,-91.5 158.55,-93.15 157.3,-95.15 156.5,-96.1"/></g><g id="Scene 1_4.0"><path fill="#DDF9FF" d="M104.1,-47.4Q103.9,-46.4 104.45,-45.75 105,-45.05 106.05,-45.05 109,-45.15 109,-47 109,-49.5 106.85,-50.95 104.7,-49.95 104.1,-47.4"/></g><g id="Scene 1_3.0"><path fill="#DDF9FF" d="M105.3,-128.85Q104.45,-129.6 103.25,-129.45 102.25,-129.3 101.65,-128.75 100.95,-128.15 101.1,-127.15 101.45,-125.1 104.5,-125.3 106.5,-125.4 106.65,-127.2 105.9,-128.35 105.3,-128.85"/></g><g id="Scene 1_2.0"><path fill="#DDF9FF" d="M99.65,-48.9Q98.35,-48.95 97.8,-49.2 96.6,-49.05 96.05,-48.95 94.95,-48.8 94.95,-47.85 94.95,-46.1 98,-45.75 99.1,-45.65 99.95,-46.2 100.85,-46.8 100.8,-47.85 100.75,-48.75 99.65,-48.9"/></g><g id="Scene 1_1.0"><path fill="#9BDBF4" d="M408.9,211.2Q408.85,210.15 409.15,209.8 409.45,209.35 410.4,209.75 412.05,210.45 412.5,209.75 412.8,209.25 412.55,207.7 412.3,205.85 413.5,205.4 413.5,204.35 413.1,203.05 412.2,200.4 410.05,199.05 407.9,197.7 404.5,199.55 402.65,200.55 399.6,202.8 397.95,203.85 398.1,205.8 398.2,206.75 398.6,207.55L398.6,207.7 399.55,208.3Q401.65,209.7 401.45,211.7 401.3,212.85 400.45,215.15 401.4,215.65 402.7,214.9 404,214.15 404.8,214.55 409.2,216.55 408.9,211.2"/></g><defs/></svg>