<?xml version="1.0" encoding="utf-8"?><svg xmlns:xlink="http://www.w3.org/1999/xlink" id="Scene_1" image-rendering="auto" baseProfile="basic" version="1.1" x="0px" y="0px" width="150" height="50" viewBox="0 0 150 50" xmlns="http://www.w3.org/2000/svg"><g id="Scene 1_0.0"><path fill="url(#linearGradient)" d="M126.85,18.25L123.75,18.4 123.75,32.75 126.85,32.75 126.85,18.25"/><path fill="url(#linearGradient)" d="M125.3,16.4Q127.15,16.4 127.15,14.95 127.15,13.5 125.3,13.5 123.5,13.5 123.5,14.95 123.5,16.4 125.3,16.4"/><path fill="url(#linearGradient)" d="M140,18.75Q138.55,18.1 136.5,18.1 130.1,18.1 130.1,25.5 130.1,33.05 136.45,33.05 138.75,33.05 140.15,32.15L139.9,29.7Q138.75,30.4 137.1,30.4 135.15,30.4 134.25,29.3 133.25,28.1 133.25,25.5 133.25,22.95 134.1,21.95 135,20.9 137.15,20.9 138.6,20.9 139.8,21.45L140,18.75"/><path fill="url(#linearGradient)" d="M116.65,19.5Q115.2,18.05 112.85,18.05 107.35,18.05 107.35,25.5 107.35,29.35 108.7,31.2 110.05,33.05 112.9,33.05 115.55,33.05 116.95,31.35L117,31.4 117.35,32.75 119.7,32.75 119.7,13.8 116.65,13.95 116.7,19.45 116.65,19.5 M113.75,20.85Q115.8,20.85 116.65,22.15L116.65,29.05Q115.95,30.5 113.75,30.5 111.9,30.5 111.2,29.45 110.5,28.4 110.5,25.6 110.5,23 111.25,21.9 112,20.85 113.75,20.85"/><path fill="url(#linearGradient)" d="M90.85,23.35Q90.85,20.75 89.55,19.35 88.25,18.05 86.1,18.05 83.3,18.05 82,20.15 80.9,18.05 78.15,18.05 75.95,18.05 74.45,19.7L73.9,18.25 71.7,18.4 71.7,32.75 74.75,32.75 74.75,22.15Q75.55,20.85 77.35,20.85 79.8,20.85 79.8,23.2L79.8,32.75 82.85,32.75 82.85,23.2Q82.85,22.05 83.55,21.45 84.2,20.85 85.25,20.85 87.8,20.85 87.8,23.35L87.8,32.75 90.85,32.75 90.85,23.35"/><path fill="url(#linearGradient)" d="M95.05,31.1Q96.75,33 100.35,33 103,33 105,32.05L104.6,29.5Q102.85,30.3 100.75,30.3 98.6,30.3 97.65,29.4 96.65,28.45 96.55,26.25L105.35,26.25 105.4,24.75Q105.4,21.4 103.85,19.7 102.35,18.05 99.6,18.05 93.4,18.05 93.4,25.25 93.4,29.2 95.05,31.1 M99.6,20.65Q102.55,20.65 102.6,24.15L96.5,24.15Q96.6,22.3 97.3,21.5 98.05,20.65 99.6,20.65"/><path fill="url(#linearGradient)" d="M68.5,18.9Q66.65,18.05 64.5,18.05 61.95,18.05 60.55,19.25 59.25,20.4 59.25,22.35 59.25,25.15 62.75,26.35 66.25,27.55 66.25,28.65 66.25,30.5 63.75,30.5 61.35,30.5 59.65,29.35L59.3,31.95Q61.05,33.05 63.75,33.05 69.1,33.05 69.1,28.35 69.1,25.55 65.65,24.35 62.15,23.15 62.15,22.2 62.15,20.7 64.45,20.7 66.45,20.7 68.25,21.45L68.5,18.9"/><path fill="url(#linearGradient)" d="M50.75,20.85Q53.5,20.85 53.5,23.4L53.5,32.75 56.55,32.75 56.55,23.4Q56.55,20.8 55.2,19.4 53.9,18.05 51.6,18.05 49.2,18.05 47.5,19.6L47,18.2 44.85,18.4 44.85,32.75 47.9,32.75 47.9,22.15Q48.8,20.85 50.75,20.85"/><path fill="url(#linearGradient)" d="M41.55,32.75L41.55,23.65Q41.55,20.7 40.3,19.4 39.05,18.05 36.05,18.05 33.3,18.05 31.25,19L31.5,21.5Q33.45,20.7 35.5,20.7 37.15,20.7 37.85,21.3 38.55,21.85 38.55,23.2L38.55,24.3Q37.35,23.85 35.55,23.85 33.05,23.85 31.7,25.05 30.35,26.25 30.35,28.3 30.35,30.65 31.6,31.85 32.75,33 34.85,33 37.5,33 38.9,31.2L39,31.2 39.25,32.75 41.55,32.75 M37.7,29.9Q36.8,30.55 35.65,30.55 33.25,30.55 33.25,28.25 33.25,26 36.1,26 37.6,26 38.55,26.4L38.55,28.5Q38.55,29.3 37.7,29.9"/><path fill="url(#linearGradient)" d="M27.35,21.15Q28.1,21.15 28.85,21.4L29.05,18.3Q28.6,18.1 27.55,18.1 24.8,18.1 23.4,20.95L23.35,20.95 23.05,18.25 20.6,18.4 20.6,32.75 23.65,32.75 23.65,25.5Q23.65,23.5 24.7,22.3 25.75,21.15 27.35,21.15"/><path fill="url(#linearGradient)" d="M10,18.3L10,20.65 11.8,20.65 11.8,28.75Q11.8,33 15.85,33 17.3,33 18.1,32.6L17.9,30.35Q17.55,30.5 16.75,30.5 14.85,30.5 14.85,28.7L14.85,20.65 18.2,20.65 18.2,18.3 14.85,18.3 14.85,14.7 12.45,14.95 11.9,18.3 10,18.3"/></g><defs><linearGradient gradientUnits="userSpaceOnUse" color-interpolation="sRGB" x1="11.987499999999997" y1="23.3" x2="131.0125" y2="23.3" id="linearGradient"><stop stop-color="#0E4F91" stop-opacity="1" offset="0.06667"/><stop stop-color="#0E5698" stop-opacity="1" offset="0.16863"/><stop stop-color="#0F67A9" stop-opacity="1" offset="0.29412"/><stop stop-color="#04A6E2" stop-opacity="1" offset="0.47843"/><stop stop-color="#27BDF3" stop-opacity="1" offset="0.75686"/><stop stop-color="#41CFFF" stop-opacity="1" offset="1"/></linearGradient></defs></svg>