<?xml version="1.0" encoding="utf-8"?><svg xmlns:xlink="http://www.w3.org/1999/xlink" id="Scene_1" image-rendering="auto" baseProfile="basic" version="1.1" x="0px" y="0px" width="235" height="110" viewBox="0 0 235 110" xmlns="http://www.w3.org/2000/svg"><g id="Scene 1_31.0"><path fill="#037A97" d="M186.35,93.6Q184.4,93.6 183.25,94.95 181.85,96.55 181.85,98.95 181.85,99.95 182.25,100.7 182.65,101.45 183.5,101.85 184.35,102.3 185.25,102.3 186.4,102.3 187.5,101.6 188.6,100.95 189.1,99.8 189.7,98.55 189.7,97.1 189.7,95.55 188.75,94.55 187.85,93.6 186.35,93.6 M186.35,94.7Q187.15,94.7 187.75,95.35 188.35,95.95 188.35,97.1 188.35,97.8 188.1,98.55 187.95,99.1 187.65,99.6 187.35,100.05 187,100.45 186.6,100.85 186.15,101.05 185.65,101.2 185.25,101.2 184.4,101.2 183.85,100.6 183.25,99.95 183.25,98.8 183.25,98.1 183.5,97.35 183.75,96.55 184.15,95.95 184.5,95.35 185.1,95.05 185.65,94.7 186.35,94.7"/></g><g id="Scene 1_30.0"><path fill="#037A97" d="M194,90.7L192.6,90.7 190.25,102.1 191.6,102.1 194,90.7"/></g><g id="Scene 1_29.0"><path fill="#037A97" d="M195.45,94.95Q194,96.55 194,98.95 194,99.95 194.45,100.7 194.75,101.45 195.6,101.85 196.45,102.3 197.35,102.3 198.55,102.3 199.6,101.6 200.7,100.95 201.3,99.8 201.85,98.55 201.85,97.1 201.85,95.55 200.95,94.55 200.05,93.6 198.55,93.6 196.6,93.6 195.45,94.95 M195.6,97.35Q195.75,96.6 196.25,95.95 196.7,95.35 197.2,95.05 197.75,94.7 198.45,94.7 199.3,94.7 199.85,95.35 200.45,95.95 200.45,97.1 200.45,97.8 200.2,98.55 200.05,99.1 199.8,99.6 199.45,100.1 199.1,100.45 198.7,100.85 198.3,101.05 197.75,101.2 197.35,101.2 196.5,101.2 195.95,100.6 195.45,100.05 195.45,98.8 195.45,98.1 195.6,97.35"/></g><g id="Scene 1_28.0"><path fill="#037A97" d="M175.9,93.85L174.65,93.85 172.9,102.1 174.3,102.1 175.05,98.3Q175.5,96.35 176.3,95.6 177.15,94.8 178.25,94.8 178.85,94.8 179.1,95.05 179.4,95.3 179.4,95.7 179.4,96.05 179.25,96.85L178.15,102.1 179.5,102.1 180.6,97.1Q180.75,96.1 180.75,95.6 180.75,94.7 180.25,94.2 179.6,93.6 178.65,93.6 177.85,93.6 177.15,94.05 176.4,94.45 175.55,95.3L175.9,93.85"/></g><g id="Scene 1_27.0"><path fill="#037A97" d="M166.3,98.55Q166.65,97.05 167.05,96.3 167.4,95.6 168.15,95.2 168.8,94.8 169.55,94.8 170.15,94.8 170.4,95.05 170.65,95.3 170.65,95.7 170.65,95.95 170.4,97.1L169.4,102.1 170.8,102.1 171.8,97.2Q172.05,96.05 172.05,95.6 172.05,94.7 171.5,94.2 171,93.6 169.9,93.6 169.25,93.6 168.5,93.95 167.8,94.3 167.05,95.05L168,90.7 166.55,90.7 164.15,102.1 165.55,102.1 166.3,98.55"/></g><g id="Scene 1_26.0"><path fill="#037A97" d="M203.35,95.95Q202.7,97.2 202.7,98.55 202.7,100.2 203.55,101.2 204.35,102.1 205.7,102.1 206.95,102.1 208.05,100.95L207.85,101.6Q207.55,103.1 207.2,103.6 206.6,104.3 205.35,104.3 204.7,104.3 204.35,104.05 204.05,103.95 203.95,103.7 203.8,103.45 203.8,102.95L202.35,102.85 202.35,103.3Q202.35,103.95 202.7,104.4 203.05,104.9 203.8,105.15 204.45,105.45 205.55,105.45 206.55,105.45 207.3,105.05 208.1,104.65 208.55,103.9 209.05,103.1 209.3,101.8L210.95,93.85 209.65,93.85 209.4,95.2Q208.55,93.6 206.85,93.6 205.85,93.6 204.95,94.2 204.05,94.85 203.35,95.95 M204.35,97.3Q204.55,96.55 204.95,95.85 205.45,95.3 205.85,95.05 206.35,94.8 206.85,94.8 207.8,94.8 208.3,95.35 208.9,95.95 208.9,97.05 208.9,97.95 208.45,98.95 208.05,99.95 207.3,100.45 206.6,100.95 205.95,100.95 205.35,100.95 204.95,100.6 204.55,100.3 204.3,99.7 204.1,99.3 204.1,98.45 204.1,98.05 204.35,97.3"/></g><g id="Scene 1_25.0"><path fill="#037A97" d="M150.1,94.3Q149.1,94.85 148.55,96.1 147.85,97.45 147.85,98.8 147.85,99.8 148.3,100.6 148.7,101.45 149.45,101.85 150.2,102.3 151.1,102.3 152.6,102.3 153.7,101.35 154.8,100.45 155.05,99.45L153.7,99.3Q153.3,100.2 152.55,100.6 151.85,101.1 151.1,101.1 150.35,101.1 149.85,100.55 149.3,99.95 149.3,98.8L149.35,98.3 155.45,98.3Q155.55,97.7 155.55,97.05 155.55,95.45 154.6,94.55 153.8,93.6 152.3,93.6 151.1,93.6 150.1,94.3 M150.7,95.35Q151.45,94.7 152.35,94.7 153.1,94.7 153.7,95.3 154.2,95.85 154.2,96.95L154.2,97.2 149.55,97.2Q149.95,95.95 150.7,95.35"/></g><g id="Scene 1_24.0"><path fill="#037A97" d="M162.15,95.3Q162.55,95.7 162.55,96.45L163.95,96.35Q163.95,95.2 163.15,94.35 162.4,93.6 161.05,93.6 159.7,93.6 158.8,94.3 157.7,94.95 157.2,96.3 156.7,97.6 156.7,98.95 156.7,100.55 157.55,101.45 158.4,102.3 159.7,102.3 160.95,102.3 161.95,101.55 162.9,100.8 163.45,99.2L162.05,99.1Q161.7,100.1 161.05,100.7 160.4,101.2 159.7,101.2 159.05,101.2 158.55,100.7 158.15,100.1 158.15,99.1 158.15,98.1 158.45,96.95 158.8,95.85 159.45,95.35 160.05,94.8 160.9,94.8 161.65,94.8 162.15,95.3"/></g><g id="Scene 1_23.0"><path fill="#037A97" d="M146.2,91.95L149.95,91.95 150.2,90.7 141.2,90.7 140.95,91.95 144.7,91.95 142.5,102.1 144.1,102.1 146.2,91.95"/></g><g id="Scene 1_22.0"><path fill="#037A97" d="M227.55,93.6Q226.15,93.6 225.4,94.35 224.65,95.05 224.65,96.05 224.65,96.6 224.9,97.05 225.15,97.45 225.65,97.8 226,97.95 227.05,98.45 228.25,98.95 228.5,99.3 228.85,99.55 228.85,99.95 228.85,100.45 228.3,100.85 227.8,101.2 226.9,101.2 226.25,101.2 225.75,100.95 225.25,100.6 225.05,100.2 224.9,99.8 224.9,99.2L223.5,99.3Q223.4,100.85 224.4,101.6 225.4,102.3 226.8,102.3 227.9,102.3 228.65,101.95 229.4,101.6 229.85,100.95 230.25,100.35 230.25,99.8 230.25,98.85 229.6,98.2 229.1,97.8 227.5,97.1 226.5,96.6 226.3,96.45 225.9,96.2 225.9,95.8 225.9,95.35 226.3,95.05 226.75,94.7 227.5,94.7 228.4,94.7 228.9,95.2 229.4,95.6 229.4,96.35L230.85,96.3Q230.75,95.1 230,94.35 229.15,93.6 227.55,93.6"/></g><g id="Scene 1_21.0"><path fill="#037A97" d="M217.15,94.3Q216.15,94.85 215.55,96.1 214.9,97.35 214.9,98.8 214.9,99.8 215.3,100.6 215.65,101.45 216.45,101.85 217.2,102.3 218.15,102.3 219.65,102.3 220.65,101.35 221.8,100.45 222.05,99.45L220.65,99.3Q220.3,100.2 219.55,100.6 218.9,101.1 218.15,101.1 217.4,101.1 216.8,100.55 216.3,99.85 216.3,98.8L216.3,98.3 222.5,98.3Q222.55,97.55 222.55,97.05 222.55,95.45 221.65,94.55 220.8,93.6 219.3,93.6 218.15,93.6 217.15,94.3 M220.75,95.3Q221.25,95.85 221.25,96.95L221.25,97.2 216.55,97.2Q216.95,95.95 217.7,95.35 218.4,94.7 219.3,94.7 220.15,94.7 220.75,95.3"/></g><g id="Scene 1_20.0"><path fill="#037A97" d="M213.55,90.7L213.2,92.25 214.65,92.25 214.95,90.7 213.55,90.7"/></g><g id="Scene 1_19.0"><path fill="#037A97" d="M214.3,93.85L212.9,93.85 211.15,102.1 212.55,102.1 214.3,93.85"/></g><g id="Scene 1_18.0"><path fill="#037A97" d="M58.05,92.25L59.45,92.25 59.8,90.7 58.4,90.7 58.05,92.25"/></g><g id="Scene 1_17.0"><path fill="#037A97" d="M49.1,96.3Q48.6,97.7 48.6,98.95 48.6,100.55 49.45,101.45 50.3,102.3 51.6,102.3 52.85,102.3 53.85,101.55 54.8,100.8 55.35,99.2L53.95,99.1Q53.55,100.2 52.95,100.7 52.3,101.2 51.6,101.2 50.95,101.2 50.45,100.7 50.05,100.1 50.05,99.1 50.05,98.05 50.35,96.95 50.8,95.85 51.35,95.35 51.95,94.8 52.8,94.8 53.6,94.8 53.95,95.3 54.45,95.7 54.45,96.45L55.9,96.35Q55.9,95.1 55.05,94.35 54.3,93.6 52.95,93.6 51.6,93.6 50.7,94.3 49.7,94.95 49.1,96.3"/></g><g id="Scene 1_16.0"><path fill="#037A97" d="M64.8,94.8Q65.4,94.8 65.65,95.05 66,95.3 66,95.7 66,96.1 65.8,96.85L64.65,102.1 66.05,102.1 67.15,97.1Q67.4,96.05 67.4,95.6 67.4,94.7 66.8,94.2 66.25,93.6 65.2,93.6 64.45,93.6 63.7,94.05 62.95,94.45 62.15,95.3L62.45,93.85 61.15,93.85 59.45,102.1 60.9,102.1 61.65,98.3Q62.05,96.35 62.9,95.6 63.7,94.8 64.8,94.8"/></g><g id="Scene 1_15.0"><path fill="#037A97" d="M59.15,93.85L57.7,93.85 55.95,102.1 57.4,102.1 59.15,93.85"/></g><g id="Scene 1_14.0"><path fill="#037A97" d="M31.75,96.2L33.15,96.3Q33.4,95.6 34,95.2 34.6,94.8 35.45,94.8 36.45,94.8 36.85,95.2 37.25,95.45 37.25,95.95 37.25,96.3 37.1,96.95 36.5,97.1 35.15,97.2 33.75,97.3 33.35,97.35 32.6,97.55 32.1,97.8 31.5,98.1 31.25,98.7 30.9,99.2 30.9,99.85 30.9,100.95 31.6,101.6 32.35,102.3 33.5,102.3 34.25,102.3 34.9,101.95 35.7,101.7 36.35,101.05 36.35,101.6 36.5,102.1L37.95,102.1Q37.75,101.3 37.75,100.95 37.75,100.35 38,99.35L38.45,97.35Q38.6,96.45 38.6,95.8 38.6,94.85 37.95,94.35 37.1,93.6 35.5,93.6 34.1,93.6 33.1,94.3 32.15,94.95 31.75,96.2 M35.1,98.2L36.25,98.1Q36.6,98.05 36.85,97.85 36.7,99.1 36.25,99.8 35.95,100.45 35.25,100.85 34.6,101.2 33.9,101.2 33.15,101.2 32.75,100.8 32.35,100.45 32.35,99.85 32.35,99.35 32.6,99.05 32.85,98.7 33.35,98.45 33.85,98.35 35.1,98.2"/></g><g id="Scene 1_13.0"><path fill="#037A97" d="M45.2,93.6Q44.45,93.6 43.75,94.05 43,94.45 42.2,95.3L42.5,93.85 41.2,93.85 39.5,102.1 40.95,102.1 41.7,98.3Q42.1,96.35 42.95,95.6 43.75,94.8 44.85,94.8 45.45,94.8 45.7,95.05 45.95,95.3 45.95,95.7 45.95,96.1 45.85,96.85L44.7,102.1 46.1,102.1 47.2,97.1Q47.35,96.05 47.35,95.6 47.35,94.7 46.85,94.2 46.2,93.6 45.2,93.6"/></g><g id="Scene 1_12.0"><path fill="#037A97" d="M18.55,93.6Q17.65,93.6 16.65,94.3 15.75,94.85 15.15,96.1 14.45,97.35 14.45,98.85 14.45,100.55 15.3,101.45 16.05,102.3 17.25,102.3 18.55,102.3 19.75,100.85L19.5,102.1 20.8,102.1 23.25,90.7 21.8,90.7 20.9,95.1Q20.05,93.6 18.55,93.6 M18.65,94.8Q19.4,94.8 19.9,95.35 20.5,95.95 20.5,96.85 20.5,98.85 19.4,100.2 18.65,101.2 17.65,101.2 17.05,101.2 16.65,100.85 16.25,100.55 16.05,100.05 15.9,99.45 15.9,98.6 15.9,98.05 16.25,97.2 16.5,96.35 16.9,95.8 17.25,95.3 17.75,95.05 18.15,94.8 18.65,94.8"/></g><g id="Scene 1_11.0"><path fill="#037A97" d="M25.75,98.35L25,93.85 23.65,93.85 25,102.1 26.6,102.1 31.35,93.85 29.85,93.85 27.1,98.8Q26.4,99.95 26,100.85 25.85,99.1 25.75,98.35"/></g><g id="Scene 1_10.0"><path fill="#037A97" d="M6.4,98.8L10.95,98.8 11.55,102.1 13.05,102.1 11.15,90.7 9.3,90.7 2.85,102.1 4.55,102.1 6.4,98.8 M7.05,97.6L8.9,94.3Q9.65,92.85 10.05,91.95 10.15,93.25 10.3,94.8L10.8,97.6 7.05,97.6"/></g><g id="Scene 1_9.0"><path fill="#037A97" d="M120,93.6Q118.65,93.6 117.65,94.3 116.65,94.95 116.05,96.3 115.55,97.6 115.55,98.95 115.55,100.55 116.4,101.45 117.25,102.3 118.55,102.3 119.8,102.3 120.8,101.55 121.8,100.8 122.3,99.2L120.9,99.1Q120.55,100.1 120,100.7 119.3,101.2 118.65,101.2 117.9,101.2 117.5,100.7 117,100.1 117,99.1 117,98.1 117.4,96.95 117.75,95.85 118.3,95.35 118.9,94.8 119.8,94.8 120.55,94.8 121,95.3 121.4,95.7 121.4,96.45L122.8,96.35Q122.8,95.2 122.05,94.35 121.25,93.6 120,93.6"/></g><g id="Scene 1_8.0"><path fill="#037A97" d="M125.4,94.3Q124.5,94.95 124,96.2L125.4,96.3Q125.65,95.6 126.25,95.2 126.85,94.8 127.75,94.8 128.65,94.8 129.15,95.2 129.5,95.45 129.5,95.95 129.5,96.35 129.35,96.95 128.75,97.1 127.4,97.2 126.05,97.3 125.65,97.35 124.8,97.45 124.3,97.8 123.8,98.1 123.5,98.7 123.25,99.1 123.25,99.85 123.25,100.95 123.9,101.6 124.55,102.3 125.75,102.3 126.55,102.3 127.25,101.95 127.9,101.7 128.65,101.05 128.65,101.7 128.75,102.1L130.25,102.1Q130.1,101.45 130.1,100.95 130.1,100.3 130.25,99.35L130.75,97.35Q130.9,96.45 130.9,95.8 130.9,94.95 130.25,94.35 129.35,93.6 127.85,93.6 126.3,93.6 125.4,94.3 M128.5,98.1Q128.85,98.05 129.15,97.85 128.9,99.1 128.6,99.8 128.15,100.45 127.6,100.85 126.9,101.2 126.15,101.2 125.4,101.2 125,100.8 124.55,100.45 124.55,99.85 124.55,99.35 124.9,99.05 125.15,98.6 125.65,98.45 126.05,98.35 127.4,98.2L128.5,98.1"/></g><g id="Scene 1_7.0"><path fill="#037A97" d="M105.55,94.3Q104.6,94.85 104.05,96.1 103.35,97.35 103.35,98.85 103.35,100.55 104.2,101.45 104.95,102.3 106.1,102.3 107.45,102.3 108.7,100.85L108.4,102.1 109.7,102.1 112.15,90.7 110.7,90.7 109.8,95.1Q108.95,93.6 107.45,93.6 106.55,93.6 105.55,94.3 M105.8,95.8Q106.2,95.3 106.65,95.05 107.05,94.8 107.55,94.8 108.3,94.8 108.8,95.35 109.3,95.85 109.3,96.85 109.3,98.85 108.3,100.2 107.55,101.2 106.55,101.2 105.95,101.2 105.55,100.85 105.1,100.55 104.95,100.05 104.8,99.55 104.8,98.6 104.8,98.05 105.05,97.2 105.35,96.35 105.8,95.8"/></g><g id="Scene 1_6.0"><path fill="#037A97" d="M96,98.8L96.1,98.3 102.2,98.3Q102.3,97.7 102.3,97.05 102.3,95.45 101.45,94.55 100.55,93.6 99.05,93.6 97.85,93.6 96.85,94.3 95.95,94.85 95.25,96.1 94.6,97.45 94.6,98.8 94.6,99.8 95,100.6 95.45,101.45 96.2,101.85 97.05,102.3 97.95,102.3 99.35,102.3 100.45,101.35 101.55,100.45 101.8,99.45L100.45,99.3Q100.05,100.2 99.35,100.6 98.6,101.1 97.95,101.1 97.1,101.1 96.6,100.55 96,99.85 96,98.8 M100.95,97.2L96.35,97.2Q96.7,95.95 97.45,95.35 98.2,94.7 99.1,94.7 99.95,94.7 100.45,95.3 100.95,95.85 100.95,96.95L100.95,97.2"/></g><g id="Scene 1_5.0"><path fill="#037A97" d="M114.15,90.7L113.8,92.25 115.2,92.25 115.55,90.7 114.15,90.7"/></g><g id="Scene 1_4.0"><path fill="#037A97" d="M114.9,93.85L113.45,93.85 111.7,102.1 113.15,102.1 114.9,93.85"/></g><g id="Scene 1_3.0"><path fill="#037A97" d="M135.5,90.7L134.1,90.7 131.65,102.1 133.1,102.1 135.5,90.7"/></g><g id="Scene 1_2.0"><path fill="#037A97" d="M85.6,90.7L83.75,90.7 81.35,102.1 82.85,102.1 84.35,94.8Q84.6,93.95 84.75,92.45 84.85,93.7 85,94.8L86.1,102.1 87.6,102.1 91.85,94.6Q92.7,93.2 93.1,92.2 92.25,94.7 91.95,96.55L90.7,102.1 92.2,102.1 94.6,90.7 92.7,90.7 88.7,97.8Q87.5,99.8 87.1,100.85 87,99.8 86.75,98.05L85.6,90.7"/></g><g id="Scene 1_1.0"><path fill="#037A97" d="M70.65,94.2Q69.8,94.85 69.05,95.95 68.4,97.2 68.4,98.55 68.4,100.2 69.25,101.2 70.15,102.1 71.4,102.1 72.65,102.1 73.75,100.95L73.55,101.6Q73.25,103.1 72.9,103.6 72.3,104.3 71.05,104.3 70.4,104.3 70.05,104.05 69.8,103.95 69.65,103.7 69.5,103.45 69.5,102.95L68.05,102.85 68.05,103.3Q68.05,103.95 68.4,104.4 68.8,104.9 69.5,105.15 70.25,105.45 71.25,105.45 72.25,105.45 73.05,105.05 73.8,104.65 74.25,103.9 74.75,103.1 75,101.8L76.65,93.85 75.4,93.85 75.05,95.2Q74.25,93.6 72.55,93.6 71.65,93.6 70.65,94.2 M70.05,97.3Q70.3,96.45 70.75,95.85 71.15,95.35 71.65,95.05 72.05,94.8 72.55,94.8 73.5,94.8 74,95.35 74.55,95.95 74.55,97.05 74.55,97.95 74.15,98.95 73.75,99.95 73.05,100.45 72.3,100.95 71.65,100.95 71.05,100.95 70.65,100.6 70.25,100.3 70,99.7 69.9,99.2 69.9,98.45 69.9,98.05 70.05,97.3"/></g><g id="Scene 1_0.0"><path fill="#DE2E27" d="M201.85,71.8Q200.05,69.8 197.6,69.8 194.85,69.8 193.1,71.75 191.35,73.75 191.35,77.5 191.35,81.15 193.2,83.25 195,85.25 197.5,85.25 198.7,85.25 200.05,84.7 201.3,84 202.2,82.75L202.2,84.95 205.8,84.95 205.8,64.5 201.85,64.5 201.85,71.8 M198.6,72.75Q200.05,72.75 200.95,73.9 201.85,75 201.85,77.6 201.85,79.85 200.95,81 200.05,82.15 198.6,82.15 196.95,82.15 196,80.65 195.35,79.6 195.35,77.25 195.35,75 196.25,73.9 197.2,72.75 198.6,72.75"/><path fill="#DE2E27" d="M187.4,72Q185.6,69.8 182.25,69.8 179.25,69.8 177.3,71.9 175.4,74 175.4,77.65 175.4,80.75 176.9,82.75 178.75,85.25 182.65,85.25 185.1,85.25 186.65,84.2 188.35,83 189.1,80.85L185.15,80.25Q184.85,81.35 184.25,81.85 183.6,82.35 182.65,82.35 181.35,82.35 180.4,81.4 179.5,80.4 179.5,78.65L189.25,78.65Q189.35,74.15 187.4,72 M184.5,73.65Q185.35,74.6 185.4,76.25L179.5,76.25Q179.5,74.65 180.35,73.75 181.15,72.75 182.5,72.75 183.65,72.75 184.5,73.65"/><path fill="#DE2E27" d="M170.8,70.4Q169.75,69.8 168.05,69.8 166.8,69.8 165.65,70.3 164.55,71 163.55,72.15 162.9,71 161.9,70.3 160.8,69.8 159.4,69.8 156.7,69.8 154.8,72.15L154.8,70.15 151.1,70.15 151.1,84.95 155.05,84.95 155.05,77.75Q155.05,75.65 155.35,74.65 155.7,73.75 156.35,73.25 157.1,72.75 158.05,72.75 158.8,72.75 159.2,73.05 159.7,73.4 159.9,74 160.15,74.65 160.15,76.85L160.15,84.95 164.05,84.95 164.05,77.85Q164.05,75.65 164.4,74.75 164.65,73.75 165.4,73.35 166.15,72.75 166.95,72.75 168.05,72.75 168.65,73.65 169.05,74.25 169.05,76.5L169.05,84.95 173,84.95 173,75.5Q173,73.35 172.55,72.4 172,71.05 170.8,70.4"/><path fill="#DE2E27" d="M227.65,70.9Q226.05,69.8 223.4,69.8 220.05,69.8 218.15,71.8 216.2,73.85 216.2,77.6 216.2,81.15 218.15,83.25 220.05,85.25 223.3,85.25 226.15,85.25 227.9,83.95 229.6,82.6 230.15,79.9L226.3,79.25Q226.05,80.75 225.3,81.4 224.65,82.1 223.5,82.1 222,82.1 221.15,81 220.25,79.9 220.25,77.25 220.25,74.85 221.15,73.9 222,72.8 223.4,72.8 224.5,72.8 225.25,73.4 225.9,74.1 226.15,75.15L230,74.5Q229.35,72.15 227.65,70.9"/><path fill="#DE2E27" d="M213.3,64.5L209.4,64.5 209.4,68.05 213.3,68.05 213.3,64.5"/><path fill="#DE2E27" d="M213.3,70.15L209.4,70.15 209.4,84.95 213.3,84.95 213.3,70.15"/><path fill="#DE2E27" d="M108.8,69.8Q105.85,69.8 104.45,70.8 102.95,71.8 102.35,74L105.85,74.65Q106.3,73.6 106.9,73.15 107.45,72.75 108.45,72.75 110.05,72.75 110.65,73.25 111.15,73.75 111.15,74.9L111.15,75.25Q110.15,75.75 107.4,76.25 105.3,76.6 104.2,77.15 103.1,77.65 102.55,78.65 101.95,79.65 101.95,80.9 101.95,82.85 103.3,84 104.6,85.25 106.9,85.25 108.15,85.25 109.3,84.75 110.45,84.25 111.45,83.35L111.65,83.75Q111.8,84.45 111.95,84.95L115.9,84.95Q115.4,83.95 115.15,82.9 114.95,82 114.95,80.1L115.05,75.5Q115.05,72.9 114.45,72 113.95,71 112.7,70.4 111.4,69.8 108.8,69.8 M111.15,78.6Q111.15,80 111.05,80.5 110.8,81.25 110.05,81.85 109.15,82.5 108.05,82.5 107.15,82.5 106.45,81.9 105.85,81.35 105.85,80.5 105.85,79.65 106.65,79.1 107.15,78.75 108.8,78.4 110.3,78.1 111.15,77.85L111.15,78.6"/><path fill="#DE2E27" d="M85.25,67.9L91.35,67.9 91.35,64.5 75.05,64.5 75.05,67.9 81.15,67.9 81.15,84.95 85.25,84.95 85.25,67.9"/><path fill="#DE2E27" d="M95.6,70.15L91.95,70.15 91.95,84.95 95.85,84.95 95.85,80.35Q95.85,76.6 96.2,75.4 96.55,74.15 97.1,73.75 97.7,73.35 98.55,73.35 99.35,73.35 100.35,73.9L101.6,70.5Q100.35,69.8 99.05,69.8 98.1,69.8 97.3,70.25 96.6,70.75 95.6,72.25L95.6,70.15"/><path fill="#DE2E27" d="M118.55,70.15L118.55,84.95 122.5,84.95 122.5,78.25Q122.5,75.75 122.8,74.85 123.05,73.9 123.9,73.35 124.75,72.75 125.75,72.75 126.55,72.75 127.1,73.15 127.65,73.6 127.9,74.25 128.15,75 128.15,77.35L128.15,84.95 132.1,84.95 132.1,75.75Q132.1,74.1 131.9,73.05 131.65,72.15 131.1,71.4 130.6,70.75 129.5,70.25 128.4,69.8 127.1,69.8 124.15,69.8 122.25,72.3L122.25,70.15 118.55,70.15"/><path fill="#DE2E27" d="M147.8,73.75Q147.2,71.75 145.7,70.75 144.25,69.8 141.2,69.8 138,69.8 136.5,71.05 134.9,72.4 134.9,74.35 134.9,76.5 136.75,77.65 138,78.5 142.75,79.6 143.75,79.85 144,80.1 144.35,80.4 144.35,80.85 144.35,81.5 143.85,81.9 143,82.4 141.5,82.4 140.2,82.4 139.35,81.85 138.6,81.25 138.35,80.1L134.4,80.75Q135,82.85 136.75,84 138.5,85.25 141.5,85.25 144.85,85.25 146.6,83.85 148.3,82.35 148.3,80.35 148.3,78.4 147,77.4 145.75,76.35 142.7,75.65 139.5,74.9 139,74.6 138.6,74.25 138.6,73.85 138.6,73.35 139,73 139.7,72.55 141.25,72.55 142.5,72.55 143.2,73.05 143.85,73.5 144.1,74.4L147.8,73.75"/><path fill="url(#radialGradient)" d="M79.4,9.15Q75.5,5.15 69.9,5.15 64.3,5.15 60.4,9.15 56.45,13.05 56.45,18.55 56.45,24.15 60.4,28.1 64.3,32 69.9,32 75.5,32 79.4,28.1 83.35,24.15 83.35,18.55 83.35,13.05 79.4,9.15"/><path fill="#037A97" d="M52.6,18.55L54.2,6.9Q38.1,21.4 30.85,36.6 26.1,46.45 25.35,55.8 18.8,55.2 14.8,52.7 10.7,50.1 9.8,45.8 8.8,41.45 11.2,35.75 13.7,29.9 19.5,23.35 15.3,26.1 11.2,30.5 3.05,39.35 3.1,47.3 3.1,49.7 4.8,52.3 6.55,54.8 9.55,56.95 16,61.55 25.25,62.3 25.9,71.8 30.6,78.5 32.75,81.5 35.35,83.25 37.85,84.95 40.25,84.95 48.3,85.1 57.05,76.85 61.45,72.75 64.3,68.55 57.65,74.35 51.85,76.85 46.2,79.25 41.75,78.35 37.45,77.4 34.85,73.25 32.25,69.15 31.75,62.3 41.35,61.65 51.45,56.8 66.65,49.45 81.15,33.45L69.5,34.95Q63.45,40.5 55.05,45.85 42.1,54.2 32,55.65 33.6,45.7 41.7,33 47.1,24.65 52.6,18.55"/></g><defs><radialGradient gradientUnits="userSpaceOnUse" color-interpolation="sRGB" r="13.273332214355477" cx="67.05" cy="15.5" fx="67.05" fy="15.5" gradientTransform="matrix(1 0 0 -1 0 31)" id="radialGradient"><stop stop-color="#FFF" stop-opacity="1" offset="0"/><stop stop-color="#DE2E27" stop-opacity="1" offset="1"/></radialGradient></defs></svg>