<?xml version="1.0" encoding="utf-8"?><svg xmlns:xlink="http://www.w3.org/1999/xlink" id="Scene_1" image-rendering="auto" baseProfile="basic" version="1.1" x="0px" y="0px" width="150" height="50" viewBox="0 0 150 50" xmlns="http://www.w3.org/2000/svg"><g id="Scene 1_0.0"><path fill="url(#linearGradient)" d="M127,19.95L123.9,20.1 123.9,34.45 127,34.45 127,19.95"/><path fill="url(#linearGradient)" d="M123.65,16.7Q123.65,18.1 125.45,18.1 127.3,18.1 127.3,16.7 127.3,15.2 125.45,15.2 123.65,15.2 123.65,16.7"/><path fill="url(#linearGradient)" d="M139.95,23.15L140.15,20.45Q138.7,19.8 136.65,19.8 130.25,19.8 130.25,27.2 130.25,34.8 136.6,34.8 138.85,34.8 140.3,33.85L140.05,31.4Q138.9,32.1 137.25,32.1 135.3,32.1 134.4,31 133.4,29.8 133.4,27.2 133.4,24.7 134.25,23.65 135.15,22.6 137.3,22.6 138.75,22.6 139.95,23.15"/><path fill="url(#linearGradient)" d="M116.8,21.2Q115.35,19.75 113,19.75 107.5,19.75 107.5,27.2 107.5,31.05 108.85,32.9 110.2,34.75 113.05,34.75 115.7,34.75 117.1,33.05L117.15,33.1 117.5,34.45 119.85,34.45 119.85,15.5 116.8,15.65 116.85,21.15 116.8,21.2 M113.9,22.55Q115.95,22.55 116.8,23.9L116.8,30.75Q116.1,32.2 113.9,32.2 112.05,32.2 111.35,31.15 110.65,30.1 110.65,27.3 110.65,24.7 111.4,23.6 112.15,22.55 113.9,22.55"/><path fill="url(#linearGradient)" d="M89.7,21.05Q88.4,19.75 86.25,19.75 83.45,19.75 82.15,21.85 81.05,19.75 78.3,19.75 76.1,19.75 74.55,21.4L74.05,19.95 71.85,20.1 71.85,34.45 74.9,34.45 74.9,23.85Q75.7,22.55 77.5,22.55 79.9,22.55 79.9,24.9L79.9,34.45 82.95,34.45 82.95,24.9Q82.95,23.8 83.65,23.15 84.35,22.55 85.4,22.55 87.95,22.55 87.95,25.1L87.95,34.45 91,34.45 91,25.05Q91,22.45 89.7,21.05"/><path fill="url(#linearGradient)" d="M95.2,32.8Q96.9,34.75 100.5,34.75 103.1,34.75 105.1,33.75L104.75,31.2Q103,32 100.9,32 98.75,32 97.8,31.1 96.8,30.15 96.7,27.95L105.5,27.95 105.55,26.45Q105.55,23.1 104,21.4 102.5,19.75 99.7,19.75 93.55,19.75 93.55,26.95 93.55,30.9 95.2,32.8 M99.75,22.35Q102.7,22.35 102.75,25.85L96.65,25.85Q96.75,24 97.45,23.2 98.2,22.35 99.75,22.35"/><path fill="url(#linearGradient)" d="M68.4,23.15L68.65,20.6Q66.8,19.75 64.65,19.75 62.1,19.75 60.7,20.95 59.4,22.1 59.4,24.05 59.4,26.85 62.9,28.05 66.4,29.25 66.4,30.35 66.4,32.2 63.9,32.2 61.55,32.2 59.8,31.1L59.45,33.65Q61.2,34.75 63.9,34.75 69.25,34.75 69.25,30.05 69.25,27.25 65.8,26.05 62.3,24.9 62.3,23.95 62.3,22.4 64.6,22.4 66.6,22.4 68.4,23.15"/><path fill="url(#linearGradient)" d="M51.75,19.75Q49.3,19.75 47.65,21.3L47.15,19.9 45,20.1 45,34.45 48.05,34.45 48.05,23.85Q48.95,22.55 50.9,22.55 53.65,22.55 53.65,25.15L53.65,34.45 56.7,34.45 56.7,25.1Q56.7,22.5 55.35,21.1 54.05,19.75 51.75,19.75"/><path fill="url(#linearGradient)" d="M41.7,34.45L41.7,25.35Q41.7,22.4 40.45,21.1 39.2,19.75 36.2,19.75 33.45,19.75 31.4,20.7L31.65,23.2Q33.6,22.4 35.65,22.4 37.3,22.4 38,23 38.7,23.55 38.7,24.9L38.7,26Q37.25,25.55 35.7,25.55 33.2,25.55 31.85,26.75 30.5,27.95 30.5,30 30.5,32.35 31.75,33.55 32.9,34.7 34.95,34.7 37.65,34.7 39.05,32.9L39.1,32.95 39.4,34.45 41.7,34.45 M38.7,28.1L38.7,30.2Q38.7,31 37.85,31.6 36.95,32.25 35.8,32.25 33.4,32.25 33.4,29.95 33.4,27.7 36.25,27.7 37.75,27.7 38.7,28.1"/><path fill="url(#linearGradient)" d="M23.55,22.7L23.5,22.7 23.2,19.95 20.75,20.1 20.75,34.45 23.8,34.45 23.8,27.2Q23.8,25.2 24.85,24 25.9,22.85 27.5,22.85 28.25,22.85 29,23.1L29.2,20Q28.75,19.8 27.7,19.8 24.95,19.8 23.55,22.7"/><path fill="url(#linearGradient)" d="M15,16.4L12.6,16.65 12.05,20 10.15,20 10.15,22.35 11.95,22.35 11.95,30.5Q11.95,34.7 16,34.7 17.45,34.7 18.25,34.3L18.05,32.05Q17.7,32.2 16.9,32.2 15,32.2 15,30.4L15,22.35 18.35,22.35 18.35,20 15,20 15,16.4"/></g><defs><linearGradient gradientUnits="userSpaceOnUse" color-interpolation="sRGB" x1="18.862499999999997" y1="4.399999999999999" x2="124.1375" y2="46" id="linearGradient"><stop stop-color="#003666" stop-opacity="1" offset="0"/><stop stop-color="#003D6F" stop-opacity="1" offset="0.0902"/><stop stop-color="#00467B" stop-opacity="1" offset="0.27451"/><stop stop-color="#00497F" stop-opacity="1" offset="0.4549"/><stop stop-color="#004B80" stop-opacity="1" offset="0.45882"/><stop stop-color="#006C94" stop-opacity="1" offset="0.55686"/><stop stop-color="#0085A3" stop-opacity="1" offset="0.65882"/><stop stop-color="#0098AE" stop-opacity="1" offset="0.76471"/><stop stop-color="#00A2B5" stop-opacity="1" offset="0.87451"/><stop stop-color="#00A6B7" stop-opacity="1" offset="1"/></linearGradient></defs></svg>