<?xml version="1.0" encoding="utf-8"?><svg xmlns:xlink="http://www.w3.org/1999/xlink" id="Scene_1" image-rendering="auto" baseProfile="basic" version="1.1" x="0px" y="0px" width="50" height="50" viewBox="0 0 50 50" xmlns="http://www.w3.org/2000/svg"><g id="Scene 1_0.0"><path fill="url(#radialGradient)" d="M44.65,11.7Q44.65,8.95 42.65,6.95 40.7,4.95 37.9,4.95 35.1,4.95 33.15,6.95 31.15,8.95 31.15,11.7 31.15,14.5 33.15,16.45 35.1,18.45 37.9,18.45 40.7,18.45 42.65,16.45 44.65,14.5 44.65,11.7"/><path fill="#037A97" d="M23.75,18.95Q26.45,14.75 29.25,11.7L30.05,5.85Q21.95,13.1 18.3,20.75 15.95,25.65 15.55,30.35 12.3,30.05 10.3,28.8 8.2,27.5 7.75,25.35 7.25,23.15 8.5,20.3 9.75,17.4 12.6,14.1 10.55,15.45 8.5,17.65 4.35,22.1 4.4,26.1 4.4,27.3 5.25,28.6 6.15,29.85 7.65,30.95 10.85,33.25 15.5,33.6 15.85,38.4 18.2,41.75 19.25,43.25 20.55,44.1 21.85,44.95 23.05,44.95 27.05,45.05 31.45,40.9 33.65,38.85 35.1,36.75 31.75,39.65 28.85,40.9 26,42.1 23.8,41.65 21.6,41.2 20.3,39.1 19,37.05 18.75,33.6 23.6,33.3 28.65,30.85 36.25,27.15 43.55,19.15L37.7,19.9Q34.65,22.7 30.45,25.4 23.95,29.55 18.9,30.25 19.7,25.3 23.75,18.95"/></g><defs><radialGradient gradientUnits="userSpaceOnUse" color-interpolation="sRGB" r="6.655221557617189" cx="36.45" cy="10.15" fx="36.45" fy="10.15" gradientTransform="matrix(1 0 0 -1 0 20.3)" id="radialGradient"><stop stop-color="#FFF" stop-opacity="1" offset="0"/><stop stop-color="#DE2E27" stop-opacity="1" offset="1"/></radialGradient></defs></svg>