<?xml version="1.0" encoding="utf-8"?><svg xmlns:xlink="http://www.w3.org/1999/xlink" id="Scene_1" image-rendering="auto" baseProfile="basic" version="1.1" x="0px" y="0px" width="150" height="50" viewBox="0 0 150 50" xmlns="http://www.w3.org/2000/svg"><g id="Scene 1_0.0"><path fill="url(#linearGradient)" d="M126.8,18.2L123.7,18.35 123.7,32.7 126.8,32.7 126.8,18.2"/><path fill="url(#linearGradient)" d="M125.25,13.45Q123.45,13.45 123.45,14.95 123.45,16.35 125.25,16.35 127.1,16.35 127.1,14.95 127.1,13.45 125.25,13.45"/><path fill="url(#linearGradient)" d="M139.75,21.4L139.95,18.7Q138.5,18.05 136.45,18.05 130.05,18.05 130.05,25.45 130.05,33.05 136.4,33.05 138.65,33.05 140.1,32.1L139.85,29.65Q138.7,30.35 137.05,30.35 135.1,30.35 134.2,29.25 133.2,28.05 133.2,25.45 133.2,22.95 134.05,21.9 134.95,20.85 137.1,20.85 138.55,20.85 139.75,21.4"/><path fill="url(#linearGradient)" d="M116.6,19.45Q115.15,18 112.8,18 107.3,18 107.3,25.45 107.3,29.3 108.65,31.15 110,33 112.85,33 115.5,33 116.9,31.3L116.95,31.35 117.3,32.7 119.65,32.7 119.65,13.75 116.6,13.9 116.65,19.4 116.6,19.45 M116.6,22.15L116.6,29Q115.9,30.45 113.7,30.45 111.85,30.45 111.15,29.4 110.45,28.35 110.45,25.55 110.45,22.95 111.2,21.85 111.95,20.8 113.7,20.8 115.75,20.8 116.6,22.15"/><path fill="url(#linearGradient)" d="M105.35,24.7Q105.35,21.35 103.8,19.65 102.3,18 99.5,18 93.35,18 93.35,25.2 93.35,29.15 95,31.05 96.7,33 100.3,33 102.9,33 104.9,32L104.55,29.45Q102.8,30.25 100.7,30.25 98.55,30.25 97.6,29.35 96.6,28.4 96.5,26.2L105.3,26.2 105.35,24.7 M97.25,21.45Q98,20.6 99.55,20.6 102.5,20.6 102.55,24.1L96.45,24.1Q96.55,22.25 97.25,21.45"/><path fill="url(#linearGradient)" d="M90.8,23.3Q90.8,20.7 89.5,19.3 88.2,18 86.05,18 83.25,18 81.95,20.1 80.85,18 78.1,18 75.9,18 74.35,19.65L73.85,18.2 71.65,18.35 71.65,32.7 74.7,32.7 74.7,22.1Q75.5,20.8 77.3,20.8 79.7,20.8 79.7,23.15L79.7,32.7 82.75,32.7 82.75,23.15Q82.75,22.05 83.45,21.4 84.15,20.8 85.2,20.8 87.75,20.8 87.75,23.35L87.75,32.7 90.8,32.7 90.8,23.3"/><path fill="url(#linearGradient)" d="M65.6,24.3Q62.1,23.15 62.1,22.2 62.1,20.65 64.4,20.65 66.4,20.65 68.2,21.4L68.45,18.85Q66.6,18 64.45,18 61.9,18 60.5,19.2 59.2,20.35 59.2,22.3 59.2,25.1 62.7,26.3 66.2,27.5 66.2,28.6 66.2,30.45 63.7,30.45 61.35,30.45 59.6,29.35L59.25,31.9Q61,33 63.7,33 69.05,33 69.05,28.3 69.05,25.5 65.6,24.3"/><path fill="url(#linearGradient)" d="M56.5,23.35Q56.5,20.75 55.15,19.35 53.85,18 51.55,18 49.1,18 47.45,19.55L46.95,18.15 44.8,18.35 44.8,32.7 47.85,32.7 47.85,22.1Q48.75,20.8 50.7,20.8 53.45,20.8 53.45,23.4L53.45,32.7 56.5,32.7 56.5,23.35"/><path fill="url(#linearGradient)" d="M41.5,32.7L41.5,23.6Q41.5,20.65 40.25,19.35 39,18 36,18 33.25,18 31.2,18.95L31.45,21.45Q33.4,20.65 35.45,20.65 37.1,20.65 37.8,21.25 38.5,21.8 38.5,23.15L38.5,24.25Q37.05,23.8 35.5,23.8 33,23.8 31.65,25 30.3,26.2 30.3,28.25 30.3,30.6 31.55,31.8 32.7,32.95 34.75,32.95 37.45,32.95 38.85,31.15L38.9,31.2 39.2,32.7 41.5,32.7 M37.65,29.85Q36.75,30.5 35.6,30.5 33.2,30.5 33.2,28.2 33.2,25.95 36.05,25.95 37.55,25.95 38.5,26.35L38.5,28.45Q38.5,29.25 37.65,29.85"/><path fill="url(#linearGradient)" d="M28.8,21.35L29,18.25Q28.55,18.05 27.5,18.05 24.75,18.05 23.35,20.95L23.3,20.95 23,18.2 20.55,18.35 20.55,32.7 23.6,32.7 23.6,25.45Q23.6,23.45 24.65,22.25 25.7,21.1 27.3,21.1 28.05,21.1 28.8,21.35"/><path fill="url(#linearGradient)" d="M9.95,18.25L9.95,20.6 11.75,20.6 11.75,28.75Q11.75,32.95 15.8,32.95 17.25,32.95 18.05,32.55L17.85,30.3Q17.5,30.45 16.7,30.45 14.8,30.45 14.8,28.65L14.8,20.6 18.15,20.6 18.15,18.25 14.8,18.25 14.8,14.65 12.4,14.9 11.85,18.25 9.95,18.25"/></g><defs><linearGradient gradientUnits="userSpaceOnUse" color-interpolation="sRGB" x1="18.662499999999994" y1="2.6499999999999986" x2="123.9375" y2="44.25" id="linearGradient"><stop stop-color="#003666" stop-opacity="1" offset="0"/><stop stop-color="#003D6F" stop-opacity="1" offset="0.0902"/><stop stop-color="#00467B" stop-opacity="1" offset="0.27451"/><stop stop-color="#00497F" stop-opacity="1" offset="0.4549"/><stop stop-color="#004B80" stop-opacity="1" offset="0.45882"/><stop stop-color="#006C94" stop-opacity="1" offset="0.55686"/><stop stop-color="#0085A3" stop-opacity="1" offset="0.65882"/><stop stop-color="#0098AE" stop-opacity="1" offset="0.76471"/><stop stop-color="#00A2B5" stop-opacity="1" offset="0.87451"/><stop stop-color="#00A6B7" stop-opacity="1" offset="1"/></linearGradient></defs></svg>