<svg xmlns="http://www.w3.org/2000/svg" width="173" height="69" viewBox="0 0 172.2 68.21"><defs><style>.cls-1{fill:#82888f;}.cls-2{fill:#f7a800;}</style></defs><title>Asset 1</title><g id="Layer_2" data-name="Layer 2"><g id="Layer_1-2" data-name="Layer 1"><path class="cls-1" d="M95.5,57.5h1.2V68H95.5Z"/><path class="cls-1" d="M131.6,57.4h1.2v9.4h4.9V68h-6.1Z"/><path class="cls-1" d="M54.2,68.1c-2.5,0-3.7-1.2-3.7-3.8v-7h1.2v7c0,1.9.8,2.7,2.5,2.7s2.5-.9,2.5-2.7v-7h1.2v7C57.9,66.8,56.7,68.1,54.2,68.1Z"/><path class="cls-1" d="M43.3,59a2.9,2.9,0,0,0-.8-1,3.2,3.2,0,0,0-1.2-.6L40,57.2l-1.3.2-1.2.6a2.59,2.59,0,0,0-1.1,2.3,2.45,2.45,0,0,0,1,2l1,.5,1.2.3,1.2.3,1,.3.7.5a1.3,1.3,0,0,1,.3.9,1.7,1.7,0,0,1-.2.9l-.6.6-.8.3h-2l-.9-.4a2.3,2.3,0,0,1-.6-.8,2.1,2.1,0,0,1-.2-.6l-1.2.3a3.5,3.5,0,0,0,1.2,1.9,3.8,3.8,0,0,0,1.3.7l1.6.2,1.4-.2,1.3-.5a3,3,0,0,0,1-3.7,2.5,2.5,0,0,0-.7-.8l-1-.5L40.9,62l-1.2-.3-1-.3-.7-.5a1.1,1.1,0,0,1-.3-.8,1.7,1.7,0,0,1,.2-.8l.5-.5.7-.3h.8a2.8,2.8,0,0,1,1.7.5,2,2,0,0,1,.7,1.2l1.2-.3A3.2,3.2,0,0,0,43.3,59Z"/><path class="cls-1" d="M84,62.6v1.2h2.8a3.4,3.4,0,0,1-.2,1.2,3.2,3.2,0,0,1-.6,1.1,2.7,2.7,0,0,1-.9.7l-1.3.3a2.6,2.6,0,0,1-1.4-.3,3.1,3.1,0,0,1-1-.9,4.3,4.3,0,0,1-.6-1.3,6,6,0,0,1-.2-1.6,7.4,7.4,0,0,1,.2-1.6,4.7,4.7,0,0,1,.6-1.4,3.1,3.1,0,0,1,1-1,2.6,2.6,0,0,1,1.4-.4h1l.8.4a2.3,2.3,0,0,1,.6.7,2.9,2.9,0,0,1,.3.8l1.2-.3a4.2,4.2,0,0,0-.4-1.1,3.6,3.6,0,0,0-.9-1.1,3.4,3.4,0,0,0-1.2-.6l-1.4-.2a3.8,3.8,0,0,0-1.9.5A4.1,4.1,0,0,0,80.5,59a5.7,5.7,0,0,0-.8,1.8,8.4,8.4,0,0,0-.3,2.2,6.7,6.7,0,0,0,.3,2,5.3,5.3,0,0,0,.9,1.7A4.3,4.3,0,0,0,82,67.8a3.8,3.8,0,0,0,1.8.4h.8l.8-.3.7-.5.6-.7L87,68h.8V62.6Z"/><path class="cls-1" d="M110.6,64.5l-.2.7a2.9,2.9,0,0,1-.5,1l-.8.6L108,67a2.7,2.7,0,0,1-1.4-.3,2.9,2.9,0,0,1-1-.9,4.3,4.3,0,0,1-.6-1.4,7.6,7.6,0,0,1-.2-1.7,6.8,6.8,0,0,1,.2-1.6,4.3,4.3,0,0,1,.6-1.3,2.9,2.9,0,0,1,1-.9,2.7,2.7,0,0,1,1.4-.3,2.6,2.6,0,0,1,1.7.6,2.8,2.8,0,0,1,.9,1.8l1.2-.2a4.1,4.1,0,0,0-.4-1.4,3.5,3.5,0,0,0-.8-1.1l-1.1-.6-1.4-.2a3.8,3.8,0,0,0-3.2,1.6,5.4,5.4,0,0,0-.8,1.7,7.8,7.8,0,0,0-.3,2.1,8.2,8.2,0,0,0,.3,2.1,5.2,5.2,0,0,0,.8,1.7,3.8,3.8,0,0,0,1.3,1.1,3.9,3.9,0,0,0,1.9.4,3.6,3.6,0,0,0,2.8-1.1,4.6,4.6,0,0,0,1.1-2.3Z"/><path class="cls-1" d="M125.5,67.9h-1.3l-.9-2.9h-3.8l-.9,2.9h-1.3l3.3-10.3h1.5l3.3,10.3Zm-5.7-4H123l-1.6-5.4L119.8,64Z"/><path class="cls-1" d="M73,68l-2-4.9a2.9,2.9,0,0,0,1.2-.7,2.7,2.7,0,0,0,.8-2,2.9,2.9,0,0,0-.7-2.1,3.2,3.2,0,0,0-2.4-.8H65.5V67.9h1.1V63.3h3.2l2,4.7Zm-6.3-5.6v-4h2.9a2.6,2.6,0,0,1,1.7.5,1.9,1.9,0,0,1,.6,1.5,1.8,1.8,0,0,1-.7,1.5,2.6,2.6,0,0,1-1.6.4Z"/><path class="cls-1" d="M2.1,38.4H0V15.9H2.1Z"/><path class="cls-1" d="M25.6,38.4H23.8L18.7,23.2l-.4-1.5L18,20.3h-.1q.2,2.2.3,4.4V38.4H16.3V15.9h1.8l5.2,15.7q.4,1.2.7,2.3h0a22.67,22.67,0,0,1-.2-3v-15h1.8Z"/><path class="cls-1" d="M47.4,17.8H44V38.4H41.9V17.8H38.6V15.9h8.8Z"/><path class="cls-1" d="M70.3,31.3q0,1.5-.1,2.9a7.1,7.1,0,0,1-.6,2.4,3.4,3.4,0,0,1-1.4,1.6A6.1,6.1,0,0,1,63,38a3.7,3.7,0,0,1-1.4-1.6A7.7,7.7,0,0,1,61,34q-.1-1.3-.1-2.8V15.9H63V31.1a13.9,13.9,0,0,0,.4,4.2,2.4,2.4,0,0,0,4.4,0,13.7,13.7,0,0,0,.4-4.2V15.9h2.1Z"/><path class="cls-1" d="M88.2,38.4H86.1V15.9h2.1Z"/><path class="cls-1" d="M111.2,17.8h-3.3V38.4h-2.1V17.8h-3.3V15.9h8.8Z"/><path class="cls-1" d="M127.6,38.4h-2.1V15.9h2.1Z"/><path class="cls-1" d="M148.2,38.4h-1.8l-4.5-22.5H144l3,16.4a11,11,0,0,1,.2,1.3l.2,1.7h.1q.2-1.9.3-3.1l2.9-16.4h2.1Z"/><path class="cls-1" d="M172.2,17.5h-4.9v8h4.8v1.9h-4.8v8.8h4.9v1.9h-7V15.6h7Z"/><circle class="cls-2" cx="87" cy="4.4" r="4.4"/><path class="cls-1" d="M143.6,53.6a2.1,2.1,0,0,1,.9.8,2.2,2.2,0,0,1,0,2.2,2.1,2.1,0,0,1-.8.8,2.3,2.3,0,0,1-2.3,0,2.1,2.1,0,0,1-.8-.8,2.17,2.17,0,0,1,0-2.2,2.1,2.1,0,0,1,.9-.8,2.4,2.4,0,0,1,1.1-.3Zm-2.5-.4a2.5,2.5,0,0,0-1,1,2.6,2.6,0,0,0,0,2.7,2.5,2.5,0,0,0,1,1,2.8,2.8,0,0,0,2.7,0,2.5,2.5,0,0,0,1-1,2.6,2.6,0,0,0,0-2.7,2.5,2.5,0,0,0-1-1A2.8,2.8,0,0,0,141.1,53.2Zm.6,3.8V55.8h.7l.5.7.3.5h.6l-.4-.6-.4-.6-.2-.2.6-.3a.8.8,0,0,0,.2-.5.7.7,0,0,0-.1-.4l-.4-.3h-1.8V57Zm0-2.5h1l.2.2V55a.4.4,0,0,1-.2.3h-1.1Z"/></g></g></svg>