<?xml version="1.0" encoding="utf-8"?><svg xmlns:xlink="http://www.w3.org/1999/xlink" id="Scene_1" image-rendering="auto" baseProfile="basic" version="1.1" x="0px" y="0px" width="20" height="20" viewBox="0 0 20 20" xmlns="http://www.w3.org/2000/svg"><g id="Scene 1_1.0"><path fill="#373535" d="M2.5,2.9Q2.504,3.062 2.625,3.175L16.825,17.375Q16.938,17.496 17.1,17.5 17.262,17.496 17.375,17.375 17.496,17.262 17.5,17.1 17.496,16.938 17.375,16.825L3.175,2.625Q3.062,2.504 2.9,2.5 2.738,2.504 2.625,2.625 2.504,2.738 2.5,2.9"/></g><g id="Scene 1_0.0"><path fill="#373535" d="M17.1,2.5Q16.938,2.504 16.825,2.625L2.625,16.825Q2.504,16.938 2.5,17.1 2.504,17.262 2.625,17.375 2.738,17.496 2.9,17.5 3.062,17.496 3.175,17.375L17.375,3.175Q17.496,3.062 17.5,2.9 17.496,2.738 17.375,2.625 17.262,2.504 17.1,2.5"/></g><defs/></svg>